<svg xmlns="http://www.w3.org/2000/svg" xmlns:xlink="http://www.w3.org/1999/xlink" width="2155" height="998.306" viewBox="0 0 2155 998.306"><defs><linearGradient id="a" x1="-0.005" y1="0.497" x2="0.983" y2="0.532" gradientUnits="objectBoundingBox"><stop offset="0" stop-color="#fff" stop-opacity="0.549"/><stop offset="1" stop-color="#fff" stop-opacity="0"/></linearGradient><clipPath id="b"><path d="M96.248,232v-.79C42.053,224.475,0,175.463,0,116S42.053,7.525,96.248.79V0H452V232Z" transform="matrix(-0.643, -0.766, 0.766, -0.643, 1120.622, 466.073)" opacity="0.05" fill="url(#a)"/></clipPath><filter id="c" x="1035.379" y="155.775" width="1218.394" height="1194.151" filterUnits="userSpaceOnUse"><feOffset dx="5" input="SourceAlpha"/><feGaussianBlur stdDeviation="46.5" result="d"/><feFlood flood-color="#2e6bd4" flood-opacity="0.361"/><feComposite operator="in" in2="d"/><feComposite in="SourceGraphic"/></filter><filter id="e" x="1101.954" y="-48.469" width="1340.007" height="1602.176" filterUnits="userSpaceOnUse"><feOffset dx="5" input="SourceAlpha"/><feGaussianBlur stdDeviation="46.5" result="f"/><feFlood flood-color="#2e6bd4" flood-opacity="0.361"/><feComposite operator="in" in2="f"/><feComposite in="SourceGraphic"/></filter><linearGradient id="g" x1="0.623" y1="-1.116" x2="0.333" y2="2.043" gradientUnits="objectBoundingBox"><stop offset="0" stop-color="#4279f1"/><stop offset="0.414" stop-color="#5561f5"/><stop offset="1" stop-color="#7f31ff"/></linearGradient></defs><g transform="translate(134 29.306)"><g clip-path="url(#b)"><g transform="matrix(1, 0, 0, 1, -134, -29.31)" filter="url(#c)"><path d="M787.879,912.121,1727.273-3.03H1030.3Z" transform="translate(382 298.31)" fill="#fff" opacity="0.03"/></g><g transform="matrix(1, 0, 0, 1, -134, -29.31)" filter="url(#e)"><path d="M787.879,1116.257,1575.836-42.463,1030.3-3.03Z" transform="matrix(0.97, 0.26, -0.26, 0.97, 764.33, -71.87)" fill="#fff" opacity="0.03"/></g></g><circle cx="101" cy="101" r="101" transform="translate(1819 146)" fill="#ffc148" opacity="0.88"/><circle cx="101" cy="101" r="101" transform="translate(-134 767)" fill="#4279f1" opacity="0.5"/><circle cx="34.5" cy="34.5" r="34.5" transform="translate(850 245)" fill="#4279f1" opacity="0.41"/><circle cx="34.5" cy="34.5" r="34.5" transform="translate(1698 895)" fill="url(#g)"/><circle cx="17.5" cy="17.5" r="17.5" transform="translate(20 246)" fill="#ffc85e"/><circle cx="11.5" cy="11.5" r="11.5" transform="translate(1176 907)" fill="#9de7fc"/></g></svg>