<svg xmlns="http://www.w3.org/2000/svg" width="296.553" height="259.055" viewBox="0 0 296.553 259.055"><g transform="translate(-811.38 -2393.044)"><path d="M36.755,55.11C29.893,74.127,9.308,91.184,9.308,91.184S-4.417,104.32,1.465,117.847,24.012,130.591,32.834,145.3s-9.41,26.86,3.921,31.369,30.192-13.724,53.327-7.058,20,31.957,39.211,33.722,11.566-20,37.643-26.663,54.111,14.116,66.659,0-1.765-15.1,3.137-45.485S260.651,75.5,253.2,55.11s-34.7,4.509-46.27-5.49,17.058-28.624,0-34.506S158.113,30.21,138.7,26.093,132.234,2.959,114.394.214,99.885,21.976,76.751,26.093s-34.506-17.449-40-10.979S43.617,36.092,36.755,55.11Z" transform="translate(1107.932 2590.431) rotate(166)" fill="#4279f1" opacity="0.05"/><g transform="translate(-824.555 -1936.5)"><path d="M159.551,88.348c-.012-.284-37-25.014-37.116-25.3a20.365,20.365,0,0,0-1.041-1.892c-.887-1.626-.579-10.139-.579-13.633,0-8.555-4.854-15.448-6.633-17.7a.84.84,0,0,0-.65-.313.851.851,0,0,0-.686.313c-1.785,2.252-6.633,9.146-6.633,17.7,0,3.494.307,12.007-.579,13.633a19.079,19.079,0,0,0-1.041,1.892c-.118.29-37.1,25.02-37.116,25.3-.112,2.53-.65,9.861-.006,9.7,2-.491,37.311-15.945,37.311-15.945s1.153,1.354,1.951,5h-4.2a2.359,2.359,0,0,0-.733,1.732c.053,1.029.68,9.985.68,9.985l1.478,4.9h2.229l1.117-4.582,1.791-.018,1.478,13.781-8.833,6.722.053,2.028,10.547-.751,1.176,3.926,1.176-3.926,10.547.751.053-2.028-8.833-6.722,1.472-13.781,1.8.018,1.117,4.582h2.229l1.478-4.9s.627-8.957.68-9.985a2.359,2.359,0,0,0-.733-1.732h-4.2c.8-3.648,1.951-5,1.951-5s35.313,15.454,37.311,15.945C160.2,98.21,159.663,90.879,159.551,88.348Z" transform="translate(1671.249 4380.585)" fill="#fff"/><path d="M76.281,39.36s2.926.875,2.861,1.176-.71,10.293-.71,10.293l-1.508,4.9h1.342l1.821-5.262s.035-10.7,0-11.02S76.281,39.36,76.281,39.36Z" transform="translate(1716.056 4428.58)" fill="#cad7ef"/><path d="M73.441,39.36s2.932.875,2.861,1.176-.7,10.293-.7,10.293l-1.513,4.9h1.348l1.815-5.262s.041-10.7,0-11.02S73.441,39.36,73.441,39.36Z" transform="translate(1702.105 4428.58)" fill="#cad7ef"/><path d="M76.607,36.053c0,.177.751,10.47,2.926,12.173S114.06,64.567,114.06,64.567s1.147,2.424-1.224,1.182S76.53,50.082,76.53,50.082Z" transform="translate(1717.28 4412.744)" fill="#cad7ef"/><path d="M104.851,36.053c0,.177-.751,10.47-2.926,12.173S67.4,64.567,67.4,64.567s-1.147,2.424,1.23,1.182,36.3-15.667,36.3-15.667Z" transform="translate(1671.062 4412.744)" fill="#cad7ef"/><path d="M76.307,107.836c0-.106,2.069-12.729,3.405-18.83s.822-37.015.822-37.015H81.4V49.035h-.863V44.063c0-1.927-1.176-5.676-5.315-5.676L75,29.472s5.344,7.154,6.4,11.848a53.641,53.641,0,0,1,.934,11.83c-.095,1.927.118,7.715.118,7.715l.769,1.029.059,21.088-1.389,3.281-.952,1.33-.278,6.74-2.714,18.741-1.715-1.336Z" transform="translate(1709.764 4380.417)" fill="#cad7ef"/><path d="M76.923,44.413l-1.517,8.1-.2-9.065Z" transform="translate(1710.787 4449.08)" fill="#cad7ef"/><ellipse cx="16.397" cy="2.935" rx="16.397" ry="2.935" transform="translate(1768.367 4524.775)" fill="#cad7ef"/><g transform="translate(1737.555 4409.5)"><g transform="translate(39.265)"><path d="M88.961,87.722l-1.153-.248a24.841,24.841,0,0,0,.473-6.71l-.006-32.753c0-8.241-4.546-14.863-6.5-17.328A26.939,26.939,0,0,0,74.89,48.011V80.7a25.381,25.381,0,0,0,.5,6.769l-1.153.248a26.006,26.006,0,0,1-.532-7.065V48.011c0-8.614,4.73-15.5,6.763-18.067a1.417,1.417,0,0,1,2.223,0c2.034,2.566,6.763,9.453,6.763,18.067V80.7A24.906,24.906,0,0,1,88.961,87.722Z" transform="translate(-73.656 -29.406)" fill="#4279f1"/></g><g transform="translate(34.823 63.95)"><path d="M85.291,74.247l-1.608-5.362-10.689.769L72.9,66.431l8.821-6.444c-.189-2.087-1.247-13.438-2.347-19.557l1.165-.207C81.755,47,82.92,60.082,82.932,60.212l.03.331-8.856,6.48.035,1.36,10.4-.745.751,2.495.751-2.495,10.37.745.059-1.366-8.85-6.474.03-.331c.012-.13,1.182-13.19,2.388-19.971l1.165.207c-1.088,6.125-2.158,17.452-2.347,19.539l8.821,6.45-.13,3.216L86.9,68.885Z" transform="translate(-72.905 -40.223)" fill="#4279f1"/></g><g transform="translate(34.9 57.601)"><path d="M80.279,52.049H73.285L72.918,40.9a1.747,1.747,0,0,1,1.785-1.75H78.86a1.742,1.742,0,0,1,1.785,1.726Zm-5.847-1.182h4.7l.331-10.009a.557.557,0,0,0-.6-.526H74.7a.563.563,0,0,0-.6.544Z" transform="translate(-72.918 -39.149)" fill="#4279f1"/></g><g transform="translate(35.493 59.33)"><rect width="6.542" height="1.182" fill="#4279f1"/></g><g transform="translate(35.704 69.319)"><path d="M77.695,47.214H74.532l-1.478-6.083h6.119ZM75.46,46.032h1.307l.9-3.719H74.556Z" transform="translate(-73.054 -41.131)" fill="#4279f1"/></g><g transform="translate(51.791 57.601)"><path d="M83.13,52.049H76.142L75.775,40.9a1.747,1.747,0,0,1,1.785-1.75h4.156a1.737,1.737,0,0,1,1.78,1.726Zm-5.841-1.182h4.7l.331-10.009a.564.564,0,0,0-.6-.526H77.56a.56.56,0,0,0-.6.544Z" transform="translate(-75.775 -39.149)" fill="#4279f1"/></g><g transform="translate(52.382 59.33)"><rect width="6.542" height="1.182" fill="#4279f1"/></g><g transform="translate(52.589 69.319)"><path d="M80.551,47.214H77.394L75.91,41.131h6.125Zm-2.229-1.182h1.3l.9-3.719h-3.11Z" transform="translate(-75.91 -41.131)" fill="#4279f1"/></g><g transform="translate(37.485 31.505)"><path d="M75.619,58.691c-2.442-.686-2.276-5.132-2.252-5.634V38.684c0-3.654,2.252-3.937,2.347-3.949l.124,1.176-.059-.585.077.585c-.053.006-1.307.231-1.307,2.773v14.4c-.053,1.064.089,4.1,1.389,4.47Z" transform="translate(-73.355 -34.735)" fill="#4279f1"/></g><g transform="translate(0 34.248)"><path d="M68.015,70.866a1.046,1.046,0,0,1-.568-.171,1,1,0,0,1-.432-.869l.319-8.578a2.534,2.534,0,0,1,1.129-2l36.3-24.044.656.987-36.3,24.038a1.349,1.349,0,0,0-.6,1.07L68.2,69.589,105.255,53.6l.467,1.088-37.305,16.1A.961.961,0,0,1,68.015,70.866Z" transform="translate(-67.015 -35.199)" fill="#4279f1"/></g><g transform="translate(54.351 31.505)"><path d="M76.527,58.691l-.319-1.135c1.307-.372,1.443-3.405,1.389-4.44V38.684c0-2.56-1.277-2.773-1.295-2.773l.13-1.176c.095.012,2.347.3,2.347,3.949v14.4C78.8,53.559,78.969,58,76.527,58.691Z" transform="translate(-76.208 -34.735)" fill="#4279f1"/></g><g transform="translate(55.705 34.248)"><path d="M114.144,70.866a.954.954,0,0,1-.4-.083l-37.311-16.1L76.91,53.6l37.051,15.992-.313-8.295a1.357,1.357,0,0,0-.6-1.07l-36.3-24.038.65-.987L113.7,59.243a2.512,2.512,0,0,1,1.123,2l.325,8.578a1,1,0,0,1-.437.869A1.017,1.017,0,0,1,114.144,70.866Z" transform="translate(-76.437 -35.199)" fill="#4279f1"/></g><g transform="translate(41.469 8.632)"><path d="M85.327,37.3H82.613a4.558,4.558,0,0,0-2.861-1.023,4.419,4.419,0,0,0-2.7.9,23.513,23.513,0,0,1-2.873.124l-.083-.5a4.627,4.627,0,0,1-.065-.763,5.752,5.752,0,0,1,11.446,0,4.706,4.706,0,0,1-.065.769Zm-2.312-1.182h1.277a4.573,4.573,0,0,0-9.081-.077,7.225,7.225,0,0,0,1.283.077,5.708,5.708,0,0,1,6.521,0Z" transform="translate(-74.029 -30.866)" fill="#4279f1"/></g><g transform="translate(46.601 8.775)"><rect width="1.182" height="5.052" fill="#4279f1"/></g><g transform="translate(42.134 10.882)"><rect width="1.182" height="3.887" transform="matrix(0.772, -0.635, 0.635, 0.772, 0, 0.751)" fill="#4279f1"/></g><g transform="translate(48.847 10.925)"><rect width="3.764" height="1.183" transform="translate(0 2.907) rotate(-50.557)" fill="#4279f1"/></g><g transform="translate(39.317 19.36)"><path d="M73.665,37.365v-4.2l1.732-.455a.943.943,0,0,1,1.182.916v2.241a.942.942,0,0,1-.7.91Zm1.182-3.287v1.75l.55-.142v-1.75Z" transform="translate(-73.665 -32.681)" fill="#4279f1"/></g><g transform="translate(52.152 19.36)"><path d="M78.751,37.365,76.54,36.78a.942.942,0,0,1-.7-.91V33.629a.943.943,0,0,1,1.182-.916l1.732.455Zm-1.732-1.679.55.142v-1.75l-.55-.142Z" transform="translate(-75.836 -32.681)" fill="#4279f1"/></g><g transform="translate(41.149 26.711)"><path d="M74.714,36.661a.744.744,0,0,1-.739-.745V34.663a.739.739,0,1,1,1.478,0v1.253A.744.744,0,0,1,74.714,36.661Z" transform="translate(-73.975 -33.924)" fill="#4279f1"/><path d="M74.714,37.519a.739.739,0,0,1-.739-.739V35.521a.739.739,0,0,1,1.478,0V36.78A.739.739,0,0,1,74.714,37.519Z" transform="translate(-73.975 -29.709)" fill="#4279f1"/><path d="M74.714,38.372a.739.739,0,0,1-.739-.739V36.38a.739.739,0,1,1,1.478,0v1.253A.739.739,0,0,1,74.714,38.372Z" transform="translate(-73.975 -25.49)" fill="#4279f1"/><path d="M74.714,39.236a.743.743,0,0,1-.739-.739V37.238a.739.739,0,1,1,1.478,0V38.5A.743.743,0,0,1,74.714,39.236Z" transform="translate(-73.975 -21.275)" fill="#4279f1"/><path d="M74.714,40.094a.739.739,0,0,1-.739-.739V38.1a.739.739,0,1,1,1.478,0v1.253A.739.739,0,0,1,74.714,40.094Z" transform="translate(-73.975 -17.061)" fill="#4279f1"/></g><g transform="translate(51.791 26.711)"><path d="M76.514,36.661a.744.744,0,0,1-.739-.745V34.663a.739.739,0,1,1,1.478,0v1.253A.744.744,0,0,1,76.514,36.661Z" transform="translate(-75.775 -33.924)" fill="#4279f1"/><path d="M76.514,37.519a.739.739,0,0,1-.739-.739V35.521a.739.739,0,0,1,1.478,0V36.78A.739.739,0,0,1,76.514,37.519Z" transform="translate(-75.775 -29.709)" fill="#4279f1"/><path d="M76.514,38.372a.739.739,0,0,1-.739-.739V36.38a.739.739,0,0,1,1.478,0v1.253A.739.739,0,0,1,76.514,38.372Z" transform="translate(-75.775 -25.49)" fill="#4279f1"/><path d="M76.514,39.236a.743.743,0,0,1-.739-.739V37.238a.739.739,0,1,1,1.478,0V38.5A.743.743,0,0,1,76.514,39.236Z" transform="translate(-75.775 -21.275)" fill="#4279f1"/><path d="M76.514,40.094a.739.739,0,0,1-.739-.739V38.1a.739.739,0,1,1,1.478,0v1.253A.739.739,0,0,1,76.514,40.094Z" transform="translate(-75.775 -17.061)" fill="#4279f1"/></g><g transform="translate(45.44 71.034)"><path d="M78.24,62.375H77.057V48.935l-.587-2.446-.587,2.446v13.44H74.7l.017-13.649,1.753-7.305,1.769,7.444Z" transform="translate(-74.701 -41.421)" fill="#4279f1"/></g><g transform="translate(46.031 77.887)"><rect width="2.357" height="1.182" fill="#4279f1"/></g><g transform="translate(44.008 82.187)"><rect width="2.094" height="1.183" transform="translate(0 1.272) rotate(-37.403)" fill="#4279f1"/></g><g transform="translate(48.049 82.172)"><rect width="1.182" height="2.222" transform="translate(0 0.969) rotate(-55.079)" fill="#4279f1"/></g></g><path d="M76.293,31.221c0,.041-1.058,2.117-1.058,2.117l.526.136,1.378-1.6Z" transform="translate(1710.918 4389.009)" fill="#cad7ef"/><path d="M76.454,31.619l.125.653h-1Z" transform="translate(1712.605 4390.962)" fill="#cad7ef"/></g></g></svg>