<svg xmlns="http://www.w3.org/2000/svg" width="26" height="26" viewBox="0 0 26 26"><g transform="translate(-849 -2823)"><g transform="translate(849 2866)"><path d="M13,0A13,13,0,1,0,26,13,13.014,13.014,0,0,0,13,0Zm0,0" transform="translate(0 -43)" fill="#4279f1" opacity="0.1"/><path d="M153.74,167.178l-7.042,7.042a1.082,1.082,0,0,1-1.532,0l-3.521-3.521a1.083,1.083,0,1,1,1.532-1.532l2.755,2.755,6.276-6.276a1.083,1.083,0,0,1,1.532,1.532Zm0,0" transform="translate(-134.151 -199.933)" fill="#4279f1"/></g></g></svg>