<svg xmlns="http://www.w3.org/2000/svg" xmlns:xlink="http://www.w3.org/1999/xlink" width="582.88" height="668.39" viewBox="0 0 582.88 668.39">
  <defs>
    <linearGradient id="linear-gradient" x1="0.5" x2="0.5" y2="1" gradientUnits="objectBoundingBox">
      <stop offset="0" stop-color="#4279f1"/>
      <stop offset="0.414" stop-color="#5561f5"/>
      <stop offset="1" stop-color="#7f31ff"/>
    </linearGradient>
    <clipPath id="clip-path">
      <path id="Path_3103" data-name="Path 3103" d="M2161.345,848.214V746.574h108.863v101.64Zm-2.493-180.587a258.486,258.486,0,0,1,2.493-36.565,129.728,129.728,0,0,1,9.557-33.656,106.114,106.114,0,0,1,20.359-30.332q13.3-14.127,34.9-25.762,10.8-5.817,28.671-15.374a293.631,293.631,0,0,0,34.9-22.021,144.986,144.986,0,0,0,29.5-28.67A57.847,57.847,0,0,0,2331.7,439.1q0-27.423-19.945-42.8a72.834,72.834,0,0,0-45.706-15.373q-16.621,0-29.5,6.232a111.474,111.474,0,0,0-23.268,14.958,99.138,99.138,0,0,0-17.867,19.529q-7.479,10.8-13.3,19.113l-85.594-59.832q21.606-50.692,68.559-78.947t105.954-28.255a226.176,226.176,0,0,1,63.157,9.142,161.237,161.237,0,0,1,56.509,29.085q24.93,19.944,40.72,51.523t15.789,76.454q0,47.367-19.528,79.362t-57.756,56.093a356.36,356.36,0,0,1-35.317,20.776,330.456,330.456,0,0,0-32.827,19.113,94.251,94.251,0,0,0-24.1,22.438q-8.264,11.268-9.057,26.61c-.613,11.893-.084,24.508-.084,36.47H2158.853Z" transform="translate(-2096.526 -273.726)" fill="#674af8" clip-rule="evenodd"/>
    </clipPath>
    <clipPath id="clip-path-2">
      <path id="Path_3112" data-name="Path 3112" d="M2097.279,1026.867l2.326-8.143,8.721,2.492-2.326,8.143Zm3.933-14.524a21.619,21.619,0,0,1,1.037-2.873,10.8,10.8,0,0,1,1.536-2.477,8.837,8.837,0,0,1,2.325-1.965,11.324,11.324,0,0,1,3.386-1.265q1-.219,2.649-.576a24.428,24.428,0,0,0,3.3-.965,12.1,12.1,0,0,0,3.019-1.621,4.823,4.823,0,0,0,1.826-2.611,4.248,4.248,0,0,0-.618-3.885,6.072,6.072,0,0,0-3.31-2.278,5.584,5.584,0,0,0-2.507-.176,9.28,9.28,0,0,0-2.206.666,8.246,8.246,0,0,0-1.878,1.155q-.846.695-1.5,1.227l-5.489-6.753a13.807,13.807,0,0,1,7.3-4.756,16.777,16.777,0,0,1,9.135.162,18.827,18.827,0,0,1,4.851,2.177,13.435,13.435,0,0,1,3.862,3.623,12.638,12.638,0,0,1,2.083,5.06,14.117,14.117,0,0,1-.485,6.486,12.48,12.48,0,0,1-3.38,5.912,14.626,14.626,0,0,1-5.911,3.172,30.024,30.024,0,0,1-3.3.856,27.426,27.426,0,0,0-3.068.78,7.839,7.839,0,0,0-2.444,1.246,4,4,0,0,0-1.334,1.924c-.322.939-.568,1.961-.842,2.919l-8.789-2.51Z" transform="translate(-2097.279 -982.634)" fill="#674af8" clip-rule="evenodd"/>
    </clipPath>
    <clipPath id="clip-path-3">
      <path id="Path_3113" data-name="Path 3113" d="M1832.009,939.606l-3.086-13.882,14.87-3.306,3.086,13.882Zm-5.824-24.59a36.131,36.131,0,0,1-.77-5.07,18.183,18.183,0,0,1,.284-4.888,14.847,14.847,0,0,1,1.859-4.761,19.029,19.029,0,0,1,3.986-4.578q1.3-1.123,3.448-2.97a41.14,41.14,0,0,0,4.1-4.068,20.282,20.282,0,0,0,3.158-4.812,8.087,8.087,0,0,0,.6-5.315,7.132,7.132,0,0,0-4.024-5.24,10.189,10.189,0,0,0-6.709-.712,9.363,9.363,0,0,0-3.841,1.747,15.592,15.592,0,0,0-2.723,2.75,13.88,13.88,0,0,0-1.848,3.21q-.693,1.7-1.235,3.013l-13.508-5.573a23.188,23.188,0,0,1,6.966-12.865,28.2,28.2,0,0,1,13.614-7.076,31.66,31.66,0,0,1,8.9-.669,22.567,22.567,0,0,1,8.6,2.257,21.213,21.213,0,0,1,7.125,5.8,23.73,23.73,0,0,1,4.478,9.964,20.965,20.965,0,0,1-.257,11.432,24.533,24.533,0,0,1-6.186,9.416,49.841,49.841,0,0,1-4.193,3.91,46.432,46.432,0,0,0-3.9,3.607,13.172,13.172,0,0,0-2.609,3.8,6.737,6.737,0,0,0-.43,3.91c.277,1.643.733,3.35,1.1,4.984l-14.983,3.331Z" transform="translate(-1808.967 -857.072)" fill="url(#linear-gradient)" clip-rule="evenodd"/>
    </clipPath>
    <clipPath id="clip-path-4">
      <path id="Path_3114" data-name="Path 3114" d="M2032.135,798.413V786.745h12.5v11.667Zm-.286-20.729a29.659,29.659,0,0,1,.286-4.2,14.9,14.9,0,0,1,1.1-3.863,12.169,12.169,0,0,1,2.337-3.482,15.6,15.6,0,0,1,4.006-2.957q1.24-.668,3.291-1.765a33.813,33.813,0,0,0,4.006-2.528,16.647,16.647,0,0,0,3.386-3.291,6.641,6.641,0,0,0,1.431-4.149,5.853,5.853,0,0,0-2.289-4.913,8.364,8.364,0,0,0-5.247-1.765,7.686,7.686,0,0,0-3.386.715,12.805,12.805,0,0,0-2.671,1.717,11.37,11.37,0,0,0-2.05,2.242q-.86,1.239-1.526,2.193l-9.825-6.868a19.025,19.025,0,0,1,7.87-9.062,23.127,23.127,0,0,1,12.163-3.243,25.967,25.967,0,0,1,7.25,1.049,18.519,18.519,0,0,1,6.486,3.339,17.386,17.386,0,0,1,4.674,5.914,19.45,19.45,0,0,1,1.812,8.776,17.2,17.2,0,0,1-2.241,9.11,20.131,20.131,0,0,1-6.63,6.439,41.021,41.021,0,0,1-4.053,2.384,38.044,38.044,0,0,0-3.768,2.194,10.827,10.827,0,0,0-2.766,2.576,5.522,5.522,0,0,0-1.04,3.055c-.07,1.365-.009,2.813-.009,4.186h-12.591Z" transform="translate(-2024.694 -732.469)" fill="url(#linear-gradient)" clip-rule="evenodd"/>
    </clipPath>
    <clipPath id="clip-path-5">
      <path id="Path_3129" data-name="Path 3129" d="M3108.088,1107.267l2.326-8.144,8.721,2.491-2.326,8.143Zm3.934-14.526a21.409,21.409,0,0,1,1.036-2.872,10.752,10.752,0,0,1,1.536-2.477,8.832,8.832,0,0,1,2.325-1.964,11.306,11.306,0,0,1,3.386-1.264q1-.22,2.648-.576a24.482,24.482,0,0,0,3.3-.965,12.09,12.09,0,0,0,3.021-1.622,4.822,4.822,0,0,0,1.825-2.611,4.244,4.244,0,0,0-.618-3.885,6.06,6.06,0,0,0-3.311-2.278,5.565,5.565,0,0,0-2.506-.176,9.209,9.209,0,0,0-2.206.666,8.306,8.306,0,0,0-1.879,1.155q-.844.694-1.5,1.227l-5.489-6.752a13.81,13.81,0,0,1,7.3-4.756,16.8,16.8,0,0,1,9.135.161,18.843,18.843,0,0,1,4.851,2.177,13.429,13.429,0,0,1,3.861,3.624,12.633,12.633,0,0,1,2.084,5.06,14.115,14.115,0,0,1-.485,6.486,12.482,12.482,0,0,1-3.381,5.911,14.632,14.632,0,0,1-5.911,3.173,29.89,29.89,0,0,1-3.3.856,27.416,27.416,0,0,0-3.067.78,7.837,7.837,0,0,0-2.445,1.246,4.018,4.018,0,0,0-1.335,1.925c-.321.938-.567,1.962-.841,2.919l-8.789-2.511Z" transform="translate(-3108.088 -1063.034)" fill="none" clip-rule="evenodd"/>
    </clipPath>
    <clipPath id="clip-path-6">
      <path id="Path_3130" data-name="Path 3130" d="M3006.2,987.573l-.768-10.269,11-.822.767,10.268Zm-1.615-18.226a26.148,26.148,0,0,1-.024-3.713,13.173,13.173,0,0,1,.711-3.473,10.763,10.763,0,0,1,1.827-3.218,13.8,13.8,0,0,1,3.333-2.866q1.048-.67,2.78-1.77a29.656,29.656,0,0,0,3.36-2.488,14.708,14.708,0,0,0,2.765-3.119,5.87,5.87,0,0,0,.986-3.747,5.166,5.166,0,0,0-2.338-4.173,7.378,7.378,0,0,0-4.734-1.208,6.775,6.775,0,0,0-2.934.853,11.269,11.269,0,0,0-2.238,1.687,10.073,10.073,0,0,0-1.658,2.107q-.673,1.148-1.2,2.031l-9.1-5.4a16.8,16.8,0,0,1,6.331-8.494,20.409,20.409,0,0,1,10.492-3.654,22.909,22.909,0,0,1,6.45.446,16.333,16.333,0,0,1,5.929,2.512,15.366,15.366,0,0,1,4.5,4.9,17.186,17.186,0,0,1,2.171,7.605,15.175,15.175,0,0,1-1.374,8.166,17.768,17.768,0,0,1-5.411,6.1,36.169,36.169,0,0,1-3.411,2.366,33.325,33.325,0,0,0-3.172,2.179,9.538,9.538,0,0,0-2.266,2.449,4.865,4.865,0,0,0-.714,2.756c.027,1.207.176,2.477.267,3.686l-11.083.829Z" transform="translate(-2996.121 -928.641)" fill="#674af8" clip-rule="evenodd"/>
    </clipPath>
    <clipPath id="clip-path-7">
      <path id="Path_3131" data-name="Path 3131" d="M2689.7,1231.527l-1.52-6.8,7.282-1.628,1.521,6.8Zm-2.868-12.044a17.49,17.49,0,0,1-.38-2.483,8.886,8.886,0,0,1,.135-2.395,7.263,7.263,0,0,1,.909-2.333,9.277,9.277,0,0,1,1.949-2.245q.636-.552,1.687-1.458a20.069,20.069,0,0,0,2.005-2,9.877,9.877,0,0,0,1.544-2.359,3.971,3.971,0,0,0,.293-2.606,3.492,3.492,0,0,0-1.974-2.563,4.985,4.985,0,0,0-3.288-.345,4.581,4.581,0,0,0-1.881.858,7.7,7.7,0,0,0-1.333,1.348,6.825,6.825,0,0,0-.9,1.574q-.338.835-.6,1.478l-6.62-2.722a11.357,11.357,0,0,1,3.4-6.307,13.8,13.8,0,0,1,6.665-3.476,15.53,15.53,0,0,1,4.362-.333,11.042,11.042,0,0,1,4.215,1.1,10.408,10.408,0,0,1,3.494,2.838,11.609,11.609,0,0,1,2.2,4.879,10.266,10.266,0,0,1-.118,5.6,12.029,12.029,0,0,1-3.024,4.617,24.646,24.646,0,0,1-2.052,1.918,22.487,22.487,0,0,0-1.91,1.769,6.474,6.474,0,0,0-1.277,1.863,3.3,3.3,0,0,0-.207,1.915c.136.8.361,1.64.54,2.441l-7.338,1.641Z" transform="translate(-2678.376 -1191.09)" fill="none" clip-rule="evenodd"/>
    </clipPath>
  </defs>
  <g id="Group_3378" data-name="Group 3378" transform="translate(-216.77 -3659.61)">
    <g id="Group_3368" data-name="Group 3368">
      <path id="Path_3101" data-name="Path 3101" d="M1984.985,1904.833c160.958,0,291.44,7.038,291.44,15.718s-130.482,15.718-291.44,15.718-291.44-7.038-291.44-15.718,130.482-15.718,291.44-15.718" transform="translate(-1476.775 2391.73)" fill="#4279f1" fill-rule="evenodd" opacity="0.23"/>
      <path id="Path_3102" data-name="Path 3102" d="M2198.244,848.214V746.574h108.863v101.64Zm-2.492-180.587a258.463,258.463,0,0,1,2.492-36.565,129.737,129.737,0,0,1,9.557-33.656,106.1,106.1,0,0,1,20.359-30.332q13.3-14.128,34.9-25.762,10.8-5.817,28.671-15.374a293.693,293.693,0,0,0,34.9-22.021,144.971,144.971,0,0,0,29.5-28.67A57.849,57.849,0,0,0,2368.6,439.1q0-27.424-19.944-42.8a72.838,72.838,0,0,0-45.706-15.374q-16.62,0-29.5,6.233a111.478,111.478,0,0,0-23.269,14.958,99.173,99.173,0,0,0-17.867,19.529q-7.478,10.8-13.3,19.112H2204.61v-7.608l-71.185-52.225q21.605-50.691,68.558-78.946t105.954-28.255a226.175,226.175,0,0,1,63.158,9.141,161.267,161.267,0,0,1,56.509,29.086q24.929,19.944,40.72,51.523t15.789,76.454q0,47.367-19.529,79.362t-57.755,56.093a356.158,356.158,0,0,1-35.318,20.775,330.893,330.893,0,0,0-32.826,19.114,94.246,94.246,0,0,0-24.1,22.438q-8.264,11.268-9.057,26.61c-.613,11.893-.084,24.508-.084,36.47H2195.751Z" transform="translate(-1744.881 3385.884)" fill="#1e2187" fill-rule="evenodd"/>
      <g id="Group_3063" data-name="Group 3063" transform="translate(374.135 3659.61)">
        <g id="Group_3062" data-name="Group 3062" clip-path="url(#clip-path)">
          <path id="Path_3506" data-name="Path 3506" d="M0,0H350.688V574.488H0Z" transform="translate(0 0)" fill="#674af8"/>
        </g>
      </g>
      <g id="Group_3075" data-name="Group 3075" transform="translate(386.429 4023.441)">
        <g id="Group_3074" data-name="Group 3074" transform="translate(0 0)" clip-path="url(#clip-path-2)">
          <rect id="Rectangle_849" data-name="Rectangle 849" width="33.093" height="46.96" transform="translate(0 -0.236)" fill="#674af8"/>
        </g>
      </g>
      <g id="Group_3077" data-name="Group 3077" transform="translate(242.842 3998.409)">
        <g id="Group_3076" data-name="Group 3076" clip-path="url(#clip-path-3)">
          <rect id="Rectangle_850" data-name="Rectangle 850" width="50.65" height="82.66" transform="translate(0 -0.126)" fill="#674af8"/>
        </g>
      </g>
      <g id="Group_3079" data-name="Group 3079" transform="translate(328.084 3973.75)">
        <g id="Group_3078" data-name="Group 3078" transform="translate(0 0)" clip-path="url(#clip-path-4)">
          <rect id="Rectangle_851" data-name="Rectangle 851" width="40.254" height="65.944" transform="translate(0 0)" fill="#674af8"/>
        </g>
      </g>
      <g id="Group_3085" data-name="Group 3085" transform="translate(752.153 4130.838)">
        <g id="Group_3084" data-name="Group 3084" transform="translate(0)" clip-path="url(#clip-path-5)">
          <rect id="Rectangle_854" data-name="Rectangle 854" width="33.093" height="46.96" transform="translate(0 -0.236)" fill="#674af8"/>
        </g>
      </g>
      <g id="Group_3087" data-name="Group 3087" transform="translate(696.43 4116.356)">
        <g id="Group_3086" data-name="Group 3086" transform="translate(0)" clip-path="url(#clip-path-6)">
          <rect id="Rectangle_855" data-name="Rectangle 855" width="36.116" height="59.029" transform="translate(0 -0.097)" fill="#674af8"/>
        </g>
      </g>
      <g id="Group_3089" data-name="Group 3089" transform="translate(647.35 4145.844)">
        <g id="Group_3088" data-name="Group 3088" transform="translate(0)" clip-path="url(#clip-path-7)">
          <rect id="Rectangle_856" data-name="Rectangle 856" width="24.815" height="40.499" transform="translate(0 -0.061)" fill="#674af8"/>
        </g>
      </g>
      <g id="Group_3367" data-name="Group 3367" transform="translate(268 4081)">
        <g id="Group_3357" data-name="Group 3357" transform="translate(0 0)">
          <path id="Path_586" data-name="Path 586" d="M512.288,602.427c.024.1.163.486.263.748l.358.894c.252.6.522,1.2.816,1.793a31.676,31.676,0,0,0,1.939,3.395,19.93,19.93,0,0,0,4.847,5.266,10.6,10.6,0,0,0,5.759,2.091A14.915,14.915,0,0,0,533,615.142a16.129,16.129,0,0,0,5.769-4.175,17.449,17.449,0,0,0,3.449-6.482,28.669,28.669,0,0,0,1.127-8,38.641,38.641,0,0,0-.189-4.206c-.07-.7-.156-1.4-.263-2.093s-.244-1.437-.356-1.944l-.039-.176a3.9,3.9,0,0,1,7.556-1.939c.289.993.461,1.738.648,2.6s.33,1.665.465,2.5a47.073,47.073,0,0,1,.522,5.07,37.269,37.269,0,0,1-.885,10.45,26.659,26.659,0,0,1-4.685,10.1,25.893,25.893,0,0,1-8.747,7.23,25.179,25.179,0,0,1-11.165,3.05,21.442,21.442,0,0,1-11.772-3.344A30.984,30.984,0,0,1,506.173,616a43.122,43.122,0,0,1-2.963-4.518c-.441-.778-.863-1.563-1.261-2.373l-.584-1.232c-.2-.452-.354-.785-.593-1.414l-.168-.435a6.115,6.115,0,0,1,11.423-4.369h0A6.892,6.892,0,0,1,512.288,602.427Z" transform="translate(-405.356 -495.101)" fill="#4279f1"/>
          <path id="Path_577" data-name="Path 577" d="M393.144,752.525l-3.115-59.473a9.142,9.142,0,0,1,10.008-6.866c8.258.757,7.833,8.412,6.861,17.458s-2.853,45.1-2.853,45.1Z" transform="translate(-371.029 -527.129)" fill="#4279f1" fill-rule="evenodd"/>
          <path id="Path_569" data-name="Path 569" d="M475.474,752.1l-3.115-59.475a9.142,9.142,0,0,1,10.008-6.865c8.258.757,7.833,8.411,6.861,17.458s-2.854,45.1-2.854,45.1Z" transform="translate(-396.682 -526.996)" fill="#4279f1" fill-rule="evenodd"/>
          <g id="Group_3353" data-name="Group 3353" transform="translate(21.271 219.483)">
            <path id="Path_587" data-name="Path 587" d="M431.313,786.778s.41-13.936-15.612-12.709a119.739,119.739,0,0,0-18.065,2.655c-2.9.671-4.782,3.938-4.2,7.3a6.949,6.949,0,0,0,.321,1.208l.457,1.247,7.429.936Z" transform="translate(-393.328 -773.993)" fill="#4279f1" fill-rule="evenodd"/>
          </g>
          <g id="Group_3354" data-name="Group 3354" transform="translate(77.028 219.829)">
            <path id="Path_589" data-name="Path 589" d="M512.294,787.163s.509-13.934-15.528-12.575a120.8,120.8,0,0,0-18.091,2.8c-2.907.695-4.813,3.976-4.258,7.331a6.834,6.834,0,0,0,.313,1.2l.448,1.243,7.431.865Z" transform="translate(-474.321 -774.494)" fill="#4279f1" fill-rule="evenodd"/>
          </g>
          <path id="Path_574" data-name="Path 574" d="M373.735,575l86.941-4.3a10.187,10.187,0,0,1,10.689,10.315l-.758,55.249c0,.294-.019.585-.05.878a105.209,105.209,0,0,1-3.523,15.954,12.284,12.284,0,0,1-12.021,8.675l-70.618-1.68a9.679,9.679,0,0,0-1.571.111,15.41,15.41,0,0,1-17.516-14.511l-2.862-59.161a10.99,10.99,0,0,1,10.436-11.518Q373.308,574.99,373.735,575Z" transform="translate(-362.431 -491.164)" fill="#c7d5f0" fill-rule="evenodd"/>
          <path id="Path_576" data-name="Path 576" d="M391.919,645.041l-2.985-61.636a11.375,11.375,0,0,1,1.36-5.977l-16.56-.474a10.99,10.99,0,0,0-11.3,10.673q-.012.421.008.843l2.866,59.165a15.407,15.407,0,0,0,18.3,14.382l19.822.479C398.16,659.932,392.2,650.893,391.919,645.041Z" transform="translate(-362.43 -493.115)" fill="#eff1fb" fill-rule="evenodd"/>
          <path id="Path_3507" data-name="Path 3507" d="M562.806,545.524a5.739,5.739,0,0,0-5.751,5.752c.556,6.925-.214,14.435-.266,20.988,0,7.612,5.863,13.782,13.1,13.782s13.094-6.171,13.094-13.782-5.863-13.783-13.094-13.784a12.569,12.569,0,0,0-1.326.072v-7.276a5.74,5.74,0,0,0-5.752-5.752Z" transform="translate(-422.988 -483.323)" fill="#4279f1"/>
          <ellipse id="Ellipse_117" data-name="Ellipse 117" cx="9.128" cy="9.153" rx="9.128" ry="9.153" transform="translate(138.476 78.983)" fill="#4279f1"/>
          <path id="Path_570" data-name="Path 570" d="M464.668,534.188l-85.174,12.607a10.434,10.434,0,0,1-10.545-4.961c-1.563-2.666-2.8-6.667-3.066-12.664-.847-18.976-2-43.712,3.514-53.079s28.334-13.578,39.087-15.248,34.024-5.108,44.8-5.643c9.165-.455,16.255,4.44,17.581,17.768.948,9.533,2.163,36.04,2.778,50.362A10.521,10.521,0,0,1,464.668,534.188Z" transform="translate(-363.283 -455.171)" fill="#c7d5f0" fill-rule="evenodd"/>
          <path id="Path_571" data-name="Path 571" d="M396.611,546.857s-10.7,1.038-11.559-18.251-6.482-38.207-.5-50.06c3.6-7.137,14.974-12.517,23.406-15.017C397.01,465.253,374.8,469.48,369.38,478.7c-5.5,9.36-4.351,34.1-3.514,53.079s11.375,17.957,11.375,17.957L464.1,536.776" transform="translate(-363.28 -457.775)" fill="#eff1fb" fill-rule="evenodd"/>
          <path id="Path_572" data-name="Path 572" d="M402.581,495.4c.842,9.025,2.914,28.928,4.366,35.578s5.8,11.112,14.031,10.235c5.852-.617,34.46-6.822,50.518-10.359a12.774,12.774,0,0,0,9.973-13.631L478.342,482.7c-.584-6.421-1.981-14.05-13.914-13.259s-38.278,5.227-48.442,7.286S401.606,484.94,402.581,495.4Z" transform="translate(-374.898 -459.599)" fill="#eff1fb" fill-rule="evenodd"/>
          <path id="Path_573" data-name="Path 573" d="M495.669,469.409c8.337,1,9.5,7.6,10.023,13.251l3.178,34.649a12.772,12.772,0,0,1-9.961,13.667l-1.383.3c.083.149.173.3.253.446l2.856-.633A12.772,12.772,0,0,0,510.6,517.42l-3.178-34.649C506.868,476.759,505.592,469.663,495.669,469.409Z" transform="translate(-403.945 -459.607)" fill="#4279f1" fill-rule="evenodd"/>
          <g id="Group_223" data-name="Group 223" transform="translate(50.821 36.894)">
            <path id="Path_591" data-name="Path 591" d="M440.228,515.263c-.011,2.224-.35,4.023-1.645,4.016s-2.341-1.812-2.33-4.036,1.071-4.013,2.363-4.02S440.239,513.039,440.228,515.263Z" transform="translate(-436.253 -509.53)" fill="#4279f1" fill-rule="evenodd"/>
            <path id="Path_592" data-name="Path 592" d="M488.85,512.657c.167-2.217.631-3.988,1.924-3.89s2.205,1.974,2.04,4.188-1.349,3.933-2.641,3.837S488.683,514.874,488.85,512.657Z" transform="translate(-452.625 -508.763)" fill="#4279f1" fill-rule="evenodd"/>
          </g>
          <g id="Group_3355" data-name="Group 3355" transform="translate(16.975 90.922)">
            <path id="Path_3509" data-name="Path 3509" d="M392.24,590.25l49.369-3.005L438.6,663.659l-51.516-1.288Z" transform="translate(-387.088 -587.245)" fill="#ffc85e"/>
            <path id="Path_3510" data-name="Path 3510" d="M471.364,588.962,466.642,662.8l-4.722.859,3.005-76.415" transform="translate(-410.404 -587.245)" fill="#ffb322"/>
          </g>
          <g id="Group_3356" data-name="Group 3356" transform="translate(5.464 101.967)">
            <path id="Path_586-2" data-name="Path 586" d="M386.885,613.6c-.066.092-.281.478-.423.746l-.475.927c-.31.631-.6,1.272-.878,1.934a33.064,33.064,0,0,0-1.37,3.979,20.646,20.646,0,0,0-.761,7.641,11.151,11.151,0,0,0,2.542,6.1,16.562,16.562,0,0,0,6.212,4.321,18.461,18.461,0,0,0,7.732,1.619,19.976,19.976,0,0,0,7.922-1.886,31.968,31.968,0,0,0,7.451-4.824,42.161,42.161,0,0,0,3.34-3.163c.529-.559,1.045-1.128,1.537-1.709s1.008-1.223,1.344-1.676l.116-.158a4.438,4.438,0,0,1,6.052-.958,4.094,4.094,0,0,1,1.157,5.6c-.607.941-1.1,1.612-1.667,2.378s-1.133,1.455-1.726,2.162a51.016,51.016,0,0,1-3.807,4.047,41.3,41.3,0,0,1-9.3,6.775,30.408,30.408,0,0,1-11.835,3.49,29.714,29.714,0,0,1-12.47-1.81,28.1,28.1,0,0,1-10.808-6.733,22.7,22.7,0,0,1-5.966-11.8,32.1,32.1,0,0,1,.313-12.174,44.91,44.91,0,0,1,1.541-5.6c.316-.909.653-1.807,1.027-2.706l.586-1.349c.226-.483.388-.845.729-1.486l.236-.445a6.915,6.915,0,0,1,9.149-2.837,6.452,6.452,0,0,1,2.94,8.832h0A7.111,7.111,0,0,1,386.885,613.6Z" transform="translate(-370.368 -603.288)" fill="#4279f1"/>
            <ellipse id="Ellipse_23" data-name="Ellipse 23" cx="13.539" cy="14.441" rx="13.539" ry="14.441" transform="translate(46.704 40.122) rotate(-89.878)" fill="#4279f1"/>
          </g>
          <line id="Line_94" data-name="Line 94" y1="3" x2="25" transform="translate(58.5 62.5)" fill="none" stroke="#4279f1" stroke-linecap="round" stroke-width="2"/>
        </g>
      </g>
      <g id="Group_3359" data-name="Group 3359" transform="translate(720.804 4238.863)">
        <path id="Path_3512" data-name="Path 3512" d="M661.709,724.069s9.975-22.122,18.584-30.2c4-3.755,9.057-7.574,14.537-7.7,2.357-.053,6.4,3.026,6.4,3.026l-5.059,12.358-17.915,24.61-9.275-.862-3.64,2.741Z" transform="translate(-661.709 -686.174)" fill="#b79561"/>
        <g id="Group_3358" data-name="Group 3358" transform="translate(11.957 10.374)">
          <path id="Path_3513" data-name="Path 3513" d="M706.161,701.277s-8.716-.1-9.309.041S689.867,705,689.867,705s3.357-.8,6.239-1.55,7.358-.347,8.063-.3,1.991-1.87,1.991-1.87Z" transform="translate(-682.439 -701.243)" fill="#666"/>
          <path id="Path_3514" data-name="Path 3514" d="M700.379,712.793s-7.8-.089-8.328.037-6.25,3.3-6.25,3.3,3-.712,5.582-1.387a26.262,26.262,0,0,1,7.215-.273c.631.038,1.781-1.674,1.781-1.674Z" transform="translate(-681.172 -704.832)" fill="#666"/>
          <path id="Path_3515" data-name="Path 3515" d="M693.656,723.622s-7.8-.089-8.329.036-6.25,3.3-6.25,3.3,3-.713,5.582-1.386a26.235,26.235,0,0,1,7.215-.273c.631.038,1.781-1.674,1.781-1.674Z" transform="translate(-679.077 -708.206)" fill="#666"/>
        </g>
      </g>
      <g id="Group_3360" data-name="Group 3360" transform="translate(671.866 4279.791)">
        <rect id="Rectangle_919" data-name="Rectangle 919" width="64.358" height="32.429" rx="16.214" transform="translate(5.503)" fill="#b79561"/>
        <rect id="Rectangle_920" data-name="Rectangle 920" width="18.343" height="11.241" rx="5.621" transform="translate(57.352 21.192)" fill="#b79561"/>
        <rect id="Rectangle_921" data-name="Rectangle 921" width="18.343" height="11.241" rx="5.621" transform="translate(0 21.934)" fill="#b79561"/>
      </g>
      <rect id="Rectangle_922" data-name="Rectangle 922" width="53.313" height="70.195" rx="14.674" transform="translate(682.639 4242.011)" fill="#d8b78b"/>
      <g id="Group_3361" data-name="Group 3361" transform="translate(671.485 4195.278)">
        <path id="Path_3516" data-name="Path 3516" d="M618.294,629.135c-1.258-2.176-1.3-5.273-3.746-6.007S598.5,624.5,597.7,624.607s-2.489,8.138-.278,11.4,10.686,8.9,11.426,7.76,9.446-14.633,9.446-14.633Z" transform="translate(-592.019 -622.897)" fill="#d8b78b"/>
        <path id="Path_3517" data-name="Path 3517" d="M605.983,628.469c.171.038.333.08.484.128,2.419.768,6.1,3.923,6.812,4.893,0,0,.243.583.531,1.516-2.433,3.77-5.346,8.284-5.8,8.985-.684,1.055-8.509-4.154-10.551-7.166a9.237,9.237,0,0,1-.988-5.282c.495-.61,1.033-1.119,1.371-1.6,1-1.42,5.58-2.039,8.141-1.478Z" transform="translate(-592.058 -624.545)" fill="#b79561"/>
        <path id="Path_3518" data-name="Path 3518" d="M608.112,622.862c-6.3,6.115-14.527,18.1-16.932,15.878-1.234-1-1.826-11.971.315-13.581.892-.6,16.618-2.3,16.618-2.3Z" transform="translate(-590.069 -622.862)" fill="#d8b78b"/>
      </g>
      <g id="Group_3362" data-name="Group 3362" transform="translate(728.877 4201.871)">
        <path id="Path_3519" data-name="Path 3519" d="M673.436,637.629c1.65-1.9,2.286-4.927,4.825-5.18s15.491,4.421,16.253,4.674.889,8.465-1.9,11.244-12.19,6.7-12.7,5.432-6.476-16.17-6.476-16.17Z" transform="translate(-673.435 -632.44)" fill="#d8b78b"/>
        <path id="Path_3520" data-name="Path 3520" d="M687.645,640.109c-.175,0-.342.014-.5.033-2.521.291-6.742,2.683-7.621,3.5,0,0-.35.526-.811,1.386,1.668,4.166,3.664,9.154,3.976,9.929.469,1.167,9.146-2.449,11.725-5.016a9.233,9.233,0,0,0,1.979-5c-.369-.693-.8-1.3-1.04-1.828-.715-1.586-5.087-3.069-7.708-3.008Z" transform="translate(-675.08 -634.828)" fill="#b79561"/>
        <path id="Path_3521" data-name="Path 3521" d="M686.9,633.371c5.017,7.207,10.8,20.54,13.587,18.823,1.4-.75,4.079-11.4,2.286-13.39-.762-.758-15.873-5.432-15.873-5.432Z" transform="translate(-677.632 -632.73)" fill="#d8b78b"/>
      </g>
      <path id="Path_3522" data-name="Path 3522" d="M618.555,630.97c8.82-4.362,27.168-6.294,36.456,5.836l8.521,25.014-4.712,4.207-2.493,7.661-6.932.752-4.712,4.207s-4.34,12.087-5.92,11.1-22.813-5.969-22.813-5.969l-2.941-13.054-3.233-7.6-5.083-2.2,1.051-7.276-1.178-2.769Z" transform="translate(76.899 3570.935)" fill="#d8b78b"/>
      <path id="Path_3523" data-name="Path 3523" d="M585.856,691.569c22,2.3,28.7,7.88,65.544,14.288,3.841.668,5.856,6.618,5.231,10.469a3.111,3.111,0,0,1-2.267,2.268c-1.968.465-5.755-1.919-5.755-1.919s1.547,3.477.7,4.886c-1.339,2.221-5.665,4.611-7.323,2.617-4.14-4.974-14.214-15.387-29.8-17.6-14.293-2.033-22.571,7.613-27.9,6.63A5.7,5.7,0,0,1,580.1,708.5c-.3-3.168,4.882-8.2,4.882-8.2a12.056,12.056,0,0,1-3.313-2.617c-.984-1.564-2.279-3.894-1.22-5.41,1.041-1.49,3.6-.887,5.406-.7Z" transform="translate(84.537 3551.096)" fill="#ec7377"/>
      <path id="Path_3524" data-name="Path 3524" d="M609.894,705.882l-4.36,1.658-3.749,21.114,4.534,2.007,3.488-19.281Z" transform="translate(77.767 3546.549)" fill="#ec7377"/>
      <g id="Group_3363" data-name="Group 3363" transform="translate(688.743 4206.698)">
        <path id="Path_3525" data-name="Path 3525" d="M622.441,671.4c-.262-.872-1.744-6.805-3.226-8.027s-2.442-1.134-2.616-2.181.7-5.235,1.656-6.282,4.632-2.191,4.632-2.191a22.349,22.349,0,0,0,1.233-3.084c.123-.741-1.835-3.329-.971-5.8s2.589-5.553,4.562-3.949,4.1,19.106,5.822,20.34a3.41,3.41,0,0,0,5.055-1.11c.987-1.851,10.965-13.6,13.432-13.852s4.932,2.591,3.576,4.935-4.439,7.65-4.439,7.65,4.685,6.416,2.466,9.13-6.042,3.084-8.262,5.8-.37,7.4-4.316,6.046-18.6-7.429-18.6-7.429Z" transform="translate(-615.585 -639.451)" fill="#ebcfa9"/>
        <path id="Path_3526" data-name="Path 3526" d="M619,702.1c-4.211-3.454-5.074-11.644-2.1-16.208,1.43-2.195,7.535-2.221,7.535-2.221l17.046,4.343s5.472,2.5,5.834,5.041c.71,4.985-3.4,11.218-8.216,12.672-3.464,1.046-9.958-4.324-9.958-4.324s-7.52,2.846-10.14.7Z" transform="translate(-615.137 -653.23)" fill="#ebcfa9"/>
        <path id="Path_3527" data-name="Path 3527" d="M619.29,685.157c.843-2.109,2.781-5.145,4.8-6.325s13.653-2.024,17.024.253,6.658,12.4,5.984,12.144-27.813-6.072-27.813-6.072Z" transform="translate(-616.43 -651.354)" fill="#ebcfa9"/>
      </g>
      <path id="Path_3528" data-name="Path 3528" d="M631.161,683.634c2.844-2.968,11.18-1.265,12.146,2.7.922,3.775-5.348,8.575-9.13,7.439C630.747,692.741,628.7,686.2,631.161,683.634Z" transform="translate(68.95 3553.949)" fill="gray"/>
      <ellipse id="Ellipse_118" data-name="Ellipse 118" cx="3.073" cy="3.405" rx="3.073" ry="3.405" transform="translate(689.243 4221.079)" fill="#666"/>
      <ellipse id="Ellipse_119" data-name="Ellipse 119" cx="3.073" cy="3.405" rx="3.073" ry="3.405" transform="translate(717.498 4226.582)" fill="#666"/>
      <ellipse id="Ellipse_120" data-name="Ellipse 120" cx="6.103" cy="6.587" rx="6.103" ry="6.587" transform="translate(675.421 4274.099)" fill="#e1e1e1"/>
      <g id="Group_3364" data-name="Group 3364" transform="translate(678.473 4197.029)">
        <ellipse id="Ellipse_121" data-name="Ellipse 121" cx="3.052" cy="3.294" rx="3.052" ry="3.294" transform="translate(0 80.363)" fill="#666"/>
        <path id="Path_3529" data-name="Path 3529" d="M606.612,744.813l4.648,1.547-.383,2.837-4.648-1.547Z" transform="translate(-602.091 -662.611)" fill="#666"/>
        <path id="Path_3530" data-name="Path 3530" d="M685.649,639.058l7.568,1.491s-.953-2.326-1.132-2.564-6.5-2.445-6.5-2.445Z" transform="translate(-626.818 -628.564)" fill="#d8b78b"/>
        <path id="Path_3531" data-name="Path 3531" d="M607.293,625.943c.238-.179,6.555-.537,6.555-.537a16.585,16.585,0,0,1-1.728,2.028c-.238.059-7.747,2.087-7.747,2.087Z" transform="translate(-601.512 -625.406)" fill="#d8b78b"/>
      </g>
      <g id="Group_3365" data-name="Group 3365" transform="translate(680.57 4271.225)">
        <path id="Path_3532" data-name="Path 3532" d="M638.227,733.182a13.352,13.352,0,0,0-13.377,13.385v21.522a13.389,13.389,0,0,0,1.442,6.062h24.056a13.38,13.38,0,0,0,1.441-6.062V746.567a13.351,13.351,0,0,0-13.376-13.385Z" transform="translate(-609.99 -733.182)" fill="#ebcfa9"/>
        <rect id="Rectangle_923" data-name="Rectangle 923" width="15.573" height="10.248" rx="5.124" transform="translate(0 32.296)" fill="#d8b78b"/>
        <rect id="Rectangle_924" data-name="Rectangle 924" width="15.573" height="10.248" rx="5.124" transform="translate(40.395 32.296)" fill="#d8b78b"/>
      </g>
    </g>
  </g>
</svg>
