<svg xmlns="http://www.w3.org/2000/svg" xmlns:xlink="http://www.w3.org/1999/xlink" width="585.302" height="668.39" viewBox="0 0 585.302 668.39"><defs><linearGradient id="a" x1="0.5" x2="0.5" y2="1" gradientUnits="objectBoundingBox"><stop offset="0" stop-color="#4279f1"/><stop offset="0.414" stop-color="#5561f5"/><stop offset="1" stop-color="#7f31ff"/></linearGradient><clipPath id="f"><path d="M2161.345,848.214V746.574h108.863v101.64Zm-2.493-180.587a258.486,258.486,0,0,1,2.493-36.565,129.728,129.728,0,0,1,9.557-33.656,106.114,106.114,0,0,1,20.359-30.332q13.3-14.127,34.9-25.762,10.8-5.817,28.671-15.374a293.631,293.631,0,0,0,34.9-22.021,144.986,144.986,0,0,0,29.5-28.67A57.847,57.847,0,0,0,2331.7,439.1q0-27.423-19.945-42.8a72.834,72.834,0,0,0-45.706-15.373q-16.621,0-29.5,6.232a111.474,111.474,0,0,0-23.268,14.958,99.138,99.138,0,0,0-17.867,19.529q-7.479,10.8-13.3,19.113l-85.594-59.832q21.606-50.692,68.559-78.947t105.954-28.255a226.176,226.176,0,0,1,63.157,9.142,161.237,161.237,0,0,1,56.509,29.085q24.93,19.944,40.72,51.523t15.789,76.454q0,47.367-19.528,79.362t-57.756,56.093a356.36,356.36,0,0,1-35.317,20.776,330.456,330.456,0,0,0-32.827,19.113,94.251,94.251,0,0,0-24.1,22.438q-8.264,11.268-9.057,26.61c-.613,11.893-.084,24.508-.084,36.47H2158.853Z" transform="translate(-2096.526 -273.726)" fill="url(#a)" clip-rule="evenodd"/></clipPath><linearGradient id="g" y1="0.665" y2="-0.122" xlink:href="#a"/><clipPath id="h"><path d="M1956.262,1380.738c6.753,29.632-2.341,99.476-5.717,154.259l.53-.051s.421,4.729,4.052,6.709,9.96,3.527,12.107,5.581c1.55,1.481,7.479,9.874-13.743,9.315-15.077-.4-18.669-1.446-20.283-3.893-.227-.341-12.538-115.153-14.105-124.591-2.693,12.03-33.175,114.646-33.166,114.71.251,1.816,2.663,6.636,5.348,9.636.823,2.943,2.792,8.121-11.825,7.994s-11.614-3.819-13.179-6.191c6.485-61,16.912-159.3,20.181-175.528l.914-.845c2.6-104.413,58.088-77.506,53.093-14.294-.564,7.143,13.284,7.34,15.794,17.188" transform="translate(-1866.279 -1307.749)" fill="none" clip-rule="evenodd"/></clipPath><linearGradient id="i" x1="0.336" y1="0.98" x2="0.662" y2="0.027" gradientUnits="objectBoundingBox"><stop offset="0" stop-color="#031542"/><stop offset="0.108" stop-color="#041c4b"/><stop offset="0.291" stop-color="#093065"/><stop offset="0.525" stop-color="#115090"/><stop offset="0.798" stop-color="#1b7ccb"/><stop offset="1" stop-color="#24a1fb"/></linearGradient><clipPath id="j"><path d="M2033.95,1213.253c6.381,14.005,18.146,13.6,33.255,11.59,13.186-2.3,36.612-46.838,34.864-51.3-1.9-4.844-10.553-8.178-13.1-4.643-4.962,6.146-26.032,33.761-28.258,33.606-2.107-.148-11.536-2.536-24.484-7.238-1.536-.99-6.771,11.214-2.278,17.98" transform="translate(-2032.168 -1167.431)" fill="none"/></clipPath><linearGradient id="k" x1="0.318" y1="1.438" x2="0.547" y2="0.256" gradientUnits="objectBoundingBox"><stop offset="0" stop-color="#ea6200"/><stop offset="1" stop-color="#ffc045"/></linearGradient><clipPath id="l"><path d="M1888.529,1238.083c-6.082,9.069,14.371,51.724,9.3,97.8,28.449,4.886,54.466,2.715,71.456-2.695-.8-18.775-.847-83.948-21.3-99.678-14.094-3.949-27.518-4.855-40.958-.227-6.662,2.294-14.608,5.451-18.5,4.8" transform="translate(-1887.388 -1230.163)" fill="none"/></clipPath><linearGradient id="m" x1="0.926" y1="1.393" x2="0.39" y2="0.269" xlink:href="#k"/><clipPath id="n"><path d="M1849.407,1194.289c2.514,9.64,4.529,33.87-4.709,27.911-15.982-10.308-40.585-45.075-40.382-55.626.321-10.63,42.333-27.239,51.661-26.359,4.4.416,5.626.418,7.6,2.685,1.148,1.318,2.582,3.482-.257,5.965-7.542,6.6-32.6,16.03-32.357,18.57,2.273,13.349,15.318,14.88,18.441,26.854" transform="translate(-1804.315 -1140.181)" fill="none"/></clipPath><linearGradient id="o" x1="-0.422" y1="0.042" x2="0.656" y2="0.578" xlink:href="#k"/><clipPath id="p"><path d="M1963.544,1120.516c-6.915,3.541-14.875-.661-18.9,4.081-1.993,2.349-1.793,5.735.439,10.963.658,1.541,1.538,2.675-1.065,1.47-1.194-.553-3.161-1.326-3.833-.783-1.5,1.208-.741,3.749.452,4.567.532.364,1.541.91,1.541.91-9.3-1.763-13.174-10.153-13.043-16.908.233-11.963,10.848-19.921,23.784-20.722a8.862,8.862,0,0,1,7.123-3.772c5.1,0,9.24,4.651,9.24,10.389a10.773,10.773,0,0,1-4.084,8.622,10.422,10.422,0,0,1-1.652,1.184" transform="translate(-1929.129 -1100.321)" fill="none" clip-rule="evenodd"/></clipPath><linearGradient id="q" x1="0.522" y1="0.903" x2="0.454" y2="-0.335" xlink:href="#i"/><clipPath id="r"><path d="M2097.279,1026.867l2.326-8.143,8.721,2.492-2.326,8.143Zm3.933-14.524a21.619,21.619,0,0,1,1.037-2.873,10.8,10.8,0,0,1,1.536-2.477,8.837,8.837,0,0,1,2.325-1.965,11.324,11.324,0,0,1,3.386-1.265q1-.219,2.649-.576a24.428,24.428,0,0,0,3.3-.965,12.1,12.1,0,0,0,3.019-1.621,4.823,4.823,0,0,0,1.826-2.611,4.248,4.248,0,0,0-.618-3.885,6.072,6.072,0,0,0-3.31-2.278,5.584,5.584,0,0,0-2.507-.176,9.28,9.28,0,0,0-2.206.666,8.246,8.246,0,0,0-1.878,1.155q-.846.695-1.5,1.227l-5.489-6.753a13.807,13.807,0,0,1,7.3-4.756,16.777,16.777,0,0,1,9.135.162,18.827,18.827,0,0,1,4.851,2.177,13.435,13.435,0,0,1,3.862,3.623,12.638,12.638,0,0,1,2.083,5.06,14.117,14.117,0,0,1-.485,6.486,12.48,12.48,0,0,1-3.38,5.912,14.626,14.626,0,0,1-5.911,3.172,30.024,30.024,0,0,1-3.3.856,27.426,27.426,0,0,0-3.068.78,7.839,7.839,0,0,0-2.444,1.246,4,4,0,0,0-1.334,1.924c-.322.939-.568,1.961-.842,2.919l-8.789-2.51Z" transform="translate(-2097.279 -982.634)" fill="url(#a)" clip-rule="evenodd"/></clipPath><linearGradient id="s" x1="0.428" y1="0.678" x2="0.74" y2="-0.094" xlink:href="#a"/><clipPath id="t"><path d="M1832.009,939.606l-3.086-13.882,14.87-3.306,3.086,13.882Zm-5.824-24.59a36.131,36.131,0,0,1-.77-5.07,18.183,18.183,0,0,1,.284-4.888,14.847,14.847,0,0,1,1.859-4.761,19.029,19.029,0,0,1,3.986-4.578q1.3-1.123,3.448-2.97a41.14,41.14,0,0,0,4.1-4.068,20.282,20.282,0,0,0,3.158-4.812,8.087,8.087,0,0,0,.6-5.315,7.132,7.132,0,0,0-4.024-5.24,10.189,10.189,0,0,0-6.709-.712,9.363,9.363,0,0,0-3.841,1.747,15.592,15.592,0,0,0-2.723,2.75,13.88,13.88,0,0,0-1.848,3.21q-.693,1.7-1.235,3.013l-13.508-5.573a23.188,23.188,0,0,1,6.966-12.865,28.2,28.2,0,0,1,13.614-7.076,31.66,31.66,0,0,1,8.9-.669,22.567,22.567,0,0,1,8.6,2.257,21.213,21.213,0,0,1,7.125,5.8,23.73,23.73,0,0,1,4.478,9.964,20.965,20.965,0,0,1-.257,11.432,24.533,24.533,0,0,1-6.186,9.416,49.841,49.841,0,0,1-4.193,3.91,46.432,46.432,0,0,0-3.9,3.607,13.172,13.172,0,0,0-2.609,3.8,6.737,6.737,0,0,0-.43,3.91c.277,1.643.733,3.35,1.1,4.984l-14.983,3.331Z" transform="translate(-1808.967 -857.072)" fill="url(#a)" clip-rule="evenodd"/></clipPath><linearGradient id="u" x1="0.555" y1="0.652" x2="0.284" y2="-0.095" xlink:href="#a"/><clipPath id="v"><path d="M2032.135,798.413V786.745h12.5v11.667Zm-.286-20.729a29.659,29.659,0,0,1,.286-4.2,14.9,14.9,0,0,1,1.1-3.863,12.169,12.169,0,0,1,2.337-3.482,15.6,15.6,0,0,1,4.006-2.957q1.24-.668,3.291-1.765a33.813,33.813,0,0,0,4.006-2.528,16.647,16.647,0,0,0,3.386-3.291,6.641,6.641,0,0,0,1.431-4.149,5.853,5.853,0,0,0-2.289-4.913,8.364,8.364,0,0,0-5.247-1.765,7.686,7.686,0,0,0-3.386.715,12.805,12.805,0,0,0-2.671,1.717,11.37,11.37,0,0,0-2.05,2.242q-.86,1.239-1.526,2.193l-9.825-6.868a19.025,19.025,0,0,1,7.87-9.062,23.127,23.127,0,0,1,12.163-3.243,25.967,25.967,0,0,1,7.25,1.049,18.519,18.519,0,0,1,6.486,3.339,17.386,17.386,0,0,1,4.674,5.914,19.45,19.45,0,0,1,1.812,8.776,17.2,17.2,0,0,1-2.241,9.11,20.131,20.131,0,0,1-6.63,6.439,41.021,41.021,0,0,1-4.053,2.384,38.044,38.044,0,0,0-3.768,2.194,10.827,10.827,0,0,0-2.766,2.576,5.522,5.522,0,0,0-1.04,3.055c-.07,1.365-.009,2.813-.009,4.186h-12.591Z" transform="translate(-2024.694 -732.469)" fill="url(#a)" clip-rule="evenodd"/></clipPath><linearGradient id="w" y1="0.665" y2="-0.122" xlink:href="#a"/><clipPath id="x"><path d="M2864.376,1398.614c-6.324,20.994-3.016,61.3.265,95.786,23.747,6.1,58.693,4.444,67.422-2.932-5.825-44.982-8.789-88.2-18.094-96.163-19.608-45.822-46.719-8.331-49.594,3.309" transform="translate(-2860.789 -1373.116)" fill="none" clip-rule="evenodd"/></clipPath><linearGradient id="y" x1="0.554" y1="0.915" x2="0.44" y2="0.046" xlink:href="#i"/><clipPath id="z"><path d="M2922.509,1128.423s-11.186,1.223-15.64-2.085c-9.335-6.875-5.352-25.25,17.562-20.284,18.232,3.952,13.507,21.65,36.149,30.7,16.659,6.661,24.739,20.353,16.651,36.925-.041.033-4.808-11.48-9.615-11.727,6.609,8.416,3.067,17.711,1.566,19.269-9.229-15.761-23.7-27.429-38.682-26.687-8.743-5.453,4.792-25.172-7.991-26.114" transform="translate(-2902.18 -1105.214)" fill="none" clip-rule="evenodd"/></clipPath><linearGradient id="aa" x1="0.472" y1="0.917" x2="0.559" y2="-0.381" xlink:href="#i"/><clipPath id="ab"><path d="M3108.088,1107.267l2.326-8.144,8.721,2.491-2.326,8.143Zm3.934-14.526a21.409,21.409,0,0,1,1.036-2.872,10.752,10.752,0,0,1,1.536-2.477,8.832,8.832,0,0,1,2.325-1.964,11.306,11.306,0,0,1,3.386-1.264q1-.22,2.648-.576a24.482,24.482,0,0,0,3.3-.965,12.09,12.09,0,0,0,3.021-1.622,4.822,4.822,0,0,0,1.825-2.611,4.244,4.244,0,0,0-.618-3.885,6.06,6.06,0,0,0-3.311-2.278,5.565,5.565,0,0,0-2.506-.176,9.209,9.209,0,0,0-2.206.666,8.306,8.306,0,0,0-1.879,1.155q-.844.694-1.5,1.227l-5.489-6.752a13.81,13.81,0,0,1,7.3-4.756,16.8,16.8,0,0,1,9.135.161,18.843,18.843,0,0,1,4.851,2.177,13.429,13.429,0,0,1,3.861,3.624,12.633,12.633,0,0,1,2.084,5.06,14.115,14.115,0,0,1-.485,6.486,12.482,12.482,0,0,1-3.381,5.911,14.632,14.632,0,0,1-5.911,3.173,29.89,29.89,0,0,1-3.3.856,27.416,27.416,0,0,0-3.067.78,7.837,7.837,0,0,0-2.445,1.246,4.018,4.018,0,0,0-1.335,1.925c-.321.938-.567,1.962-.841,2.919l-8.789-2.511Z" transform="translate(-3108.088 -1063.034)" fill="none" clip-rule="evenodd"/></clipPath><linearGradient id="ac" x1="0.428" y1="0.677" x2="0.74" y2="-0.093" gradientUnits="objectBoundingBox"><stop offset="0" stop-color="#022fa0"/><stop offset="0.678" stop-color="#187bdc"/><stop offset="1" stop-color="#24a1fb"/></linearGradient><clipPath id="ad"><path d="M3006.2,987.573l-.768-10.269,11-.822.767,10.268Zm-1.615-18.226a26.148,26.148,0,0,1-.024-3.713,13.173,13.173,0,0,1,.711-3.473,10.763,10.763,0,0,1,1.827-3.218,13.8,13.8,0,0,1,3.333-2.866q1.048-.67,2.78-1.77a29.656,29.656,0,0,0,3.36-2.488,14.708,14.708,0,0,0,2.765-3.119,5.87,5.87,0,0,0,.986-3.747,5.166,5.166,0,0,0-2.338-4.173,7.378,7.378,0,0,0-4.734-1.208,6.775,6.775,0,0,0-2.934.853,11.269,11.269,0,0,0-2.238,1.687,10.073,10.073,0,0,0-1.658,2.107q-.673,1.148-1.2,2.031l-9.1-5.4a16.8,16.8,0,0,1,6.331-8.494,20.409,20.409,0,0,1,10.492-3.654,22.909,22.909,0,0,1,6.45.446,16.333,16.333,0,0,1,5.929,2.512,15.366,15.366,0,0,1,4.5,4.9,17.186,17.186,0,0,1,2.171,7.605,15.175,15.175,0,0,1-1.374,8.166,17.768,17.768,0,0,1-5.411,6.1,36.169,36.169,0,0,1-3.411,2.366,33.325,33.325,0,0,0-3.172,2.179,9.538,9.538,0,0,0-2.266,2.449,4.865,4.865,0,0,0-.714,2.756c.027,1.207.176,2.477.267,3.686l-11.083.829Z" transform="translate(-2996.121 -928.641)" fill="url(#a)" clip-rule="evenodd"/></clipPath><linearGradient id="ae" x1="0.519" y1="0.657" x2="0.425" y2="-0.116" xlink:href="#a"/><clipPath id="af"><path d="M2689.7,1231.527l-1.52-6.8,7.282-1.628,1.521,6.8Zm-2.868-12.044a17.49,17.49,0,0,1-.38-2.483,8.886,8.886,0,0,1,.135-2.395,7.263,7.263,0,0,1,.909-2.333,9.277,9.277,0,0,1,1.949-2.245q.636-.552,1.687-1.458a20.069,20.069,0,0,0,2.005-2,9.877,9.877,0,0,0,1.544-2.359,3.971,3.971,0,0,0,.293-2.606,3.492,3.492,0,0,0-1.974-2.563,4.985,4.985,0,0,0-3.288-.345,4.581,4.581,0,0,0-1.881.858,7.7,7.7,0,0,0-1.333,1.348,6.825,6.825,0,0,0-.9,1.574q-.338.835-.6,1.478l-6.62-2.722a11.357,11.357,0,0,1,3.4-6.307,13.8,13.8,0,0,1,6.665-3.476,15.53,15.53,0,0,1,4.362-.333,11.042,11.042,0,0,1,4.215,1.1,10.408,10.408,0,0,1,3.494,2.838,11.609,11.609,0,0,1,2.2,4.879,10.266,10.266,0,0,1-.118,5.6,12.029,12.029,0,0,1-3.024,4.617,24.646,24.646,0,0,1-2.052,1.918,22.487,22.487,0,0,0-1.91,1.769,6.474,6.474,0,0,0-1.277,1.863,3.3,3.3,0,0,0-.207,1.915c.136.8.361,1.64.54,2.441l-7.338,1.641Z" transform="translate(-2678.376 -1191.09)" fill="none" clip-rule="evenodd"/></clipPath><linearGradient id="ag" x1="0.556" y1="0.652" x2="0.283" y2="-0.094" xlink:href="#ac"/></defs><g transform="translate(-216.77 -3659.61)"><path d="M1984.985,1904.833c160.958,0,291.44,7.038,291.44,15.718s-130.482,15.718-291.44,15.718-291.44-7.038-291.44-15.718,130.482-15.718,291.44-15.718" transform="translate(-1476.775 2391.73)" fill="#4279f1" fill-rule="evenodd" opacity="0.23"/><path d="M2198.244,848.214V746.574h108.863v101.64Zm-2.492-180.587a258.463,258.463,0,0,1,2.492-36.565,129.737,129.737,0,0,1,9.557-33.656,106.1,106.1,0,0,1,20.359-30.332q13.3-14.128,34.9-25.762,10.8-5.817,28.671-15.374a293.693,293.693,0,0,0,34.9-22.021,144.971,144.971,0,0,0,29.5-28.67A57.849,57.849,0,0,0,2368.6,439.1q0-27.424-19.944-42.8a72.838,72.838,0,0,0-45.706-15.374q-16.62,0-29.5,6.233a111.478,111.478,0,0,0-23.269,14.958,99.173,99.173,0,0,0-17.867,19.529q-7.478,10.8-13.3,19.112H2204.61v-7.608l-71.185-52.225q21.605-50.691,68.558-78.946t105.954-28.255a226.175,226.175,0,0,1,63.158,9.141,161.267,161.267,0,0,1,56.509,29.086q24.929,19.944,40.72,51.523t15.789,76.454q0,47.367-19.529,79.362t-57.755,56.093a356.158,356.158,0,0,1-35.318,20.775,330.893,330.893,0,0,0-32.826,19.114,94.246,94.246,0,0,0-24.1,22.438q-8.264,11.268-9.057,26.61c-.613,11.893-.084,24.508-.084,36.47H2195.751Z" transform="translate(-1744.881 3385.884)" fill="#1e2187" fill-rule="evenodd"/><g transform="translate(374.135 3659.61)"><g clip-path="url(#f)"><rect width="350.688" height="574.488" transform="translate(0 0)" fill="url(#g)"/></g></g><g transform="translate(-1476.775 3385.884)" opacity="0"><g transform="translate(1760.999 677.516)"><g transform="translate(0)" clip-path="url(#h)"><rect width="109.872" height="287.104" transform="translate(-1.438 -34.319)" fill="url(#i)"/></g></g><g transform="translate(1825.779 622.722)"><g transform="translate(0)" clip-path="url(#j)"><rect width="74.36" height="61.888" transform="translate(-2.711 -2.062)" fill="url(#k)"/></g></g><g transform="translate(1769.242 647.218)"><g clip-path="url(#l)"><rect width="86.835" height="112.114" transform="translate(-4.941 -1.511)" fill="url(#m)"/></g></g><path d="M1976.787,1151.66c-2,3.983-4.8,7.052-7.927,8.55l.106,5.786.843.716c3.3,3.533-.272,10.787-4.029,10.563-9.494.469-16.784-7.318-13.93-11.544l1.239-1.382.276-8.189c-.491-.028-4.057-2.055-5.118-2.38s-2.619-2.372-2.723-4.531,3.232-1.46,3.232-1.46c-4.042-5.531-8.618-10.049-2.684-15.029s19.565-7.887,19.565-7.887l8.2-2.844c-1.044,2.83.352,12.275,2.459,18.173,1.889,5.289,3.17,6.112.486,11.457" transform="translate(-152.182 -517.038)" fill="#f4b1b1" fill-rule="evenodd"/><path d="M1979.085,1212.343s4.641,7.959,8.452,8.679,1.864.188,3.284.02l-.106-5.786c-2.627.422-5.2.214-11.63-2.912" transform="translate(-174.036 -572.083)" fill="#e98385" fill-rule="evenodd"/><g transform="translate(1736.801 612.08)"><g transform="translate(0)" clip-path="url(#n)"><rect width="62.05" height="88.825" transform="translate(-0.202 -0.847)" fill="url(#o)"/></g></g><g transform="translate(1785.542 596.515)"><g transform="translate(0)" clip-path="url(#p)"><rect width="40.278" height="41.403" transform="translate(-0.128 0)" fill="url(#q)"/></g></g><path d="M2185.893,1145.819l2.057-2.809c.468-3.215,1.942-3.425,2.257-6.856.157-1.719,1-4.307.762-5.418-.35-1.614,1.653-1.083,2.309-.283,1.856,2.266,1.013,4.28,1.363,5.521.579-.148,4.755-2.529,7.914-4.112,1.836-.92,4.366-.81,4.707-.2,2.547,4.517-1.2,10.183-2.656,11.33-1.855,1.458-5.842,2.416-9.695,8.54-3.9,3.775-8.756-3.228-9.017-5.71" transform="translate(-300.084 -521.705)" fill="#f4b1b1" fill-rule="evenodd"/></g><g transform="translate(386.429 4023.441)"><g transform="translate(0 0)" clip-path="url(#r)"><rect width="33.093" height="46.96" transform="translate(0 -0.236)" fill="url(#s)"/></g></g><g transform="translate(261.842 3964.409)"><g clip-path="url(#t)"><rect width="50.65" height="82.66" transform="translate(0 -0.126)" fill="url(#u)"/></g></g><g transform="translate(346.084 3949.75)"><g transform="translate(0 0)" clip-path="url(#v)"><rect width="40.254" height="65.944" transform="translate(0 0)" fill="url(#w)"/></g></g><path d="M2881.648,1344.5l-13.533,111.938,6.9,105.73c-.233.316-.461.628-.689.93-.177.241-.353.474-.531.7-.423.558-.84,1.084-1.259,1.576-.188.224-.377.442-.571.653-3.107,3.424-7.121,4.25-10.409,5.052-2.545.622-4.507.927-6.235,4.33a1.754,1.754,0,0,0-.128.322,1.939,1.939,0,0,0,1.909,2.477l30.167-.944a2.909,2.909,0,0,0,2.826-2.589,2.707,2.707,0,0,0,0-.613l-2.012-13.169a.4.4,0,0,0-.009-.055c.733-25.707,6.547-63.381,1.781-93.409,0,0,28.494-56.333,28.379-57.7s-36.583-65.232-36.583-65.232" transform="translate(-2184.744 2733.252)" fill="#f4b1b1"/><path d="M2963.5,1599.294c1.312,11.315-6.582,18.029-5.272,29.344.017,28.33,19.868,60.97,26.581,89.576.222.947-1.468,9.945-1.276,10.884,2.981,3.188,11.478,7.686,12.388-7.016-3.8-24.7-8.526-64.619-18.308-94.669l6.177-29.959Z" transform="translate(-2247.506 2579.077)" fill="#f4b1b1"/><path d="M2858.3,1917.158s-10.5,2.907-10.032,6.147c.954,6.539,37.01,2.222,37.2,1.982,1.278-1.589,1.429-8.968-.291-11.17-1.28-1.637-15.389,7.122-26.878,3.041" transform="translate(-2180.567 2386.198)" fill="#031542" fill-rule="evenodd"/><path d="M3014.758,1927.563c.228,4.2,15.4,2.993,17.677,1.733,3.394-1.872-.741-15.08-2.02-13.61,0,0-3.955,6.225-8.631,4.969-2.014-.514-2.794-3.221-3.593-1.645-1.5,2.95-3.642,4.682-3.434,8.554" transform="translate(-2282.041 2385.185)" fill="#000446" fill-rule="evenodd"/><g transform="translate(672.582 4088.926)"><g transform="translate(0)" clip-path="url(#x)"><rect width="74.012" height="151.014" transform="translate(-2.737 -23.633)" fill="url(#y)"/></g></g><path d="M2829.995,1260.49c-6.371,13.982-5.72,27.73-20.5,33.9-16.6,2.961-23.366-42.006-22.079-46.791.814-3.029,6.976-5.18,8.978-3.174,2.178,2.182,11.218,25.287,11.52,25.267,2.106-.148,11.942-26.5,24.744-29.869,1.534-.988,1.825,13.912-2.661,20.669" transform="translate(-2143.391 2797.081)" fill="#4279f1" fill-rule="evenodd"/><path d="M2835.548,1340.727a22.7,22.7,0,0,1-12.017,11.038c-5.453.972-9.844-3.228-13.238-9.475,4.041,4.567,9.44,5.395,15.008,3.029,3-1.276,8.729-11.407,8.729-11.407s.329,5.556,1.518,6.816" transform="translate(-2157.43 2739.705)" fill="#0420ff" fill-rule="evenodd"/><path d="M2932.353,1240.169c5.585,22.787-16.782,25.644-11.716,71.645-16.755,2.327-38.208,3.175-52.615-.373,2.3-16.926-3.1-44.678-.553-52.94,2.63-8.537,9.37-22.836,13.649-24.581,20.208-5.663,42.914-6.157,51.236,6.249" transform="translate(-2191.852 2802.981)" fill="#4279f1" fill-rule="evenodd"/><path d="M2918.548,1164.853l.313,5.519-.751.743c-2.887,3.6,1.035,10.255,4.594,9.772,9.077-.236,15.462-8.176,12.44-12l-1.279-1.227-.849-7.78c.465-.061,3.715-2.249,4.7-2.634s2.325-2.447,2.268-4.511-3.183-1.158-3.183-1.158c3.453-5.559,7.487-10.189,1.478-14.507s-19.2-6.107-19.2-6.107l-8.019-2.119c1.2,2.621.545,11.716-1.037,17.484-2.25,8.2-.137,15.146,8.522,18.522" transform="translate(-2217.707 2864.691)" fill="#f4b1b1" fill-rule="evenodd"/><path d="M2944.021,1211.812s-3.849,7.913-7.428,8.874-1.761.313-3.126.253l-.314-5.519c2.532.214,4.965-.169,10.867-3.608" transform="translate(-2232.313 2814.124)" fill="#e98385" fill-rule="evenodd"/><path d="M2998.916,1243.2c20.106,8.339,34.656,52.883,30.535,65.258-3.463,10.038-32.431,35.029-41.06,31.416-4.162-1.742-7.022-5.874-.758-9.939,9.15-4.051,24.561-23.713,25.084-26.206.95-7.072-10.47-25.133-13.559-30.713-4.462-8.057-11.951-31.666-.241-29.817" transform="translate(-2263.296 2795.056)" fill="#4279f1" fill-rule="evenodd"/><path d="M2787.278,1209.055c.771-1.689,3.736-8.425,3.384-10.192-.181-.9-.477-.774-.953-.642a3.261,3.261,0,0,0-1.474,1.28,27.5,27.5,0,0,0-1.577,2.889c-.527-4.065-1.966-10.939-2.216-13.23-.2-1.82-1.761-2.849-2.306-.183-.446,2.181.7,8.1.7,8.1l-2.819-6.513c-.677-1.462-1.713-.057-1.61.932.17,1.626,1.239,6.828,1.239,6.828l-2.3-4.451c-.833-1.268-1.285.584-1.167,1.057.276,1.09,1.317,4.753,1.317,4.753l-1.292-2.071c-1.168-1.669-1.521,1.173-1.177,1.648.073.1,2.9,7.491,3.418,8.746,1.288,3.133,2.049,4.1,2.254,7.271a8.733,8.733,0,0,0,7.148-2.845Z" transform="translate(-2135.854 2829.03)" fill="#f4b1b1" fill-rule="evenodd"/><path d="M2958.623,1472.719l-3,1.657-5.68-.061c-.867-.205-6.314-.417-4.6,1.035,1.206,1.02,4.588,2.43,4.538,2.578-.623,1.932-9.82,6.422-9.887,6.6-.922,2.469,5.085-.04,6.122-.42.272-.1-3.749,2.648-3.514,2.792a2.206,2.206,0,0,0,2.155.219c1.391-.547,3.621-1.869,3.948-1.717s-3.582,2.794-3.252,2.917a1.935,1.935,0,0,0,1.627-.06c1.426-.606,3.41-1.959,3.8-1.884s-2.515,1.8-2.138,1.838c.293.031.463.517.734.426,7.3-2.434,6.251-4.986,11.959-8.241,4.694-1.427-1.026-7.253-2.815-7.677" transform="translate(-2236.424 2655.102)" fill="#f4b1b1" fill-rule="evenodd"/><g transform="translate(688.746 3984.309)"><g transform="translate(0)" clip-path="url(#z)"><rect width="87.785" height="80.137" transform="translate(-4.645 -4.126)" fill="url(#aa)"/></g></g><g transform="translate(769.153 3967.838)"><g transform="translate(0)" clip-path="url(#ab)"><rect width="33.093" height="46.96" transform="translate(0 -0.236)" fill="url(#ac)"/></g></g><g transform="translate(725.43 3915.356)"><g transform="translate(0)" clip-path="url(#ad)"><rect width="36.116" height="59.029" transform="translate(0 -0.097)" fill="url(#ae)"/></g></g><g transform="translate(601.35 4017.844)"><g transform="translate(0)" clip-path="url(#af)"><rect width="24.815" height="40.499" transform="translate(0 -0.061)" fill="url(#ag)"/></g></g><g transform="translate(162.268 -1175.132)"><g transform="translate(104.474 5418.28)"><path d="M64.27,16.768H6.29S-1.034,14.678.124,6.688,8.7-.5,17.446.9s43.71,5.071,43.71,5.071Z" transform="translate(16.769 0) rotate(90)" fill="#4279f1" fill-rule="evenodd"/><path d="M23.981.921S11.673-4.8,5.706,12.293A155.162,155.162,0,0,0,.126,32.055a6.041,6.041,0,0,0,5.913,7.266H7.358l4.111-7.357Z" transform="translate(39.323 58.23) rotate(90)" fill="#4279f1" fill-rule="evenodd"/><path d="M2.8,38.606H6.448a5.6,5.6,0,0,0,4.987-3.044C15.823,26.984,27.293,3.049,20.2.2S3.438,24.833.139,34.953A2.791,2.791,0,0,0,2.8,38.606Z" transform="translate(38.606 62.01) rotate(90)" fill="#1f5feb" fill-rule="evenodd"/></g><g transform="translate(220.471 5412.023) rotate(90)"><path d="M64.27,16.768H6.29S-1.034,14.678.124,6.688,8.7-.5,17.446.9,61.157,5.967,61.157,5.967Z" transform="translate(0 22.554)" fill="#4279f1" fill-rule="evenodd"/><path d="M23.982.921S11.674-4.8,5.705,12.293A155.256,155.256,0,0,0,.126,32.055a6.041,6.041,0,0,0,5.913,7.266H7.358l4.111-7.357Z" transform="translate(56.868 0)" fill="#4279f1" fill-rule="evenodd"/><path d="M2.8,38.606H6.447a5.594,5.594,0,0,0,4.987-3.044C15.822,26.984,27.292,3.049,20.2.2S3.437,24.833.139,34.953A2.791,2.791,0,0,0,2.8,38.606Z" transform="translate(60.648 0.717)" fill="#1f5feb" fill-rule="evenodd"/></g><path d="M98.392,92.54,5.761,70.372S-4.121,67.476,2,50.023,16.054,9.806,24.42,3.344s30.519-1.988,40.845.4S97.858,11.476,107.783,14.9c8.445,2.913,13.075,9.909,9.438,22.434S98.392,92.54,98.392,92.54Z" transform="translate(88.302 5280.521) rotate(-13)" fill="#c7d5f0" fill-rule="evenodd"/><path d="M24.294,74.8S14.25,71.857,20.47,54.118,28.476,17.25,38.182,8.711c5.844-5.142,18.069-5.877,26.595-5.075C54.26,1.221,32.658-3.02,24.42,3.344,16.054,9.806,8.12,32.571,2,50.023s3.762,20.35,3.762,20.35L98.392,92.541l0-.007Z" transform="translate(88.302 5280.519) rotate(-13)" fill="#eff1fb" fill-rule="evenodd"/><path d="M9.225,12.422C6.712,20.881,1.374,39.614.262,46.149S1.472,58.293,9.225,60.5c5.511,1.566,33.607,6.339,49.4,8.968a12.436,12.436,0,0,0,13.957-8.7c3.409-11.36,8.521-28.4,9.7-32.321,1.8-6.009,3.306-13.42-7.762-17.026S38.037,2.256,28.109.429,12.137,2.621,9.225,12.422Z" transform="translate(119.59 5285.804) rotate(-13)" fill="#eff1fb" fill-rule="evenodd"/><path d="M20.766,0c7.179,3.913,5.83,10.268,4.247,15.542l-9.7,32.322a12.437,12.437,0,0,1-13.957,8.7L0,56.334c.02.164.048.328.068.492l2.809.469a12.438,12.438,0,0,0,13.957-8.7l9.7-32.321C28.217,10.658,29.639,3.813,20.766,0Z" transform="translate(176.647 5285.121) rotate(-13)" fill="#4279f1" fill-rule="evenodd"/><path d="M21.2.25l92.653,9.482L102.485,74.955a8.56,8.56,0,0,1-8.316,6.251H15.006A14.745,14.745,0,0,1,.153,64.538L8.284,8.951A10.679,10.679,0,0,1,21.2.25Z" transform="matrix(0.995, -0.105, 0.105, 0.995, 91.42, 5351.837)" fill="#c7d5f0" fill-rule="evenodd"/><path d="M818.528,667.695c-.956-.026-1.938-.076-2.925-.107-1.177,1.133-2.319,2.306-3.5,3.433-1.645,1.573-3.271,3.163-4.775,4.865a27.373,27.373,0,0,0-1.371,2.382c-.949,2.645-1.7,5.355-2.428,8.07h8.651a8.6,8.6,0,0,0,8.316-6.42l3.125-11.938C821.93,667.833,820.23,667.741,818.528,667.695Z" transform="translate(-622.785 4735.758)" fill="#c7d5f0" fill-rule="evenodd"/><path d="M26.072,68.695,34.543,9.218c.3-2.09,2.728-5.319,3.966-6.834L21.2.257A10.7,10.7,0,0,0,8.284,9.193L.153,66.285A15,15,0,0,0,15.006,83.4H32.17A15.606,15.606,0,0,1,26.072,68.695Z" transform="translate(87.972 5350.504) rotate(-7)" fill="#eff1fb" fill-rule="evenodd"/><path d="M14.645,23.662l-2.019-5.77,5.3-1.606a2.71,2.71,0,0,0,1.831-3.11h0a2.5,2.5,0,0,0-2.84-1.952l-6.375.212.36-.495,5.234-.871A2.513,2.513,0,0,0,17.9,6.837h0a2.471,2.471,0,0,0-2.678-1.73l-6.175.155.536-.437,3.789-.663a1.943,1.943,0,0,0,1.455-2.426h0A2.146,2.146,0,0,0,12.743.006,17.078,17.078,0,0,0,3.916,1.972C-1.054,4.461-.643,5.534,1.574,12.834S7.329,24.181,14.645,23.662Z" transform="translate(150.833 5252.462) rotate(95)" fill="#4279f1" fill-rule="evenodd"/><path d="M5.6,6.107A1.244,1.244,0,0,1,4.91,5.9,26.015,26.015,0,0,1,.321,2.084,1.249,1.249,0,0,1,2.176.411,23.94,23.94,0,0,0,6.289,3.817,1.249,1.249,0,0,1,5.6,6.107Z" transform="translate(164.797 5314.55) rotate(-43)" fill="#4279f1"/><g transform="matrix(0.94, -0.342, 0.342, 0.94, 150.034, 5295.41)"><path d="M4.049,4.328c-.816,2-1.775,3.507-2.944,3.032S-.351,4.874.464,2.869,2.887-.374,4.057.1,4.864,2.323,4.049,4.328Z" transform="translate(0 4.803) rotate(-90)" fill="#4279f1" fill-rule="evenodd"/><path d="M.962,2.939C1.917,1,2.98-.435,4.112.121S5.39,2.7,4.435,4.645,1.789,7.71.657,7.154.008,4.881.962,2.939Z" transform="translate(30.095 9.339)" fill="#4279f1" fill-rule="evenodd"/></g><path d="M769.214,2675.925c-4.991-20.093-12.088-65.407-1.459-91.136s37.622-20.993,45.648-16.821,8.916,13.939,2.247,18.581c-2.907,2.024-12.551-6.79-19.5-7.153-8.516-.444-14.3,7.153-14.3,7.153s-7.889,15.512-6.737,37.372,10.362,29.036,12.609,41.24C788.842,2676.486,774.205,2696.018,769.214,2675.925Z" transform="translate(-671.506 2678.369)" fill="#4279f1"/></g></g></svg>