<svg xmlns="http://www.w3.org/2000/svg" xmlns:xlink="http://www.w3.org/1999/xlink" width="90" height="90" viewBox="0 0 90 90"><defs><filter id="a" x="0" y="0" width="90" height="90" filterUnits="userSpaceOnUse"><feOffset dy="3" input="SourceAlpha"/><feGaussianBlur stdDeviation="3" result="b"/><feFlood flood-color="#77b0d6" flood-opacity="0.161"/><feComposite operator="in" in2="b"/><feComposite in="SourceGraphic"/></filter><linearGradient id="c" x1="0.5" y1="1" x2="0.5" gradientUnits="objectBoundingBox"><stop offset="0" stop-color="#ffbef9"/><stop offset="1" stop-color="#fff1ff"/></linearGradient><linearGradient id="d" x1="0.5" y1="1" x2="0.5" gradientUnits="objectBoundingBox"><stop offset="0" stop-color="#a93aff"/><stop offset="1" stop-color="#ff81ff"/></linearGradient><linearGradient id="f" x1="0.5" y1="1" x2="0.5" gradientUnits="objectBoundingBox"><stop offset="0" stop-color="#5558ff"/><stop offset="1" stop-color="#00c0ff"/></linearGradient><linearGradient id="g" x1="0.5" y1="1" x2="0.5" gradientUnits="objectBoundingBox"><stop offset="0" stop-color="#addcff"/><stop offset="0.503" stop-color="#eaf6ff"/><stop offset="1" stop-color="#eaf6ff"/></linearGradient></defs><g transform="translate(-394 -240)"><g transform="translate(0 17)"><g transform="matrix(1, 0, 0, 1, 394, 223)" filter="url(#a)"><circle cx="36" cy="36" r="36" transform="translate(9 6)" fill="#fff"/></g><g transform="translate(416.877 243.985)"><g transform="translate(0 3.412)"><path d="M17.337,86.767H.826A.825.825,0,0,1,0,85.942V62.826A.825.825,0,0,1,.826,62h9.907a.825.825,0,0,1,.826.826V81.814h5.779a.825.825,0,0,1,.826.826v3.3A.825.825,0,0,1,17.337,86.767Z" transform="translate(0 -62)" fill="url(#c)"/></g><g transform="translate(10.017 0)"><g transform="translate(0 0)"><path d="M193.558,6.6,192.733,0h-9.907A.818.818,0,0,0,182,.826V23.942a.818.818,0,0,0,.826.826h16.512a.817.817,0,0,0,.826-.826V7.43Z" transform="translate(-182)" fill="url(#d)"/></g><g transform="translate(3.302)"><path d="M250.256,7.43h6.6a.774.774,0,0,0-.248-.578l-6.6-6.6A.774.774,0,0,0,249.43,0V6.6A.826.826,0,0,0,250.256,7.43Zm2.477,4.128h-9.907a.826.826,0,0,0,0,1.651h9.907a.826.826,0,1,0,0-1.651Zm0,4.953h-9.907a.826.826,0,0,0,0,1.651h9.907a.826.826,0,1,0,0-1.651Z" transform="translate(-242 0)" fill="url(#c)"/></g></g></g><g transform="translate(434.963 260.325)"><path d="M7.219,162.159H.844a.8.8,0,0,1-.8-.8V151.8a.8.8,0,0,1,.8-.8H7.219l1.488,5.366Z" transform="translate(-0.047 -142.979)" fill="url(#f)"/><path d="M145.056.075a.8.8,0,0,0-.848.108l-9.161,7.839V19.18l9.161,7.839a.8.8,0,0,0,1.306-.613V.8a.8.8,0,0,0-.458-.721Z" transform="translate(-127.875 0)" fill="url(#g)"/><path d="M430.123,128.84a.8.8,0,0,1-.563-1.36,8.776,8.776,0,0,0,0-12.4.8.8,0,1,1,1.127-1.127,10.372,10.372,0,0,1,0,14.652A.794.794,0,0,1,430.123,128.84Z" transform="translate(-406.519 -107.68)" fill="url(#f)"/><path d="M366.484,185.719a.8.8,0,0,1-.563-1.36,3.989,3.989,0,0,0,0-5.635.8.8,0,0,1,1.127-1.127,5.585,5.585,0,0,1,0,7.889A.8.8,0,0,1,366.484,185.719Z" transform="translate(-346.261 -167.939)" fill="url(#f)"/></g></g></g></svg>