<svg xmlns="http://www.w3.org/2000/svg" width="266.688" height="232.967" viewBox="0 0 266.688 232.967"><g transform="translate(-249.312 -2400.089)"><path d="M33.054,133.383c-6.171-17.1-24.684-32.441-24.684-32.441S-3.972,89.128,1.318,76.963,21.594,65.5,29.528,52.28s-8.463-24.155,3.526-28.21,27.152,12.342,47.957,6.347S98.994,1.678,116.273.091s10.4,17.984,33.852,23.979,48.661-12.695,59.946,0-1.587,13.576,2.821,40.9,21.51,50.073,14.811,68.409-31.208-4.055-41.61,4.937,15.34,25.741,0,31.031-43.9-13.576-61.356-9.874-5.818,20.8-21.862,23.273-13.047-19.571-33.852-23.273-31.031,15.691-35.968,9.874S39.225,150.485,33.054,133.383Z" transform="translate(293.569 2400.089) rotate(14)" fill="#4279f1" opacity="0.05"/><g transform="translate(326.31 2478.382)"><path d="M53.45,73.329l-34.17-12.66L123.992,37.206,105.086,94.768,65.08,77.212,87.868,58.475Z" transform="translate(-17.006 -35.997)" fill="#fff"/><path d="M25.694,55.379,24.412,75.535,35.9,70.4l1.422-11.14L60.111,40.524Z" transform="translate(10.75 -18.046)" fill="#fff"/><path d="M27.626,43.447,26.2,64.715,47.4,52.357Z" transform="translate(20.448 -2.232)" fill="#fff"/><path d="M85.707,37.154,64.938,89.524,27.4,76.432l-1,.881L66.646,95.57Z" transform="translate(21.529 -36.278)" fill="#cad7ef"/><path d="M26.423,48.063l16.931,6.474,2.825-1.945L26.4,43.419Z" transform="translate(21.529 -2.384)" fill="#cad7ef"/><path d="M24.633,65.792l23.924-14.78,12.128-10.7L24.612,56.206Z" transform="translate(11.833 -19.199)" fill="#cad7ef"/><path d="M59.472,52.084c0-1.756-7.961-3.179-17.78-3.179s-17.773,1.423-17.773,3.179S31.88,55.27,41.692,55.27,59.472,53.84,59.472,52.084Z" transform="translate(8.084 27.291)" fill="#cad7ef"/><g transform="translate(0 0)"><path d="M64.959,100.657l.59-10.563L53.435,95.786,54.7,74.461,18.926,61.508l108.2-24.491L107.486,97.189,86.866,87.831Zm2.487-21.632L66.369,98.343,85.437,87.184Zm-1.173-1.942,40.444,18.344L125.2,38.767,23.477,61.79l32.56,11.793-1.2,20.126,10.787-5.07Z" transform="translate(-18.926 -37.017)" fill="#4279f1"/></g><g transform="translate(36.186 18.473)"><path d="M36.531,62.489l-.792-1.008L56.5,45.177,25.088,59.019l-.517-1.173L65.3,39.9Z" transform="translate(-24.572 -39.899)" fill="#4279f1"/></g></g></g></svg>