<svg xmlns="http://www.w3.org/2000/svg" width="180" height="50" viewBox="0 0 202.5 60"><g transform="translate(-370 -577)"><g transform="translate(0 -80)"><path d="M195,60H7.5A7.427,7.427,0,0,1,0,52.5V7.5A7.427,7.427,0,0,1,7.5,0H195a7.427,7.427,0,0,1,7.5,7.5v45A7.427,7.427,0,0,1,195,60Z" transform="translate(370 657)" fill="#4279f1" opacity="0.1"/><g transform="translate(381.999 670.998)"><path d="M7.244,5.577A16,16,0,0,1,33.63,8.741c-3.63,0-9.313,0-12.391,0-2.232,0-3.674-.05-5.234.772a7.379,7.379,0,0,0-3.7,4.86Z" transform="translate(-3.38 0)" fill="#4279f1"/><path d="M20.02,25.348a5.318,5.318,0,1,0,5.318-5.32A5.325,5.325,0,0,0,20.02,25.348Z" transform="translate(-9.342 -9.344)" fill="#4279f1"/><path d="M18.059,29.323a7.166,7.166,0,0,1-8.391-3.4c-1.46-2.52-5.32-9.243-7.072-12.3A16.021,16.021,0,0,0,12.9,38.06Z" transform="translate(0 -6.355)" fill="#4279f1"/><path d="M34.057,20.022A7.285,7.285,0,0,1,35.4,28.98C34.133,31.169,30.083,38,28.12,41.311A16.013,16.013,0,0,0,44.2,20.02Z" transform="translate(-13.122 -9.341)" fill="#4279f1"/></g><text transform="translate(434 693)" fill="#4279f1" font-size="17" font-family="Poppins-Bold, Poppins" font-weight="700"><tspan x="0" y="0" xml:space="preserve">Get  Extension </tspan></text></g></g></svg>