<svg xmlns="http://www.w3.org/2000/svg" width="202.5" height="60" viewBox="0 0 202.5 60"><g transform="translate(-140 -577)"><path d="M195,60H7.5A7.427,7.427,0,0,1,0,52.5V7.5A7.427,7.427,0,0,1,7.5,0H195a7.427,7.427,0,0,1,7.5,7.5v45A7.427,7.427,0,0,1,195,60Z" transform="translate(140 577)" fill="#4279f1"/><g transform="translate(200.64 602.807)"><path d="M46.239,31.67h-7.1l-1.705,5.035H34.427l6.725-18.627h3.124L51,36.705H47.943Zm-6.365-2.323H45.5l-2.774-8.171H42.65Z" transform="translate(-34.427 -17.767)" fill="#fff"/><path d="M59.423,28.282c0,4.22-2.259,6.932-5.667,6.932a4.6,4.6,0,0,1-4.273-2.376h-.064v6.727H46.631V21.491h2.7v2.259h.051a4.817,4.817,0,0,1,4.324-2.4C57.151,21.349,59.423,24.073,59.423,28.282Zm-2.865,0c0-2.749-1.421-4.557-3.589-4.557-2.13,0-3.562,1.846-3.562,4.557,0,2.736,1.433,4.569,3.562,4.569,2.168,0,3.589-1.794,3.589-4.569Z" transform="translate(-28.325 -16.134)" fill="#fff"/><path d="M69.389,28.282c0,4.22-2.26,6.932-5.668,6.932a4.6,4.6,0,0,1-4.273-2.376h-.064v6.727H56.6V21.491h2.7v2.259h.051a4.817,4.817,0,0,1,4.324-2.4C67.116,21.349,69.389,24.073,69.389,28.282Zm-2.866,0c0-2.749-1.421-4.557-3.589-4.557-2.13,0-3.562,1.846-3.562,4.557,0,2.736,1.433,4.569,3.562,4.569,2.168,0,3.589-1.794,3.589-4.569Z" transform="translate(-23.342 -16.134)" fill="#fff"/><path d="M72.661,31.619c.207,1.847,2,3.06,4.453,3.06,2.35,0,4.04-1.213,4.04-2.878,0-1.446-1.02-2.311-3.434-2.9l-2.414-.582c-3.42-.826-5.008-2.426-5.008-5.021,0-3.214,2.8-5.421,6.776-5.421,3.937,0,6.636,2.208,6.727,5.421H80.987c-.168-1.859-1.705-2.981-3.951-2.981s-3.782,1.135-3.782,2.788c0,1.317.981,2.092,3.382,2.685l2.052.5c3.822.9,5.408,2.439,5.408,5.164,0,3.485-2.774,5.667-7.189,5.667-4.131,0-6.92-2.131-7.1-5.5Z" transform="translate(-16.737 -17.871)" fill="#fff"/><path d="M84.938,19.3v3.214h2.583v2.208H84.938v7.487c0,1.163.517,1.705,1.652,1.705a8.71,8.71,0,0,0,.917-.064v2.194a7.655,7.655,0,0,1-1.548.129c-2.75,0-3.822-1.033-3.822-3.667V24.721H80.163V22.514h1.975V19.3Z" transform="translate(-11.559 -17.157)" fill="#fff"/><path d="M86.064,28.289c0-4.273,2.517-6.958,6.441-6.958s6.442,2.685,6.442,6.958-2.492,6.958-6.442,6.958S86.064,32.574,86.064,28.289Zm10.043,0c0-2.931-1.343-4.661-3.6-4.661s-3.6,1.743-3.6,4.661c0,2.943,1.343,4.66,3.6,4.66s3.6-1.717,3.6-4.66Z" transform="translate(-8.608 -16.141)" fill="#fff"/><path d="M96.185,21.491h2.659V23.8h.064a3.239,3.239,0,0,1,3.267-2.454,4.3,4.3,0,0,1,.955.1V24.06a3.9,3.9,0,0,0-1.253-.168,2.809,2.809,0,0,0-2.9,3.124v8.055H96.185Z" transform="translate(-3.548 -16.133)" fill="#fff"/><path d="M113.466,31.09c-.375,2.465-2.776,4.157-5.848,4.157-3.951,0-6.4-2.647-6.4-6.894s2.465-7.022,6.286-7.022c3.757,0,6.12,2.581,6.12,6.7v.955H104.03v.168A3.537,3.537,0,0,0,107.683,33a3.072,3.072,0,0,0,3.136-1.91Zm-9.423-4.053h6.79A3.266,3.266,0,0,0,107.5,23.59a3.438,3.438,0,0,0-3.458,3.447Z" transform="translate(-1.032 -16.141)" fill="#fff"/></g><g transform="translate(202.506 588.656)"><path d="M38.9,8.734a3.959,3.959,0,0,1,4.211,4.447c0,2.859-1.545,4.5-4.211,4.5H35.671V8.734Zm-1.843,7.684h1.687A2.814,2.814,0,0,0,41.7,13.2,2.821,2.821,0,0,0,38.749,10H37.061Z" transform="translate(-35.671 -8.293)" fill="#fff"/><path d="M41.686,13.612a3.2,3.2,0,1,1,6.371,0,3.2,3.2,0,1,1-6.371,0Zm5,0c0-1.464-.658-2.32-1.812-2.32s-1.81.856-1.81,2.32.652,2.325,1.81,2.325S46.685,15.082,46.685,13.612Z" transform="translate(-32.671 -7.602)" fill="#fff"/><path d="M54.075,16.949H52.692l-1.4-4.975h-.105L49.8,16.949h-1.37l-1.862-6.754h1.352l1.21,5.154h.1l1.389-5.154H51.9l1.389,5.154h.105l1.2-5.154H55.93Z" transform="translate(-30.222 -7.558)" fill="#fff"/><path d="M53.854,10.24h1.283v1.073h.1a2.022,2.022,0,0,1,2.016-1.2,2.2,2.2,0,0,1,2.338,2.512v4.372H58.257V12.957c0-1.085-.472-1.625-1.458-1.625a1.549,1.549,0,0,0-1.613,1.712v3.951H53.854Z" transform="translate(-26.58 -7.604)" fill="#fff"/><path d="M59.094,8.437h1.333v9.391H59.094Z" transform="translate(-23.96 -8.437)" fill="#fff"/><path d="M61.223,13.613a3.2,3.2,0,1,1,6.371,0,3.2,3.2,0,1,1-6.371,0Zm5,0c0-1.464-.658-2.32-1.812-2.32s-1.81.856-1.81,2.32.652,2.325,1.81,2.325S66.222,15.083,66.222,13.613Z" transform="translate(-22.903 -7.602)" fill="#fff"/><path d="M66.4,15.082c0-1.216.905-1.917,2.512-2.016l1.83-.105v-.583c0-.713-.472-1.116-1.383-1.116-.744,0-1.26.273-1.408.751H66.662c.136-1.16,1.228-1.9,2.76-1.9,1.693,0,2.648.843,2.648,2.27v4.615H70.787v-.949h-.105a2.272,2.272,0,0,1-2.029,1.06A2.04,2.04,0,0,1,66.4,15.082Zm4.342-.577v-.565l-1.649.105c-.93.062-1.352.379-1.352.974s.527.962,1.252.962a1.592,1.592,0,0,0,1.749-1.477Z" transform="translate(-20.306 -7.602)" fill="#fff"/><path d="M71.348,14.448c0-2.134,1.1-3.486,2.8-3.486a2.226,2.226,0,0,1,2.071,1.185h.1V8.437h1.333v9.391H76.378V16.761h-.105a2.344,2.344,0,0,1-2.121,1.178C72.434,17.939,71.348,16.587,71.348,14.448Zm1.377,0c0,1.433.675,2.295,1.8,2.295s1.818-.874,1.818-2.289-.7-2.295-1.818-2.295-1.8.868-1.8,2.289Z" transform="translate(-17.832 -8.437)" fill="#fff"/><path d="M79.235,13.612a3.2,3.2,0,1,1,6.371,0,3.2,3.2,0,1,1-6.371,0Zm5,0c0-1.464-.658-2.32-1.812-2.32s-1.81.856-1.81,2.32.652,2.325,1.81,2.325S84.235,15.082,84.235,13.612Z" transform="translate(-13.897 -7.602)" fill="#fff"/><path d="M84.669,10.24h1.283v1.073h.1a2.022,2.022,0,0,1,2.016-1.2,2.2,2.2,0,0,1,2.338,2.512v4.372H89.073V12.957c0-1.085-.472-1.625-1.458-1.625A1.549,1.549,0,0,0,86,13.044v3.951H84.669Z" transform="translate(-11.172 -7.604)" fill="#fff"/><path d="M94.317,9.074v1.712h1.463v1.123H94.317v3.473c0,.708.292,1.017.955,1.017a4.45,4.45,0,0,0,.508-.031v1.11a4.373,4.373,0,0,1-.725.068c-1.482,0-2.073-.521-2.073-1.824V11.909H91.911V10.786h1.072V9.074Z" transform="translate(-7.551 -8.119)" fill="#fff"/><path d="M95.7,8.437h1.321v3.722h.105a2.078,2.078,0,0,1,2.059-1.21,2.225,2.225,0,0,1,2.326,2.518v4.361h-1.334V13.8c0-1.079-.5-1.625-1.444-1.625a1.578,1.578,0,0,0-1.7,1.712v3.945H95.7Z" transform="translate(-5.654 -8.437)" fill="#fff"/><path d="M106.786,15.169a2.742,2.742,0,0,1-2.927,1.954,3.068,3.068,0,0,1-3.12-3.486,3.115,3.115,0,0,1,3.114-3.529c1.879,0,3.013,1.284,3.013,3.4v.465H102.1v.075a1.785,1.785,0,0,0,1.8,1.935,1.619,1.619,0,0,0,1.607-.819ZM102.1,12.992h3.412a1.63,1.63,0,0,0-1.663-1.75,1.727,1.727,0,0,0-1.749,1.75Z" transform="translate(-3.151 -7.602)" fill="#fff"/></g><g transform="translate(154.414 587.771)"><path d="M32.69,23.179A7.719,7.719,0,0,1,36.366,16.7a7.9,7.9,0,0,0-6.226-3.366c-2.619-.275-5.159,1.567-6.493,1.567-1.361,0-3.416-1.54-5.629-1.495a8.291,8.291,0,0,0-6.977,4.255c-3.017,5.223-.766,12.9,2.123,17.121,1.446,2.067,3.136,4.377,5.347,4.295,2.164-.09,2.972-1.38,5.583-1.38,2.587,0,3.346,1.38,5.6,1.328,2.322-.038,3.784-2.077,5.179-4.163a17.1,17.1,0,0,0,2.368-4.824,7.459,7.459,0,0,1-4.554-6.862Z" transform="translate(-9.609 -5.116)" fill="#fff"/><path d="M23.844,13.292a7.6,7.6,0,0,0,1.738-5.445,7.733,7.733,0,0,0-5,2.589A7.232,7.232,0,0,0,18.8,15.679,6.394,6.394,0,0,0,23.844,13.292Z" transform="translate(-5.024 -7.847)" fill="#fff"/></g></g></svg>