<svg xmlns="http://www.w3.org/2000/svg" width="24" height="22.939" viewBox="0 0 24 22.939">
  <g id="LinkedIn" transform="translate(-224 -5104)">
    <g id="linkedin-2" data-name="linkedin" transform="translate(226 5308.668)">
      <path id="Path_48" data-name="Path 48" d="M2.91-.668A2.681,2.681,0,1,0,2.843,4.68h.033A2.683,2.683,0,1,0,2.91-.668Zm0,0" transform="translate(-2 -204)" fill="#4279f1"/>
      <path id="Path_49" data-name="Path 49" d="M8.109,198.313h5.145v15.478H8.109Zm0,0" transform="translate(-9.805 -395.519)" fill="#4279f1"/>
      <path id="Path_50" data-name="Path 50" d="M231,188.625c-2.775,0-4.636,2.608-4.636,2.608v-2.245h-5.145v15.478h5.145v-8.644a3.526,3.526,0,0,1,.169-1.256,2.816,2.816,0,0,1,2.64-1.881c1.862,0,2.606,1.419,2.606,3.5v8.28h5.144v-8.875c0-4.754-2.538-6.967-5.923-6.967Zm0,0" transform="translate(-214.92 -386.195)" fill="#4279f1"/>
    </g>
    <path id="Path_3538" data-name="Path 3538" d="M2.91-.668A2.681,2.681,0,1,0,2.843,4.68h.033A2.683,2.683,0,1,0,2.91-.668Zm0,0" transform="translate(224 5104.668)" fill="#4279f1"/>
    <path id="Path_3539" data-name="Path 3539" d="M8.109,198.313h5.145v15.478H8.109Zm0,0" transform="translate(216.194 4913.148)" fill="#4279f1"/>
    <path id="Path_3540" data-name="Path 3540" d="M231,188.625c-2.775,0-4.636,2.608-4.636,2.608v-2.245h-5.145v15.478h5.145v-8.644a3.526,3.526,0,0,1,.169-1.256,2.816,2.816,0,0,1,2.64-1.881c1.862,0,2.606,1.419,2.606,3.5v8.28h5.144v-8.875c0-4.754-2.538-6.967-5.923-6.967Zm0,0" transform="translate(11.08 4922.473)" fill="#4279f1"/>
  </g>
</svg>
