<svg xmlns="http://www.w3.org/2000/svg" width="258" height="172" viewBox="0 0 258 172">
  <g id="Any_Text" data-name="Any Text" transform="translate(-1248 -407)">
    <rect id="Rectangle_940" data-name="Rectangle 940" width="129" height="172" transform="translate(1248 407)" fill="#2af645" opacity="0"/>
    <circle id="Ellipse_62" data-name="Ellipse 62" cx="69.5" cy="69.5" r="69.5" transform="translate(1353 412)" fill="#4279f1" opacity="0.06"/>
    <rect id="Rectangle_939" data-name="Rectangle 939" width="129" height="172" transform="translate(1377 407)" fill="#2af645" opacity="0"/>
    <g id="Rectangle_865" data-name="Rectangle 865" transform="translate(1323 446)" fill="none" stroke="#4279f1" stroke-width="2">
      <rect width="41" height="53" rx="5" stroke="none"/>
      <rect x="1" y="1" width="39" height="51" rx="4" fill="none"/>
    </g>
    <g id="Rectangle_862" data-name="Rectangle 862" transform="translate(1385 446)" fill="none" stroke="#4279f1" stroke-width="2">
      <rect width="40" height="53" rx="5" stroke="none"/>
      <rect x="1" y="1" width="38" height="51" rx="4" fill="none"/>
    </g>
    <g id="Rectangle_863" data-name="Rectangle 863" transform="translate(1385 446)" fill="none" stroke="#4279f1" stroke-width="2">
      <path d="M5,0H35a5,5,0,0,1,5,5v6a0,0,0,0,1,0,0H0a0,0,0,0,1,0,0V5A5,5,0,0,1,5,0Z" stroke="none"/>
      <path d="M5,1H35a4,4,0,0,1,4,4V9a1,1,0,0,1-1,1H2A1,1,0,0,1,1,9V5A4,4,0,0,1,5,1Z" fill="none"/>
    </g>
    <g id="Ellipse_87" data-name="Ellipse 87" transform="translate(1388 451)" fill="none" stroke="#4279f1" stroke-width="2">
      <circle cx="1" cy="1" r="1" stroke="none"/>
      <circle cx="1" cy="1" fill="none"/>
    </g>
    <g id="Ellipse_88" data-name="Ellipse 88" transform="translate(1391 451)" fill="none" stroke="#4279f1" stroke-width="2">
      <circle cx="1" cy="1" r="1" stroke="none"/>
      <circle cx="1" cy="1" fill="none"/>
    </g>
    <g id="Ellipse_89" data-name="Ellipse 89" transform="translate(1394 451)" fill="none" stroke="#4279f1" stroke-width="2">
      <circle cx="1" cy="1" r="1" stroke="none"/>
      <circle cx="1" cy="1" fill="none"/>
    </g>
    <g id="Rectangle_864" data-name="Rectangle 864" transform="translate(1399 449)" fill="none" stroke="#4279f1" stroke-width="2">
      <rect width="23" height="5" rx="2.5" stroke="none"/>
      <rect x="1" y="1" width="21" height="3" rx="1.5" fill="none"/>
    </g>
    <line id="Line_47" data-name="Line 47" x1="9.935" transform="translate(1394.061 465.603)" fill="none" stroke="#4279f1" stroke-linecap="round" stroke-linejoin="round" stroke-width="2"/>
    <line id="Line_48" data-name="Line 48" x1="9.935" transform="translate(1394.061 473.39)" fill="none" stroke="#4279f1" stroke-linecap="round" stroke-linejoin="round" stroke-width="2"/>
    <rect id="Rectangle_859" data-name="Rectangle 859" width="8.545" height="7.786" transform="translate(1407.908 465.604)" fill="none" stroke="#4279f1" stroke-linecap="round" stroke-linejoin="round" stroke-width="2"/>
    <text id="Web" transform="translate(1405.473 489.452)" fill="#4279f1" font-size="9" font-family="OpenSans-Bold, Open Sans" font-weight="700"><tspan x="-9.857" y="0">Web</tspan></text>
    <g id="Path_3406" data-name="Path 3406" transform="translate(1323 446)" fill="none">
      <path d="M5,0H36a5,5,0,0,1,5,5v6H0V5A5,5,0,0,1,5,0Z" stroke="none"/>
      <path d="M 5 2 C 3.345790863037109 2 2 3.345789909362793 2 5 L 2 9 L 39 9 L 39 5 C 39 3.345789909362793 37.65420913696289 2 36 2 L 5 2 M 5 0 L 36 0 C 38.76142120361328 0 41 2.238579750061035 41 5 L 41 11 L 0 11 L 0 5 C 0 2.238579750061035 2.238571166992188 0 5 0 Z" stroke="none" fill="#4279f1"/>
    </g>
    <g id="Ellipse_90" data-name="Ellipse 90" transform="translate(1327 451)" fill="none" stroke="#4279f1" stroke-width="2">
      <circle cx="1" cy="1" r="1" stroke="none"/>
      <circle cx="1" cy="1" fill="none"/>
    </g>
    <g id="Ellipse_91" data-name="Ellipse 91" transform="translate(1330 451)" fill="none" stroke="#4279f1" stroke-width="2">
      <circle cx="1" cy="1" r="1" stroke="none"/>
      <circle cx="1" cy="1" fill="none"/>
    </g>
    <g id="Ellipse_92" data-name="Ellipse 92" transform="translate(1333 451)" fill="none" stroke="#4279f1" stroke-width="2">
      <circle cx="1" cy="1" r="1" stroke="none"/>
      <circle cx="1" cy="1" fill="none"/>
    </g>
    <g id="Rectangle_867" data-name="Rectangle 867" transform="translate(1338 449)" fill="none" stroke="#4279f1" stroke-width="2">
      <rect width="23" height="5" rx="2.5" stroke="none"/>
      <rect x="1" y="1" width="21" height="3" rx="1.5" fill="none"/>
    </g>
    <line id="Line_47-2" data-name="Line 47" x1="9.935" transform="translate(1332.777 465.603)" fill="none" stroke="#4279f1" stroke-linecap="round" stroke-linejoin="round" stroke-width="2"/>
    <line id="Line_48-2" data-name="Line 48" x1="9.935" transform="translate(1332.777 473.39)" fill="none" stroke="#4279f1" stroke-linecap="round" stroke-linejoin="round" stroke-width="2"/>
    <rect id="Rectangle_859-2" data-name="Rectangle 859" width="8.545" height="7.786" transform="translate(1346.625 465.604)" fill="none" stroke="#4279f1" stroke-linecap="round" stroke-linejoin="round" stroke-width="2"/>
    <text id="Blogs" transform="translate(1343.598 489.452)" fill="#4279f1" font-size="9" font-family="OpenSans-Bold, Open Sans" font-weight="700"><tspan x="-11.962" y="0">Blogs</tspan></text>
    <g id="Group_3186" data-name="Group 3186" transform="translate(1354.621 513)">
      <path id="Path_3374" data-name="Path 3374" d="M447.105,179.1a3.323,3.323,0,0,0,3.323,3.323H482.99a3.322,3.322,0,0,0,3.322-3.323V134.243a3.323,3.323,0,0,0-3.322-3.323H458.641l-11.536,11.536Z" transform="translate(-447.105 -130.92)" fill="none" stroke="#4279f1" stroke-linecap="round" stroke-linejoin="round" stroke-width="2"/>
      <path id="Path_3375" data-name="Path 3375" d="M447.105,142.456h8.214a3.322,3.322,0,0,0,3.322-3.323V130.92Z" transform="translate(-447.105 -130.92)" fill="#4279f1" stroke="#4279f1" stroke-linecap="round" stroke-linejoin="round" stroke-width="2"/>
      <line id="Line_45" data-name="Line 45" x1="22.394" transform="translate(8.407 18.667)" fill="none" stroke="#4279f1" stroke-linecap="round" stroke-linejoin="round" stroke-width="2"/>
      <line id="Line_46" data-name="Line 46" x1="22.394" transform="translate(8.407 26.453)" fill="none" stroke="#4279f1" stroke-linecap="round" stroke-linejoin="round" stroke-width="2"/>
      <rect id="Rectangle_857" data-name="Rectangle 857" width="35.757" height="11.928" rx="2.498" transform="translate(8.407 33.328)" fill="#4279f1" stroke="#4279f1" stroke-width="2"/>
      <text id="TXT" transform="translate(25.404 42.802)" fill="#fff" font-size="10" font-family="OpenSans, Open Sans"><tspan x="-8.418" y="0">TXT</tspan></text>
    </g>
    <path id="Path_3379" data-name="Path 3379" d="M359.68,179.1A3.323,3.323,0,0,0,363,182.422h32.562a3.322,3.322,0,0,0,3.322-3.323V134.243a3.323,3.323,0,0,0-3.322-3.323H371.216L359.68,142.456Z" transform="translate(933.32 382.08)" fill="none" stroke="#4279f1" stroke-linecap="round" stroke-linejoin="round" stroke-width="2"/>
    <path id="Path_3380" data-name="Path 3380" d="M359.68,142.456h8.214a3.323,3.323,0,0,0,3.323-3.323V130.92Z" transform="translate(933.32 382.08)" fill="#4279f1" stroke="#4279f1" stroke-linecap="round" stroke-linejoin="round" stroke-width="2"/>
    <rect id="Rectangle_858" data-name="Rectangle 858" width="35.757" height="11.928" rx="2.498" transform="translate(1301.406 546.328)" fill="#4279f1" stroke="#4279f1" stroke-width="2"/>
    <line id="Line_47-3" data-name="Line 47" x1="9.935" transform="translate(1301.738 531.749)" fill="none" stroke="#4279f1" stroke-linecap="round" stroke-linejoin="round" stroke-width="2"/>
    <line id="Line_48-3" data-name="Line 48" x1="9.935" transform="translate(1301.738 539.535)" fill="none" stroke="#4279f1" stroke-linecap="round" stroke-linejoin="round" stroke-width="2"/>
    <rect id="Rectangle_859-3" data-name="Rectangle 859" width="8.545" height="7.786" transform="translate(1315.586 531.75)" fill="none" stroke="#4279f1" stroke-linecap="round" stroke-linejoin="round" stroke-width="2"/>
    <text id="PDF" transform="translate(1318.946 555.802)" fill="#fff" font-size="10" font-family="OpenSans, Open Sans"><tspan x="-9.236" y="0">PDF</tspan></text>
    <g id="Group_3190" data-name="Group 3190" transform="translate(1415.904 513)">
      <path id="Path_3374-2" data-name="Path 3374" d="M447.105,179.1a3.323,3.323,0,0,0,3.323,3.323H482.99a3.322,3.322,0,0,0,3.322-3.323V134.243a3.323,3.323,0,0,0-3.322-3.323H458.641l-11.536,11.536Z" transform="translate(-447.105 -130.92)" fill="none" stroke="#4279f1" stroke-linecap="round" stroke-linejoin="round" stroke-width="2"/>
      <path id="Path_3375-2" data-name="Path 3375" d="M447.105,142.456h8.214a3.322,3.322,0,0,0,3.322-3.323V130.92Z" transform="translate(-447.105 -130.92)" fill="#4279f1" stroke="#4279f1" stroke-linecap="round" stroke-linejoin="round" stroke-width="2"/>
      <line id="Line_45-2" data-name="Line 45" x1="22.394" transform="translate(8.407 18.667)" fill="none" stroke="#4279f1" stroke-linecap="round" stroke-linejoin="round" stroke-width="2"/>
      <line id="Line_46-2" data-name="Line 46" x1="22.394" transform="translate(8.407 26.453)" fill="none" stroke="#4279f1" stroke-linecap="round" stroke-linejoin="round" stroke-width="2"/>
      <rect id="Rectangle_857-2" data-name="Rectangle 857" width="35.757" height="11.928" rx="2.498" transform="translate(8.407 33.328)" fill="#4279f1" stroke="#4279f1" stroke-width="2"/>
      <text id="DOCX" transform="translate(25.833 42.802)" fill="#fff" font-size="10" font-family="OpenSans, Open Sans"><tspan x="-13.579" y="0">DOCX</tspan></text>
    </g>
    <circle id="Ellipse_85" data-name="Ellipse 85" cx="26.5" cy="26.5" r="26.5" transform="translate(1448 412)" fill="#ffc85e" opacity="0.33"/>
  </g>
</svg>
