<svg xmlns="http://www.w3.org/2000/svg" width="207" height="154" viewBox="0 0 207 161.502"><g transform="translate(-1477 -1428)"><path d="M69.5,0A69.5,69.5,0,1,1,0,69.5,69.5,69.5,0,0,1,69.5,0Z" transform="translate(1543 1428)" fill="#4279f1" opacity="0.06"/><circle cx="26.5" cy="26.5" r="26.5" transform="translate(1631 1428)" fill="#ffc85e" opacity="0.33"/><g transform="translate(-231 -504)"><g transform="translate(1739 1974)" fill="none" stroke="#4279f1" stroke-width="2"><rect width="41" height="53" rx="5" stroke="none"/><rect x="1" y="1" width="39" height="51" rx="4" fill="none"/></g><g transform="translate(1801 1974)" fill="none" stroke="#4279f1" stroke-width="2"><rect width="40" height="53" rx="5" stroke="none"/><rect x="1" y="1" width="38" height="51" rx="4" fill="none"/></g><g transform="translate(1801 1974)" fill="none" stroke="#4279f1" stroke-width="2"><path d="M5,0H35a5,5,0,0,1,5,5v6a0,0,0,0,1,0,0H0a0,0,0,0,1,0,0V5A5,5,0,0,1,5,0Z" stroke="none"/><path d="M5,1H35a4,4,0,0,1,4,4V9a1,1,0,0,1-1,1H2A1,1,0,0,1,1,9V5A4,4,0,0,1,5,1Z" fill="none"/></g><g transform="translate(1804 1979)" fill="none" stroke="#4279f1" stroke-width="2"><circle cx="1" cy="1" r="1" stroke="none"/><circle cx="1" cy="1" fill="none"/></g><g transform="translate(1807 1979)" fill="none" stroke="#4279f1" stroke-width="2"><circle cx="1" cy="1" r="1" stroke="none"/><circle cx="1" cy="1" fill="none"/></g><g transform="translate(1810 1979)" fill="none" stroke="#4279f1" stroke-width="2"><circle cx="1" cy="1" r="1" stroke="none"/><circle cx="1" cy="1" fill="none"/></g><g transform="translate(1815 1977)" fill="none" stroke="#4279f1" stroke-width="2"><rect width="23" height="5" rx="2.5" stroke="none"/><rect x="1" y="1" width="21" height="3" rx="1.5" fill="none"/></g><line x1="9.935" transform="translate(1810.061 1993.603)" fill="none" stroke="#4279f1" stroke-linecap="round" stroke-linejoin="round" stroke-width="2"/><line x1="9.935" transform="translate(1810.061 2001.39)" fill="none" stroke="#4279f1" stroke-linecap="round" stroke-linejoin="round" stroke-width="2"/><rect width="8.545" height="7.786" transform="translate(1823.909 1993.604)" fill="none" stroke="#4279f1" stroke-linecap="round" stroke-linejoin="round" stroke-width="2"/><text transform="translate(1821.473 2017.452)" fill="#4279f1" font-size="9" font-family="Open Sans-Bold, Open Sans" font-weight="700"><tspan x="-9.767" y="0">Web</tspan></text><g transform="translate(1739 1974)" fill="none"><path d="M5,0H36a5,5,0,0,1,5,5v6H0V5A5,5,0,0,1,5,0Z" stroke="none"/><path d="M 5 2 C 3.345790863037109 2 2 3.345789909362793 2 5 L 2 9 L 39 9 L 39 5 C 39 3.345789909362793 37.65420913696289 2 36 2 L 5 2 M 5 0 L 36 0 C 38.76142120361328 0 41 2.238579750061035 41 5 L 41 11 L 0 11 L 0 5 C 0 2.238579750061035 2.238571166992188 0 5 0 Z" stroke="none" fill="#4279f1"/></g><g transform="translate(1743 1979)" fill="none" stroke="#4279f1" stroke-width="2"><circle cx="1" cy="1" r="1" stroke="none"/><circle cx="1" cy="1" fill="none"/></g><g transform="translate(1746 1979)" fill="none" stroke="#4279f1" stroke-width="2"><circle cx="1" cy="1" r="1" stroke="none"/><circle cx="1" cy="1" fill="none"/></g><g transform="translate(1749 1979)" fill="none" stroke="#4279f1" stroke-width="2"><circle cx="1" cy="1" r="1" stroke="none"/><circle cx="1" cy="1" fill="none"/></g><g transform="translate(1754 1977)" fill="none" stroke="#4279f1" stroke-width="2"><rect width="23" height="5" rx="2.5" stroke="none"/><rect x="1" y="1" width="21" height="3" rx="1.5" fill="none"/></g><line x1="9.935" transform="translate(1748.778 1993.603)" fill="none" stroke="#4279f1" stroke-linecap="round" stroke-linejoin="round" stroke-width="2"/><line x1="9.935" transform="translate(1748.778 2001.39)" fill="none" stroke="#4279f1" stroke-linecap="round" stroke-linejoin="round" stroke-width="2"/><rect width="8.545" height="7.786" transform="translate(1762.625 1993.604)" fill="none" stroke="#4279f1" stroke-linecap="round" stroke-linejoin="round" stroke-width="2"/><text transform="translate(1759.598 2017.452)" fill="#4279f1" font-size="9" font-family="Open Sans-Bold, Open Sans" font-weight="700"><tspan x="-11.962" y="0">Blogs</tspan></text><g transform="translate(0 66)"><g transform="translate(1770.621 1975)"><path d="M447.105,179.1a3.323,3.323,0,0,0,3.323,3.323H482.99a3.322,3.322,0,0,0,3.322-3.323V134.243a3.323,3.323,0,0,0-3.322-3.323H458.641l-11.536,11.536Z" transform="translate(-447.105 -130.92)" fill="none" stroke="#4279f1" stroke-linecap="round" stroke-linejoin="round" stroke-width="2"/><path d="M447.105,142.456h8.214a3.322,3.322,0,0,0,3.322-3.323V130.92Z" transform="translate(-447.105 -130.92)" fill="#4279f1" stroke="#4279f1" stroke-linecap="round" stroke-linejoin="round" stroke-width="2"/><line x1="22.394" transform="translate(8.407 18.667)" fill="none" stroke="#4279f1" stroke-linecap="round" stroke-linejoin="round" stroke-width="2"/><line x1="22.394" transform="translate(8.407 26.453)" fill="none" stroke="#4279f1" stroke-linecap="round" stroke-linejoin="round" stroke-width="2"/><rect width="35.757" height="11.928" rx="2.498" transform="translate(8.407 33.328)" fill="#4279f1" stroke="#4279f1" stroke-width="2"/><text transform="translate(25.404 42.802)" fill="#fff" font-size="10" font-family="Open Sans, Open Sans"><tspan x="-8.418" y="0">TXT</tspan></text></g><path d="M359.68,179.1A3.323,3.323,0,0,0,363,182.422h32.562a3.322,3.322,0,0,0,3.322-3.323V134.243a3.323,3.323,0,0,0-3.322-3.323H371.216L359.68,142.456Z" transform="translate(1349.32 1844.08)" fill="none" stroke="#4279f1" stroke-linecap="round" stroke-linejoin="round" stroke-width="2"/><path d="M359.68,142.456h8.214a3.323,3.323,0,0,0,3.323-3.323V130.92Z" transform="translate(1349.32 1844.08)" fill="#4279f1" stroke="#4279f1" stroke-linecap="round" stroke-linejoin="round" stroke-width="2"/><rect width="35.757" height="11.928" rx="2.498" transform="translate(1717.406 2008.328)" fill="#4279f1" stroke="#4279f1" stroke-width="2"/><line x1="9.935" transform="translate(1717.738 1993.749)" fill="none" stroke="#4279f1" stroke-linecap="round" stroke-linejoin="round" stroke-width="2"/><line x1="9.935" transform="translate(1717.738 2001.535)" fill="none" stroke="#4279f1" stroke-linecap="round" stroke-linejoin="round" stroke-width="2"/><rect width="8.545" height="7.786" transform="translate(1731.586 1993.75)" fill="none" stroke="#4279f1" stroke-linecap="round" stroke-linejoin="round" stroke-width="2"/><text transform="translate(1734.946 2017.802)" fill="#fff" font-size="10" font-family="Open Sans, Open Sans"><tspan x="-9.236" y="0">PDF</tspan></text><g transform="translate(1831.904 1975)"><path d="M447.105,179.1a3.323,3.323,0,0,0,3.323,3.323H482.99a3.322,3.322,0,0,0,3.322-3.323V134.243a3.323,3.323,0,0,0-3.322-3.323H458.641l-11.536,11.536Z" transform="translate(-447.105 -130.92)" fill="none" stroke="#4279f1" stroke-linecap="round" stroke-linejoin="round" stroke-width="2"/><path d="M447.105,142.456h8.214a3.322,3.322,0,0,0,3.322-3.323V130.92Z" transform="translate(-447.105 -130.92)" fill="#4279f1" stroke="#4279f1" stroke-linecap="round" stroke-linejoin="round" stroke-width="2"/><line x1="22.394" transform="translate(8.407 18.667)" fill="none" stroke="#4279f1" stroke-linecap="round" stroke-linejoin="round" stroke-width="2"/><line x1="22.394" transform="translate(8.407 26.453)" fill="none" stroke="#4279f1" stroke-linecap="round" stroke-linejoin="round" stroke-width="2"/><rect width="35.757" height="11.928" rx="2.498" transform="translate(8.407 33.328)" fill="#4279f1" stroke="#4279f1" stroke-width="2"/><text transform="translate(25.833 42.802)" fill="#fff" font-size="10" font-family="Open Sans, Open Sans"><tspan x="-13.579" y="0">DOCX</tspan></text></g></g></g></g></svg>