<svg xmlns="http://www.w3.org/2000/svg" width="81.781" height="68.717" viewBox="0 0 81.781 68.717">
    <defs>
        <style>
            .cls-2,.cls-9{fill:#4279f1}.cls-10,.cls-2,.cls-3,.cls-4,.cls-5,.cls-7{fill-rule:evenodd}.cls-3{fill:#c7d5f0}.cls-4{fill:#eff1fb}.cls-5{fill:#bfbba9}.cls-7{fill:#ffc85e}.cls-10{fill:#1f5feb}
        </style>
    </defs>
    <g id="Group_2907" data-name="Group 2907" transform="translate(-152.406 -28.69)">
        <ellipse id="Ellipse_22" cx="39.591" cy="3.092" fill="#cececc" data-name="Ellipse 22" rx="39.591" ry="3.092" transform="translate(152.406 91.223)"/>
        <path id="Path_569" d="M782.074 679.5H757a3.849 3.849 0 0 1-2.666-4.359c.5-3.455 3.709-3.108 7.491-2.5s18.9 2.193 18.9 2.193z" class="cls-2" data-name="Path 569" transform="translate(-568.989 -584.19)"/>
        <path id="Path_570" d="M697.131 428.238l-40.057-9.586s-4.273-1.253-1.627-8.8 6.078-17.391 9.7-20.186 13.2-.86 17.663.175 14.094 3.342 18.387 4.823c3.652 1.26 5.654 4.285 4.081 9.7s-8.147 23.874-8.147 23.874z" class="cls-3" data-name="Path 570" transform="translate(-490.128 -359.53)"/>
        <path id="Path_571" d="M665.087 420.565s-4.343-1.273-1.653-8.944 3.462-15.944 7.659-19.636c2.527-2.223 7.814-2.541 11.5-2.195-4.548-1.044-13.89-2.878-17.452-.126-3.618 2.794-7.049 12.639-9.7 20.186s1.627 8.8 1.627 8.8l40.057 9.586z" class="cls-4" data-name="Path 571" transform="translate(-490.128 -359.529)"/>
        <path id="Path_572" d="M719.189 418.806c-1.087 3.658-3.4 11.759-3.876 14.585s.524 5.252 3.876 6.2c2.383.677 14.533 2.741 21.362 3.878a5.378 5.378 0 0 0 6.035-3.761l4.194-13.977c.779-2.6 1.43-5.8-3.356-7.363s-15.775-3.963-20.069-4.753-6.907.953-8.166 5.191z" class="cls-4" data-name="Path 572" transform="translate(-538.077 -379.474)"/>
        <path id="Path_573" d="M839.52 438.614c3.1 1.692 2.521 4.44 1.837 6.721l-4.194 13.977a5.378 5.378 0 0 1-6.036 3.761l-.587-.1c.009.071.021.142.029.213l1.215.2a5.378 5.378 0 0 0 6.036-3.761l4.194-13.977c.728-2.425 1.343-5.385-2.494-7.034z" class="cls-2" data-name="Path 573" transform="translate(-629.31 -399.391)"/>
        <path id="Path_574" d="M635.763 533.931l41.429 9.2-6.277 23.98a3.717 3.717 0 0 1-3.6 2.776h-34.229a6.488 6.488 0 0 1-6.423-7.4l3.517-24.687a4.627 4.627 0 0 1 5.583-3.869z" class="cls-3" data-name="Path 574" transform="translate(-467.993 -474.698)"/>
        <path id="Path_575" d="M810.017 667.634c-.414-.011-.838-.033-1.265-.046-.509.49-1 1-1.512 1.484-.711.68-1.414 1.368-2.065 2.1a11.835 11.835 0 0 0-.593 1.03c-.41 1.144-.734 2.315-1.05 3.49h3.741a3.717 3.717 0 0 0 3.6-2.776l1.351-5.162c-.736-.06-1.471-.1-2.207-.12z" class="cls-3" data-name="Path 575" transform="translate(-607.947 -580.508)"/>
        <path id="Path_576" d="M637.872 563.526l3.663-25.72a4.788 4.788 0 0 1 1.037-2.363l-6.809-1.512a4.627 4.627 0 0 0-5.583 3.864l-3.516 24.689a6.488 6.488 0 0 0 6.423 7.4h7.422a6.749 6.749 0 0 1-2.637-6.358z" class="cls-4" data-name="Path 576" transform="translate(-467.993 -474.698)"/>
        <path id="Path_577" d="M693.794 679.5h-25.073a3.849 3.849 0 0 1-2.666-4.359c.5-3.455 3.709-3.108 7.491-2.5s18.9 2.193 18.9 2.193z" class="cls-2" data-name="Path 577" transform="translate(-499.161 -584.19)"/>
        <path id="Path_578" d="M882.225 510.561l-13.778 7.416-10.293 27.58 11.1-3.016z" class="cls-5" data-name="Path 578" transform="translate(-651.152 -456.301)"/>
        <path id="Path_579" fill="#ada999" fill-rule="evenodd" d="M883.009 518.05l-15.659 6.242-10.577 27.3 13.994-3.679z" data-name="Path 579" transform="translate(-650.059 -462.224)"/>
        <path id="Path_580" d="M772.358 502.487l21.309 9.494-9.92 27.3-20.127-8.047z" class="cls-5" data-name="Path 580" transform="translate(-576.376 -449.914)"/>
        <path id="Path_581" d="M753.8 510.973l-10.472 28.966 21.533 6.88 10.839-28.291z" class="cls-7" data-name="Path 581" transform="translate(-560.328 -456.627)"/>
        <path id="Path_582" d="M875.782 533.022L864.377 561.3l13.747-3.834 12.137-28.422z" class="cls-7" data-name="Path 582" transform="translate(-656.074 -470.922)"/>
        <path id="Path_583" fill="#ffb322" fill-rule="evenodd" d="M857.192 547.117l4.335.2-11.405 28.283-3.767-.187z" data-name="Path 583" transform="translate(-641.819 -485.216)"/>
        <path id="Path_584" d="M746.664 564.9l-1.059 2.93 2.782.816a1.373 1.373 0 0 1 .961 1.579 1.311 1.311 0 0 1-1.49.991l-3.345-.108.189.251 2.746.442a1.271 1.271 0 0 1 .922 1.642 1.3 1.3 0 0 1-1.405.879l-3.24-.078.281.222 1.988.337a.985.985 0 0 1 .764 1.232 1.117 1.117 0 0 1-1.093.878 20.672 20.672 0 0 1-3.262-.229c-1.708-.3-3.761-2.578-2.6-6.286s3.022-5.766 6.861-5.498z" class="cls-2" data-name="Path 584" transform="translate(-557.27 -499.261)"/>
        <path id="Path_586" d="M658.1 551.46c-.025.036-.106.188-.16.293l-.179.364c-.117.248-.227.5-.331.76a13.316 13.316 0 0 0-.516 1.563 8.387 8.387 0 0 0-.282 3 4.461 4.461 0 0 0 .968 2.391 6.277 6.277 0 0 0 2.357 1.691 6.787 6.787 0 0 0 2.931.629 7.351 7.351 0 0 0 3-.747 12.073 12.073 0 0 0 2.819-1.9 16.289 16.289 0 0 0 1.263-1.244c.2-.22.395-.444.581-.672s.381-.481.508-.659l.044-.062a1.643 1.643 0 0 1 2.735 1.818c-.229.37-.414.634-.63.935s-.428.572-.652.85a19.8 19.8 0 0 1-1.439 1.592 15.7 15.7 0 0 1-3.519 2.667 11.224 11.224 0 0 1-4.481 1.38 10.9 10.9 0 0 1-4.726-.7 10.6 10.6 0 0 1-4.1-2.634 9.028 9.028 0 0 1-2.27-4.625 13.045 13.045 0 0 1 .109-4.779 18.147 18.147 0 0 1 .579-2.2c.119-.357.246-.71.387-1.063l.221-.53c.085-.19.146-.332.275-.584l.089-.175a2.574 2.574 0 0 1 4.585 2.343 2.883 2.883 0 0 1-.166.298z" class="cls-9" data-name="Path 586" transform="translate(-487.969 -485.461)"/>
        <path id="Path_587" d="M796.85 625.979s-5.323-2.476-7.9 4.918a67.1 67.1 0 0 0-2.413 8.546 2.612 2.612 0 0 0 2.557 3.142h.57l1.778-3.181z" class="cls-2" data-name="Path 587" transform="translate(-594.459 -547.281)"/>
        <path id="Path_588" d="M795.513 643.758h1.577a2.42 2.42 0 0 0 2.157-1.316c1.9-3.709 6.858-14.06 3.791-15.29s-7.249 10.65-8.676 15.026a1.207 1.207 0 0 0 1.151 1.58z" class="cls-10" data-name="Path 588" transform="translate(-600.645 -548.453)"/>
        <path id="Path_589" d="M882.31 625.979s-5.323-2.476-7.9 4.918a67.142 67.142 0 0 0-2.413 8.546 2.612 2.612 0 0 0 2.557 3.142h.57l1.776-3.185z" class="cls-2" data-name="Path 589" transform="translate(-662.056 -547.281)"/>
        <path id="Path_590" d="M880.972 643.758h1.577a2.419 2.419 0 0 0 2.157-1.316c1.9-3.709 6.858-14.06 3.791-15.29s-7.249 10.65-8.675 15.026a1.207 1.207 0 0 0 1.15 1.58z" class="cls-10" data-name="Path 590" transform="translate(-668.243 -548.453)"/>
        <ellipse id="Ellipse_23" cx="6.08" cy="5.7" class="cls-9" data-name="Ellipse 23" rx="6.08" ry="5.7" transform="translate(181.089 67.414)"/>
        <circle id="Ellipse_24" cx="4.18" cy="4.18" r="4.18" class="cls-9" data-name="Ellipse 24" transform="translate(222.89 68.934)"/>
        <path id="Path_593" d="M770.574 513.472a.538.538 0 0 1-.3-.09 11.248 11.248 0 0 1-1.984-1.65.54.54 0 0 1 .8-.724 10.354 10.354 0 0 0 1.779 1.473.54.54 0 0 1-.3.99z" class="cls-9" data-name="Path 593" transform="translate(-579.961 -456.514)"/>
        <g id="Group_223" data-name="Group 223" transform="translate(188.883 44.383)">
            <path id="Path_591" d="M773.218 465.175c-.353.867-.768 1.517-1.273 1.311s-.63-1.075-.277-1.942 1.048-1.4 1.554-1.2.349.964-.004 1.831z" class="cls-2" data-name="Path 591" transform="translate(-771.468 -463.304)"/>
            <path id="Path_592" d="M839.926 488.217c.413-.84.872-1.459 1.362-1.218s.552 1.117.14 1.956-1.144 1.325-1.634 1.085-.281-.983.132-1.823z" class="cls-2" data-name="Path 592" transform="translate(-825.288 -482.005)"/>
        </g>
    </g>
</svg>
