<svg xmlns="http://www.w3.org/2000/svg" width="366.802" height="408.629" viewBox="0 0 366.802 408.629"><g transform="translate(-672.636 359.448)"><path d="M706.187-183.756l-14.926-13.682a10.1,10.1,0,0,1-3.11-6.376c-.155-3.731.466-13.059.466-13.059l7,5.286.855,7.93,10.22,6.023Z" fill="#ee8b83" fill-rule="evenodd"/><path d="M685.231-230.827h-11.7c-.791,0-.764.646.061,1.436l66.2,63.515a5.211,5.211,0,0,0,2.934,1.436h11.7c.79,0,.763-.646-.06-1.436l-66.2-63.515A5.212,5.212,0,0,0,685.231-230.827Z" fill="#1c2244" fill-rule="evenodd"/><path d="M687.7-230.827h-3.377c-.825,0-.795.674.064,1.5L750.45-165.94a5.445,5.445,0,0,0,3.063,1.5h3.377c.825,0,.8-.675-.064-1.5l-66.067-63.387A5.435,5.435,0,0,0,687.7-230.827Z" fill="#342a60" fill-rule="evenodd"/><path d="M739.817-165.145s13.527,4.508,13.838,10.726-2.332,9.1-6.3,9.641-16.011-1.716-23.242-7.077-14.383-15.389-16.327-17.8-5.287-14.924-5.287-17.023a11.8,11.8,0,0,1,1.321-6.376c1.322-2.487,3.965-8.861,3.965-8.861a16.475,16.475,0,0,1,2.176-3.342c.778-.623,4.2-5.287,5.364-5.832s5.986,4.665,4.042,9.328-5.519,12.9-5.519,12.9l-.234,2.1,2.8,2.722,5.946-10.845s1.224-1.538,2.5-3.192,4.263-5.282,4.847-5.982,4.857-.583,5.441,2.254-3.187,10.769-3.886,12.168-5.365,11.894-5.365,11.894l.389,1.361,3.925,2.409,7.7-9.56s4.237-4.86,6.024-4.821,3.537,1.828,3.188,4.666-7.54,16.44-7.54,16.44A1.827,1.827,0,0,1,739.817-165.145Z" fill="#f2ba95" fill-rule="evenodd"/><path d="M713.173-186.776a.445.445,0,0,1,.463-.425.447.447,0,0,1,.426.465l-.273,6.3a.446.446,0,0,1-.464.426.446.446,0,0,1-.425-.465l.273-6.3Zm26,19.368a.445.445,0,0,1,.578-.247.444.444,0,0,1,.248.578,4.657,4.657,0,0,1-2.873,2.24.446.446,0,0,1-.567-.274.446.446,0,0,1,.274-.566,3.747,3.747,0,0,0,2.34-1.731Zm.2,2.263a8.172,8.172,0,0,1-3.942,6.617.445.445,0,0,0-.159.609.442.442,0,0,0,.608.158,9.12,9.12,0,0,0,4.386-7.384.447.447,0,0,0-.447-.447.447.447,0,0,0-.446.447Zm-9.549-9.032a.446.446,0,0,1,.6-.183.445.445,0,0,1,.183.6,25.547,25.547,0,0,0-1.487,3.315c-.5,1.5-1.542,5.512-1.545,5.524a.444.444,0,0,1-.537.327.443.443,0,0,1-.327-.536c0-.012,1.055-4.065,1.565-5.593a26.069,26.069,0,0,1,1.547-3.456Zm-3.979-2.182.117,2.8a.445.445,0,0,0,.461.428.446.446,0,0,0,.428-.462l-.116-2.8a.446.446,0,0,0-.462-.427.447.447,0,0,0-.428.463Zm-9.816-7.892-1.789,3.229,0,.005h0a6.652,6.652,0,0,0-.512,4.336c.461,2.423.614,4.065.614,4.068a.448.448,0,0,0,.477.414.447.447,0,0,0,.413-.477s-.158-1.7-.629-4.169a5.736,5.736,0,0,1,.422-3.751h0l1.785-3.223a.444.444,0,0,0-.173-.6A.444.444,0,0,0,716.027-184.251Z" fill="#ee8b83" fill-rule="evenodd"/><path d="M713.027-209.2a.89.89,0,0,1,.024,1.259.89.89,0,0,1-1.259.024l-21.65-20.771a5.31,5.31,0,0,0-1.318-.9,2.886,2.886,0,0,0-1.128-.347H673.529a.892.892,0,0,1-.893-.892.893.893,0,0,1,.893-.894H687.7a4.657,4.657,0,0,1,1.909.536,7.181,7.181,0,0,1,1.771,1.215Z" fill="#fff" fill-rule="evenodd"/><path d="M717.2-183.606a.892.892,0,0,1-1.21.352.89.89,0,0,1-.352-1.21l5.946-10.844a.961.961,0,0,1,.128-.178c.192-.242,1.286-1.622,2.449-3.13.486-.628,1.219-1.544,1.971-2.474,1.2-1.484,2.519-3.078,2.9-3.531a.889.889,0,0,1,1.252-.115.889.889,0,0,1,.115,1.252c-.347.418-1.618,1.961-2.881,3.517-.744.918-1.466,1.82-1.944,2.44-1.1,1.421-2.175,2.781-2.452,3.13L717.2-183.606Zm13.71,10.2,7.7-9.561c.329-.377,4-4.518,5.313-4.489a.891.891,0,0,0,.907-.873.89.89,0,0,0-.872-.906c-2.111-.046-6.33,4.69-6.687,5.1-.017.018-.033.036-.049.056l-7.7,9.56a.892.892,0,0,0,.136,1.253.891.891,0,0,0,1.251-.135Zm7.7-9.562h0Zm-15.329,31.6c.7,5.807,9.522,79.166,11.473,88.02a26.318,26.318,0,0,0,6.084,11.84,21.54,21.54,0,0,0,10.6,6.711.89.89,0,0,0,1.074-.655.891.891,0,0,0-.655-1.075,19.746,19.746,0,0,1-9.691-6.165,24.553,24.553,0,0,1-5.664-11.041c-2.013-9.138-11.463-88-11.49-88.223a.889.889,0,0,0-.394-.639c-6.044-4.495-12.076-12.356-14.92-16.063-.5-.654-.906-1.181-1.205-1.55-.76-.943-1.806-3.745-2.754-6.8a57.665,57.665,0,0,1-2.334-9.664,18.151,18.151,0,0,1,.151-2.9,9.653,9.653,0,0,1,1.065-3.054c1.282-2.412,3.8-8.463,3.988-8.915a15.393,15.393,0,0,1,1.92-3.013,20.307,20.307,0,0,0,1.88-2.12,23.164,23.164,0,0,1,3.307-3.6.893.893,0,0,0,.428-1.184.888.888,0,0,0-1.182-.428c-.912.426-2.581,2.444-3.928,4.073a24.689,24.689,0,0,1-1.614,1.87,16.339,16.339,0,0,0-2.392,3.59.811.811,0,0,0-.053.107c-.008.019-2.617,6.311-3.93,8.782a11.387,11.387,0,0,0-1.246,3.612,19.034,19.034,0,0,0-.18,3.182,58.589,58.589,0,0,0,2.417,10.187c1.006,3.239,2.156,6.261,3.069,7.4.278.343.679.866,1.177,1.516,2.851,3.714,8.85,11.534,15,16.207Z" fill="#fff" fill-rule="evenodd"/><path d="M724.116-151.855s9.483,79.138,11.5,88.31,9.024,16.168,16.016,17.879,25.34-4.508,23.629-16.791-22.388-79.445-24.1-84.264Z" fill="#f2ba95" fill-rule="evenodd"/><path d="M724.116-151.855s.2,1.652.54,4.491a6.758,6.758,0,0,1,3.046,1.09c4.973,3.015,19.792,11.753,28.982,17.164-2.844-9.3-5.011-16.187-5.516-17.611Z" fill="#ee8b83" fill-rule="evenodd"/><path d="M750.41-146.186a.891.891,0,0,1,.531-1.144.892.892,0,0,1,1.144.53c.06.164,21.079,57.572,18.457,58.315a.892.892,0,0,1-1.1-.617.891.891,0,0,1,.617-1.1C770.86-90.428,750.469-146.028,750.41-146.186Z" fill="#ee8b83" fill-rule="evenodd"/><path d="M886.167-258.321h0a31.2,31.2,0,0,1,31.108,31.106v54.548a31.2,31.2,0,0,1-31.108,31.108h0a31.2,31.2,0,0,1-31.106-31.108v-54.548A31.2,31.2,0,0,1,886.167-258.321Z" fill="#f2ba95" fill-rule="evenodd"/><path d="M917.275-215.348c-.306,15.95,48.837,7.079,64.876,12.581,0,0-22.686,49.366-9.438,85.03l-2,13.6,2.641,17.271c-9.8,46.979-14.093,61.338,5.037,106.776,4.877,11.58,1.666,17.76-6.086,27.453l.312,1.814H792.157l.312-1.814c-7.752-9.693-9.26-15.3-6.088-27.453,12.518-47.957,22.4-59.8,12.6-106.776l2.641-17.271-2-13.6C812.871-153.4,787-202.612,787-202.612c6.241-2.141,20.681-2.262,32.083-2.359,17.9-.151,36.165-.633,35.978-10.377a39.252,39.252,0,0,0,3.957,8.267c.437,1.514,23.838,32.4,27.149,36.774,3.313-4.376,26.712-35.26,27.151-36.774A39.348,39.348,0,0,0,917.275-215.348Z" fill="#674af8" fill-rule="evenodd"/><path d="M971.52-121.307q.541,1.8,1.193,3.57l-2,13.6,2.641,17.271c-7.035,33.727-11.231,50.643-5.96,74.315l0,0c-11.947-34.936-5.434-114.568-5.434-114.568Z" fill="#373eb2" fill-rule="evenodd"/><path d="M982.151-202.767s18.923,9.4,24.214,23.864,31.647,32.559,32.7,41.378-2.371,36.343-22.481,44.458-46.413-.591-51.348-11.527h0S949.218-172.907,982.151-202.767Z" fill="#674af8" fill-rule="evenodd"/><path d="M868.742-194.39c-1.457-1.931-13.464-20.958-13.464-20.958v-15.539s-18.467,3.582-21.616,5.156-14.531,20.76-14.531,20.76c6.3,2.453,12.443,13.769,19.689,19.282s34.725,17.715,37.559,18.582,9.788,2.284,9.788,2.284,6.952-1.418,9.787-2.284,30.318-13.071,37.562-18.582,13.392-16.829,19.688-19.282c0,0-11.38-19.185-14.53-20.76s-21.616-5.156-21.616-5.156v15.539s-12.009,19.027-13.466,20.958c-7.61,8.51-17.425,20-17.425,20S876.353-185.88,868.742-194.39Z" fill="#674af8" fill-rule="evenodd"/><path d="M786.83-202.767s-18.922,9.4-24.213,23.864S736.158-64.254,735.1-55.436,729.455-33.918,749.564-25.8s34.923-8.818,39.862-19.754,14.315-59.037,14.315-59.037S819.764-172.907,786.83-202.767Z" fill="#674af8" fill-rule="evenodd"/><path d="M785.816-72.991s-8.8,70.686-49.117,37.946a43.275,43.275,0,0,1-13.522-28.58c-1.134-18.143,3.022-31.94-.567-38.555s-7.938-16.254,1.607-30.9c-.871-5.823-3.037-12.4,2.717-14.327,0,0,7.39,5.8,24.447-3.826,0,0,3.735-.558,4.49,1.711s3.026,12.188,3.026,12.188,13.7,3.117,13.89,15.777-1.134,17.012,1.133,22.682S786.961-85.08,785.816-72.991Z" fill="#674af8" fill-rule="evenodd"/><path d="M723.31-79.994c.629-10.061,1.712-17.745-.7-22.186,0,0,11.39,17.582,18.384,33.836a.942.942,0,0,1-.261,1.086c-.543.379-.9.117-1.276-.4C739.133-68.106,732.112-79.537,723.31-79.994Z" fill="#373eb2" fill-rule="evenodd" opacity="0.6"/><path d="M917.058-215.348v-13c.063.007.131.016.2.026,4.226.64,15.3,3.85,14.831,4.716s-3.071,2.6-8.189,4.408-6.839,3.851-6.839,3.851Zm-61.78,0v-13c-.065.007-.131.016-.2.026-4.223.64-15.3,3.85-14.832,4.716s3.071,2.6,8.19,4.408S855.278-215.348,855.278-215.348Z" fill="#373eb2" fill-rule="evenodd" opacity="0.6"/><path d="M966.565-102.49c.109.481-.39.42-.869.529s-.606.215-.713-.266c-3.238-14.4-.543-1.816-.617-2.189-.229-.993-15.94-68.972,17.189-99.011a.89.89,0,0,1,1.255.063.888.888,0,0,1-.062,1.256C950.4-172.779,965.875-105.8,966.1-104.815l.012.053m-.012-.053.005.022-.005-.022ZM814.059,45.22a.891.891,0,1,1-1.736.4c-.01-.045-3.464-14.906.416-24.8a.892.892,0,0,1,.392-.449c.809-.514,16.379-10.625,16.745-30.787h0c0-.012-.047-4.67,6.9-4.67h98.65c6.947,0,6.9,4.658,6.9,4.67h0c.366,20.162,15.935,30.273,16.748,30.787a.893.893,0,0,1,.39.449c3.878,9.9.426,24.758.416,24.8a.891.891,0,1,1-1.737-.4c.01-.041,3.277-14.107-.241-23.49-2.131-1.418-17-12.006-17.354-32.135v-.015h-.005c0-.008.037-2.887-5.114-2.887h-98.65c-5.149,0-5.114,2.879-5.114,2.887h0v.015c-.36,20.129-15.222,30.717-17.356,32.135-3.517,9.383-.25,23.449-.24,23.49ZM833.074-226.4a1.975,1.975,0,0,0-.244.259c-1.148,1.506.748,4.832,4.469,9.133,3.457,3.995,8.5,9,14.061,14.185,13.8,12.873,30.8,26.891,34.306,29.168l.02.013.037.023a1.094,1.094,0,0,0,.149.067h0a.9.9,0,0,0,.273.05h.04a.822.822,0,0,0,.271-.05h.005a1.154,1.154,0,0,0,.149-.067l.036-.023.019-.013c3.512-2.277,20.51-16.295,34.308-29.168,5.556-5.184,10.6-10.19,14.06-14.185,2.351-2.716,3.972-5.045,4.56-6.77,3.492,3.831,10.513,15.378,12.378,18.485-1.482.987-3.96,3.141-7.173,5.937-8.48,7.375-22.2,19.309-34.9,25.208a.891.891,0,0,0-.436,1.182.891.891,0,0,0,1.181.437c12.927-6,26.769-18.042,35.32-25.482,3.859-3.352,6.617-5.752,7.549-6.126a.9.9,0,0,0,.148-.07.89.89,0,0,0,.3-1.221c-.031-.055-11.319-19.092-14.81-21.052a.94.94,0,0,0-.144-.075c-3.421-1.645-21.735-5.2-21.788-5.207a.893.893,0,0,0-1.043.708.891.891,0,0,0,.709,1.043c.052.01,17.776,3.447,21.228,5,.41.754-1.36,3.291-4.428,6.838-3.408,3.938-8.411,8.9-13.929,14.046-13.2,12.314-29.292,25.649-33.6,28.658-4.3-3.009-20.394-16.344-33.594-28.658-5.517-5.147-10.521-10.108-13.928-14.046-3.14-3.63-4.92-6.2-4.4-6.886v0a.891.891,0,0,0,.084-1.256.892.892,0,0,0-1.257-.083Zm-74.013,90.031c-2.525,1.679-18.453,11.525-35.2,4.107a.893.893,0,0,1-.457-1.178.894.894,0,0,1,1.175-.457c15.588,6.905,30.467-1.969,33.317-3.832-.5-2.158-2.233-9.621-2.865-11.515-.516-1.549-3.523-1.108-3.532-1.106a.889.889,0,0,1-1-.767.891.891,0,0,1,.766-1c.014,0,4.455-.671,5.45,2.313.665,2,2.446,9.658,2.927,11.744,2.623.756,13.857,4.672,14.033,16.492.063,4.17-.039,7.432-.121,10.137-.167,5.434-.265,8.58,1.192,12.223a29.218,29.218,0,0,0,3.8,5.771c3.948,5.19,8.985,11.817,8.158,20.529a.886.886,0,0,1-.968.8.891.891,0,0,1-.8-.971c.76-8.023-4.041-14.339-7.8-19.289a30.1,30.1,0,0,1-4.033-6.181c-1.595-3.985-1.493-7.268-1.319-12.932.084-2.7.183-5.945.122-10.066-.161-10.78-10.726-14.244-12.837-14.826ZM800-82.129c2.573-11.822,4.537-21.863,4.618-22.283.183-.789,15.992-68.931-17.188-99.015a.892.892,0,0,0-1.256.063.891.891,0,0,0,.063,1.256c32.349,29.329,16.874,96.305,16.644,97.293l-.011.053c-.005.031-1.981,10.166-4.614,22.256a.892.892,0,0,0,.685,1.06A.89.89,0,0,0,800-82.129Zm2.877-22.664,0-.022,0,.022Zm53.31-72.322a.89.89,0,0,1,.415,1.188.891.891,0,0,1-1.19.416C844.76-180.68,834.491-190.274,827.287-197c-4.007-3.743-7.044-6.58-8.477-7.137a.89.89,0,0,1-.509-1.152.892.892,0,0,1,1.15-.51c1.762.687,4.905,3.623,9.051,7.495C835.623-191.652,845.779-182.165,856.183-177.115Z" fill="#373eb2" fill-rule="evenodd"/><path d="M911.3-47.684a2.674,2.674,0,0,1-.335-3.766,2.677,2.677,0,0,1,3.768-.334c.539.448,1.041.844,1.5,1.18.435.317.979.684,1.629,1.094a2.679,2.679,0,0,1,.827,3.693,2.679,2.679,0,0,1-3.694.828q-.856-.542-1.9-1.3-1.023-.744-1.794-1.391ZM865.506-62.172a2.668,2.668,0,0,1,3.736.512,2.664,2.664,0,0,1-.511,3.734q-1.02.775-2.041,1.443l0,0c-.7.455-1.438.9-2.215,1.34a2.675,2.675,0,0,1-3.641-1.027,2.673,2.673,0,0,1,1.026-3.639q.975-.547,1.9-1.152l0,.006.007-.006C864.407-61.369,864.985-61.776,865.506-62.172Z" fill="#fff" fill-rule="evenodd" opacity="0.6"/><path d="M859.795-216.761c3.237,5.953,10.336,11.225,13.273,13.368a25.671,25.671,0,0,0,11.411,4.3,25.677,25.677,0,0,0,12.155-.961c3.207-1.167,16.508-9.106,16.508-9.106s.207-.328,3.916-6.184c-.012-3.265,0-7.534,0-7.534l-3.823,1.937V-226.7a9.019,9.019,0,0,1-.159-1.171v-53.847a9.135,9.135,0,0,0-8.944-7.417H869.963c-5.006,0-13.82,53.349-14.685,58.253v5.989C855.263-224.66,858.2-219.694,859.795-216.761Z" fill="#ee8b83" fill-rule="evenodd" opacity="0.6"/><path d="M851.252-280.021s-3.419-5.028-6.247-5.2-7.224,5.248-7.538,9.82,2.51,21.067,12.608,16.548S851.252-280.021,851.252-280.021Z" fill="#f2ba95" fill-rule="evenodd"/><path d="M853.976-274.548a1.03,1.03,0,0,1,.02,1.213.566.566,0,0,1-.871.011h0s-4.648,13.5-6.368,11.011-3.559-4.908-3.874-8.565,3.322-6.4,2.334-7.5c-.941-1.045-2.312.144-2.439.258l-.006,0v0h0a9.292,9.292,0,0,0-1.74,2.39.569.569,0,0,1-.926.193,1.057,1.057,0,0,1-.238-1.2c.007-.014,2.415-5.039,6.259-4.262C849.8-280.243,853.964-274.563,853.976-274.548Z" fill="#ee8b83" fill-rule="evenodd"/><path d="M937.825-266.327s4.822-3.705,7.563-2.988,5.216,7.247,4.083,11.688-8.982,19.221-17.157,11.766S937.825-266.327,937.825-266.327Z" fill="#f2ba95" fill-rule="evenodd"/><path d="M933.523-261.979a1.029,1.029,0,0,0-.4,1.145.566.566,0,0,0,.823.285h0s.188,14.274,2.6,12.451,4.917-3.549,6.361-6.921-1.149-7.119.133-7.851c1.22-.7,2.15.862,2.234,1.008l0,.007,0,0h0a9.308,9.308,0,0,1,.9,2.815.567.567,0,0,0,.819.472,1.057,1.057,0,0,0,.6-1.066c0-.014-.716-5.543-4.61-6.005C939.276-266.079,933.54-261.991,933.523-261.979Z" fill="#ee8b83" fill-rule="evenodd"/><path d="M904.273-336.532c-57.561-7.9-55.913,38.092-56.33,74.91a47.915,47.915,0,0,0,6.852,25.732s14.024,16.674,19.162,20.5a25.337,25.337,0,0,0,11.227,4.361,25.341,25.341,0,0,0,12.016-.825c6.044-2.129,24.391-13.881,24.391-13.881a47.91,47.91,0,0,0,14.193-22.531C946.333-283.538,961.579-326.962,904.273-336.532Z" fill="#f2ba95" fill-rule="evenodd"/><path d="M904.273-336.532c-40.39-5.544-51.626,15.448-54.881,41.184,7.3,2.448,19.9,1.115,25.53-1.309,1.961-.843,1.493-2.255,1.493-2.255-2.7-11.525,8.04-19.291,8.04-19.291-5.986,31.043,30.788,26.635,30.788,26.635s11.983,10.649,29.31,9.632l.054-.005C948.84-307.071,943.932-329.91,904.273-336.532Z" fill="#ee8b83" fill-rule="evenodd"/><path d="M878.742-285.7a3.963,3.963,0,0,0,2.385.116,4.456,4.456,0,0,0,2.378-2.57c0-.442-.705.17-2.739-1.085-2-1.232-9.554-4.562-15.685.308-1.055.84-.443,1.676.784,1.433A15.4,15.4,0,0,1,878.742-285.7Z" fill="#404257" fill-rule="evenodd"/><path d="M913.444-280.407a3.957,3.957,0,0,1-2.278-.718,4.439,4.439,0,0,1-1.339-3.234c.153-.414.6.4,2.944-.068,2.3-.463,10.542-.969,14.606,5.724.7,1.155-.166,1.725-1.232,1.073A15.386,15.386,0,0,0,913.444-280.407Z" fill="#404257" fill-rule="evenodd"/><path d="M876.244-270.28a4.181,4.181,0,0,0,2.474.437,4.68,4.68,0,0,0,2.819-2.368c.056-.461-.758.086-2.714-1.492-1.922-1.55-9.363-6.02-16.4-1.75-1.212.738-.684,1.689.628,1.6A16.181,16.181,0,0,1,876.244-270.28Z" fill="#404257" fill-rule="evenodd"/><path d="M910.923-265.348a4.187,4.187,0,0,1-2.439-.6,4.677,4.677,0,0,1-1.617-3.306c.133-.444.657.384,3.085-.266,2.384-.637,11-1.712,15.7,5.043.811,1.165-.058,1.822-1.22,1.206A16.187,16.187,0,0,0,910.923-265.348Z" fill="#404257" fill-rule="evenodd"/><path d="M848.07-273.05s5.782-5.483,4.227-15.742c0,0,13.839-12.112,11.15-22.233s-5.953-10.056-5.953-10.056-2.474.762-6.058,4.327-7.079,13.325-8.329,32.077C843.107-284.677,848.386-283.354,848.07-273.05Z" fill="#332966" fill-rule="evenodd"/><path d="M938.827-258.676s-3.805-7,.843-16.277c0,0-9.418-15.8-3.734-24.59s8.771-7.725,8.771-7.725,2.942,7.036,5.249,11.535,3.918,10.293-2.816,27.533C947.14-268.2,941.711-268.573,938.827-258.676Z" fill="#332966" fill-rule="evenodd"/><path d="M845.246-301.58c-1.964-2.861-6.1-19.446-3.267-28.114s23.509-24.931,34.428-28.393,18.723.081,21.655,6.121c0,0,14.886-11.393,30.849,5.367,0,0,11.617.3,19.156,8.512s14.612,22.315,16.555,24.93-1.5,3.513-4.5,2.364c0,0,2.257,24.663-15.066,25.679s-29.311-9.633-29.311-9.633-36.775,4.409-30.788-26.635c0,0-10.735,7.766-8.039,19.292,0,0,.467,1.412-1.494,2.255C868.193-296.723,849.484-295.409,845.246-301.58Z" fill="#332966" fill-rule="evenodd"/><path d="M841.215-318.127c-.375-4.208-.267-8.412.764-11.567,1.36-4.164,6.838-10.079,13.373-15.485,1.646,6.319,6.934,13,21.351,10.351,25.537-4.7,33.463-9.812,46.96-4.067,0,0-11.22-2.828-33.121,8.007C870.962-321.2,862.137-311.466,841.215-318.127Z" fill="#463b77" fill-rule="evenodd"/><path d="M938.4-268.729s4.777-3.88,7.57-3.229,5.478,7.19,4.454,11.716-8.563,19.7-17.042,12.378S938.4-268.729,938.4-268.729Z" fill="#f2ba95" fill-rule="evenodd"/><path d="M850.745-282.679s-3.6-5-6.464-5.1-7.165,5.507-7.36,10.146,3.118,21.25,13.215,16.4S850.745-282.679,850.745-282.679Z" fill="#f2ba95" fill-rule="evenodd"/><path d="M885.6-236.65a1.031,1.031,0,0,1-.666-1.3,1.031,1.031,0,0,1,1.3-.667,25.345,25.345,0,0,0,6.726.9,1.03,1.03,0,0,1,1.026,1.037,1.03,1.03,0,0,1-1.037,1.026A27.81,27.81,0,0,1,885.6-236.65Z" fill="#ee8b83" fill-rule="evenodd"/><path d="M894.871-254.187c.6-.41.436-2.548.2-4-.18-1.1-.376-1.648-.689-1.643-.279-.154-.683.245-1.3,1.143-.817,1.188-1.856,3.023-1.485,3.678A2.907,2.907,0,0,0,894.871-254.187Z" fill="#f9d4c8" fill-rule="evenodd"/><path d="M897.08-265.91a.9.9,0,0,0-1-.778.9.9,0,0,0-.781,1c.2,1.628,1.378,10.9,1.076,11.678a4.3,4.3,0,0,1-1.835,1.261,5.7,5.7,0,0,1-2.681.441.9.9,0,0,0-.983.8.9.9,0,0,0,.8.982,7.516,7.516,0,0,0,3.542-.562A5.674,5.674,0,0,0,898-253.249C898.5-254.311,897.369-264.1,897.08-265.91Z" fill="#ee8b83" fill-rule="evenodd"/><path d="M879.02-244.136a1.128,1.128,0,0,1-.574-1.486,1.124,1.124,0,0,1,1.485-.573c.029.012,10.167,4.579,21.262,2.874a1.127,1.127,0,0,1,1.284.944,1.127,1.127,0,0,1-.944,1.285C889.786-239.288,879.051-244.124,879.02-244.136Z" fill="#ee8b83" fill-rule="evenodd"/><path d="M964.407-216.528l32.514,102.017s5.287,10.883,16.793,11.971,23.664-15.729,19.622-29.876-49.542-93.142-49.542-93.142S973.734-229.121,964.407-216.528Z" fill="#f2ba95" fill-rule="evenodd"/><path d="M967.5-229.478l-9.522,1.185s-1.672-9.893-2.449-12.379-2.714-9.484-2.714-12.283,7.455-1.554,9.166,2.021,1.477,4.042,2.332,4.742,3.965-.077,3.965-.077Z" fill="#d87170" fill-rule="evenodd"/><path d="M970.085-249.914l-1.321-5.285-2.8-2.877s-6.218,1.788-8.317,1.244-3.226-3.5-2.8-4.509,5.908-2.255,10.767-3.266,7.579,2.684,9.212,4.471,1.089,1.944,2.41,5.831c1.117,3.289,2.57,8.192,3.133,10.612l-17.629,12.748C961.151-235.789,963.425-243.907,970.085-249.914Z" fill="#ee8b83" fill-rule="evenodd"/><path d="M976.242-254.357l-1.322-5.285-2.8-2.877s-6.219,1.787-8.318,1.244-3.226-3.5-2.8-4.508,5.908-2.254,10.766-3.266,7.58,2.683,9.213,4.471,1.088,1.943,2.409,5.83c1.119,3.29,2.572,8.192,3.133,10.611L968.9-235.388C967.308-240.232,969.582-248.349,976.242-254.357Z" fill="#efa68c" fill-rule="evenodd"/><path d="M964.766-215.4c-8.075-6.511-9.729-16.879-.882-20.062,0,0,6.3-10.106,13.445-13.915l4.665-8.24-1.321-5.286-2.8-2.876s-6.218,1.787-8.317,1.244-3.226-3.5-2.8-4.51,5.908-2.254,10.767-3.265,7.579,2.682,9.212,4.471,1.088,1.944,2.409,5.831a112.692,112.692,0,0,1,3.344,11.66,12.639,12.639,0,0,1-.777,6.452c-1.011,2.644-5.5,8.911-6.251,11.623s-2.466,5.351-1.667,6.719Z" fill="#f2ba95" fill-rule="evenodd"/><path d="M963.51-235.71a.446.446,0,0,1,.616-.13.446.446,0,0,1,.131.616,15.005,15.005,0,0,0-2.072,5.956.442.442,0,0,1-.5.384.442.442,0,0,1-.386-.495,15.989,15.989,0,0,1,2.207-6.331Zm17.319-26.781a.447.447,0,0,1-.574-.26.448.448,0,0,1,.261-.574l2.061-.775a.447.447,0,0,1,.574.26.445.445,0,0,1-.26.573l-2.062.776Zm1.312,5.291a.448.448,0,0,1-.568-.273.447.447,0,0,1,.274-.569l3.07-1.087a.445.445,0,0,1,.569.273.445.445,0,0,1-.272.568l-3.073,1.088Zm-4.222-8.14a.446.446,0,0,1-.488-.4.444.444,0,0,1,.4-.487,3.118,3.118,0,0,0,2.611-2.163.444.444,0,0,1,.547-.31.442.442,0,0,1,.31.547A4.041,4.041,0,0,1,977.919-265.34Z" fill="#ee8b83" fill-rule="evenodd"/><path d="M946.38-287.445l2.765.374a1.6,1.6,0,0,1,1.367,1.794l-5.836,43.149a1.6,1.6,0,0,1-1.794,1.366l-2.764-.374a1.6,1.6,0,0,1-1.367-1.794l5.835-43.15A1.6,1.6,0,0,1,946.38-287.445Z" fill="#e32d31" fill-rule="evenodd"/><path d="M960.893-261.9h0a2.731,2.731,0,0,0,3.066-2.335l1.3-9.61a2.731,2.731,0,0,0-2.335-3.066h0a2.731,2.731,0,0,0-3.066,2.335l-1.3,9.61A2.734,2.734,0,0,0,960.893-261.9Z" fill="#e32d31" fill-rule="evenodd"/><path d="M950.512-285.279a15.3,15.3,0,0,1,3.136,2.078c1,1.008,5.712,7.343,6.377,8.372a9.425,9.425,0,0,1,1.74,6.471c-.418,3.1-.872,6.453-.872,6.453s-.454,3.359-.873,6.453a9.425,9.425,0,0,1-3.4,5.777c-.915.815-7.137,5.672-8.372,6.377a15.27,15.27,0,0,1-3.574,1.17l1.663-21.745Z" fill="#e95c4d" fill-rule="evenodd"/><path d="M943.807-291.236l2.767.374a1.6,1.6,0,0,1,1.365,1.794l-6.748,49.91a1.6,1.6,0,0,1-1.794,1.367l-2.766-.374a1.6,1.6,0,0,1-1.366-1.793l6.749-49.911A1.6,1.6,0,0,1,943.807-291.236Z" fill="#e95c4d" fill-rule="evenodd"/><path d="M904.73-350.716A65.849,65.849,0,0,0,855.9-337.739a65.845,65.845,0,0,0-25.479,43.627l-.4,2.931a1.508,1.508,0,0,1-1.7,1.292,1.508,1.508,0,0,1-1.292-1.7l.4-2.932a68.856,68.856,0,0,1,26.64-45.619A68.853,68.853,0,0,1,905.134-353.7a68.84,68.84,0,0,1,45.619,26.639,68.846,68.846,0,0,1,13.568,51.057l-.4,2.931a1.509,1.509,0,0,1-1.7,1.292,1.509,1.509,0,0,1-1.291-1.7l.4-2.933a65.837,65.837,0,0,0-12.978-48.825A65.839,65.839,0,0,0,904.73-350.716Z" fill="#be338c" fill-rule="evenodd"/><path d="M827-280.011h0a2.732,2.732,0,0,1-2.335-3.065l1.3-9.611a2.734,2.734,0,0,1,3.066-2.336h0a2.735,2.735,0,0,1,2.336,3.067l-1.3,9.609A2.733,2.733,0,0,1,827-280.011Z" fill="#e32d31" fill-rule="evenodd"/><path d="M843.214-299.788a15.374,15.374,0,0,0-3.575,1.17c-1.236.705-7.458,5.563-8.372,6.379a9.412,9.412,0,0,0-3.4,5.775c-.418,3.1-.873,6.453-.873,6.453s-.454,3.359-.872,6.454a9.423,9.423,0,0,0,1.74,6.47c.666,1.029,5.374,7.365,6.378,8.372a15.294,15.294,0,0,0,3.136,2.079l4.17-21.407Z" fill="#e95c4d" fill-rule="evenodd"/><path d="M847.773-300.78l-2.765-.374a1.6,1.6,0,0,0-1.794,1.366l-5.835,43.152a1.6,1.6,0,0,0,1.366,1.793l2.765.374a1.6,1.6,0,0,0,1.794-1.367l5.836-43.15A1.6,1.6,0,0,0,847.773-300.78Z" fill="#e32d31" fill-rule="evenodd"/><path d="M851.259-303.751l-2.765-.374a1.6,1.6,0,0,0-1.794,1.366l-6.748,49.912a1.6,1.6,0,0,0,1.366,1.794l2.764.374a1.6,1.6,0,0,0,1.8-1.366l6.749-49.912A1.6,1.6,0,0,0,851.259-303.751Z" fill="#e95c4d" fill-rule="evenodd"/><path d="M904.529-349.224a63.98,63.98,0,0,0-27.767,2.338,65.213,65.213,0,0,0-24.335,14,3.01,3.01,0,0,1-4.25-.194,3.009,3.009,0,0,1,.194-4.25,71.229,71.229,0,0,1,26.6-15.281,69.921,69.921,0,0,1,30.364-2.582,69.948,69.948,0,0,1,28.589,10.552,71.255,71.255,0,0,1,21.586,21.8,3.01,3.01,0,0,1-.941,4.149,3.008,3.008,0,0,1-4.149-.942,65.184,65.184,0,0,0-19.744-19.955A63.969,63.969,0,0,0,904.529-349.224Z" fill="#e32d31" fill-rule="evenodd"/><path d="M976.254-127.015s44.924,55.279,61.76,6.152a43.271,43.271,0,0,0-3.677-31.4c-8.653-15.986-19.489-25.484-19.95-33s-4.106-22.619-17.6-24.773c-2.652-6.223-3.523-13.8-10.035-11.29,0,0-2.723,8.816-22.293,9.688,0,0-3.931,1.528-3.368,3.853s3.892,11.939,3.892,11.939-9.967,9.9-3.419,20.741,9.978,13.825,11.06,19.835S968.875-136.66,976.254-127.015Z" fill="#674af8" fill-rule="evenodd"/><path d="M1025.474-166.183c-5.833-8.144-10.781-14.057-11.087-19.08,0,0,1.423,23.518,5.228,40.307a1.028,1.028,0,0,0,1.071.862c.906-.063,1-.761.96-1.269C1021.614-145.793,1020.508-159.729,1025.474-166.183Z" fill="#373eb2" fill-rule="evenodd"/><path d="M995.554-211.2c-.012.032-4.046,12.09-30.346,13.559-.748-2.172-3.19-9.3-3.652-11.223-.378-1.56,2.829-2.814,2.837-2.814a.891.891,0,0,0,.5-1.158.89.89,0,0,0-1.156-.493c-.014.006-4.65,1.8-3.9,4.886.495,2.046,3.046,9.495,3.741,11.515-1.646,1.832-7.887,9.583-4.559,18.54.181.488.389.977.624,1.457.225.463.481.938.774,1.421,2.158,3.569,3.972,6.281,5.474,8.533,3.022,4.519,4.772,7.135,5.467,11a29.146,29.146,0,0,1-.162,6.907c-.6,6.492-1.357,14.782,3.961,21.732a.887.887,0,0,0,1.248.167.888.888,0,0,0,.164-1.247c-4.9-6.4-4.17-14.3-3.6-20.493a30.07,30.07,0,0,0,.145-7.379c-.759-4.224-2.585-6.955-5.735-11.668-1.5-2.241-3.3-4.944-5.436-8.471-.253-.42-.484-.844-.693-1.276s-.4-.877-.559-1.3c-3.062-8.243,3.02-15.439,4.307-16.835,27.781-1.454,32.229-14.722,32.244-14.759a.889.889,0,0,0-.537-1.138.888.888,0,0,0-1.137.54Z" fill="#373eb2" fill-rule="evenodd"/><path d="M890.717-279.876c-.678-1.836-2.516-3.6-12.936-6.127-13.432-3.257-20.148-4.886-22.979-1.532-1.462,1.733-.256,2.779-.806,14.2-.306,6.341-.734,7.189.125,8.949,2.24,4.588,8.519,5.719,13.617,6.638,5.409.975,10.062,1.814,13.958-.851,2.2-1.5,3.507-4.576,6.127-10.723C890.249-275.013,891.447-277.9,890.717-279.876Z" fill="#404257" fill-rule="evenodd"/><path d="M903.823-279.7c-1.252,1.137-1.377,2.465-1.617,11.432-.289,10.793-.205,12.516,1.277,14.27,1.1,1.3,3.286,2.059,7.66,3.574,3.71,1.286,7.456,2.544,12.255,2.213,2.478-.17,4.247-.292,5.957-1.532,2.142-1.552,2.165-3.388,3.915-8,2.979-7.851,5.449-9.216,4.6-12.425-.588-2.212-2.264-3.457-4.255-4.937-2.57-1.908-5.558-3.186-18.043-4.766C906.377-281.038,904.952-280.731,903.823-279.7Z" fill="#404257" fill-rule="evenodd"/><path d="M940.49-274.408c-2.846-1.015-15.153-8.058-43.9-7.99-26.988-9.895-40.962-7.487-43.984-7.506s-4,1.154-4.057,3.426c-.047,1.841.565,2.128,2.011,3.638s.969,9.729,1.754,15.632,2.252,8.216,14.66,10.4c7.41,1.306,11.69.995,14.622-.749,3.7-2.2,5.087-6.316,6.035-8.136,1.7-3.257,2.78-6.216,3.867-7.851,2.558-3.845,5.758-3.281,6.847,1.208.462,1.907.468,5.058.948,8.7.269,2.034.162,6.372,2.889,9.71,2.159,2.642,6.074,4.4,13.484,5.705,12.408,2.188,14.577.515,17.334-4.763s5.12-13.164,6.995-14.089,2.548-.985,3.134-2.731C943.853-271.956,943.336-273.392,940.49-274.408ZM888.177-277.4c-1.065,4.758-3.807,15.069-8.107,18.025-2.785,1.914-10.111,1.248-15.748.136-3.147-.621-5.592-1.4-7.672-3.4-1.752-1.688-1.77-3.592-1.98-6.551a82.644,82.644,0,0,1,.511-14.043,3.718,3.718,0,0,1,3-3.232c7.6-1.449,21.492,1.2,28.213,5.027A3.718,3.718,0,0,1,888.177-277.4Zm47.614,8.376a82.667,82.667,0,0,1-4.323,13.372c-1.21,2.709-1.878,4.492-4.1,5.478-2.64,1.171-5.2,1.068-8.374.575-5.677-.883-12.789-2.763-14.751-5.514-3.03-4.248-2.08-14.875-1.453-19.711a3.717,3.717,0,0,1,3.061-3.187c7.625-1.3,21.581.963,28.23,4.925A3.718,3.718,0,0,1,935.791-269.02Z" fill="#151515"/><ellipse cx="57.805" cy="4.515" rx="57.805" ry="4.515" transform="translate(827.143 -48.75)" fill="#674af8" stroke="#373eb2" stroke-miterlimit="10" stroke-width="1"/><path d="M915.736-42.79H879.128a5.621,5.621,0,0,1-3.883-6.366c.732-5.045,5.417-4.53,10.937-3.667s27.6,3.2,27.6,3.2Z" fill="#674af8" stroke="#373eb2" stroke-miterlimit="10" stroke-width="1" fill-rule="evenodd"/><path d="M906.855-81.622l-58.484-14S842.13-97.448,846-108.466s8.874-25.393,14.155-29.472,19.269-1.256,25.787.254,20.579,4.879,26.845,7.041c5.332,1.84,8.255,6.255,5.96,14.163S906.855-81.622,906.855-81.622Z" fill="#674af8" stroke="#373eb2" stroke-miterlimit="10" stroke-width="1" fill-rule="evenodd"/><path d="M860.073-92.823s-6.342-1.86-2.414-13.059,5.054-23.279,11.182-28.67c3.691-3.235,11.409-3.71,16.791-3.2-6.64-1.525-20.277-4.2-25.482-.183-5.282,4.079-10.291,18.453-14.154,29.472s2.372,12.847,2.372,12.847l58.485,14h0Z" fill="#674af8" stroke="#373eb2" stroke-miterlimit="10" stroke-width="1" fill-rule="evenodd"/><path d="M869.055-124.513c-1.588,5.341-4.962,17.168-5.661,21.295a7.291,7.291,0,0,0,5.139,8.939q.258.07.522.12c3.479.988,21.219,4,31.189,5.663a7.852,7.852,0,0,0,8.811-5.492l6.124-20.406c1.139-3.794,2.088-8.473-4.9-10.751s-23.033-5.787-29.3-6.939S870.892-130.7,869.055-124.513Z" fill="#674af8" stroke="#373eb2" stroke-miterlimit="10" stroke-width="1" fill-rule="evenodd"/><path d="M911.538-124.672c4.53,2.469,3.68,6.482,2.681,9.812l-6.124,20.408a7.851,7.851,0,0,1-8.811,5.492l-.863-.142c.013.1.03.215.043.31l1.773.3a7.853,7.853,0,0,0,8.812-5.492l6.124-20.408C916.245-117.942,917.14-122.265,911.538-124.672Z" fill="#674af8" stroke="#373eb2" stroke-miterlimit="10" stroke-width="1" fill-rule="evenodd"/><path d="M849.572-95.446,910.06-82.014,900.9-47a5.427,5.427,0,0,1-5.25,4.053H845.666a9.471,9.471,0,0,1-9.472-9.471,9.5,9.5,0,0,1,.1-1.338L841.423-89.8a6.756,6.756,0,0,1,7.641-5.736C849.235-95.514,849.4-95.484,849.572-95.446Z" fill="#674af8" stroke="#373eb2" stroke-miterlimit="10" stroke-width="1" fill-rule="evenodd"/><path d="M899.655-54.732c-.6-.017-1.223-.047-1.847-.067-.742.717-1.464,1.456-2.209,2.157-1.039.993-2.064,2-3.02,3.072q-.468.733-.862,1.51c-.6,1.67-1.079,3.38-1.534,5.1h5.462a5.426,5.426,0,0,0,5.256-4.042l1.974-7.537C901.8-54.643,900.729-54.7,899.655-54.732Z" fill="#674af8" stroke="#373eb2" stroke-miterlimit="10" stroke-width="1" fill-rule="evenodd"/><path d="M852.654-52.247,858-89.8a6.984,6.984,0,0,1,1.51-3.451l-9.942-2.2a6.755,6.755,0,0,0-8.059,5.132q-.055.254-.093.511l-5.133,36.046a9.47,9.47,0,0,0,8.039,10.714,9.352,9.352,0,0,0,1.337.095H856.5A9.856,9.856,0,0,1,852.654-52.247Z" fill="#674af8" stroke="#373eb2" stroke-miterlimit="10" stroke-width="1" fill-rule="evenodd"/><path d="M888.8-42.79H852.188a5.619,5.619,0,0,1-3.882-6.366c.731-5.045,5.414-4.53,10.936-3.667s27.6,3.2,27.6,3.2Z" fill="#674af8" stroke="#373eb2" stroke-miterlimit="10" stroke-width="1" fill-rule="evenodd"/><path d="M942-102.718,921.881-91.889,906.853-51.621l16.2-4.4Z" fill="#674af8" stroke="#373eb2" stroke-miterlimit="10" stroke-width="1" fill-rule="evenodd"/><path d="M944.742-100.431l-22.865,9.113L906.434-51.462l20.432-5.371Z" fill="#674af8" stroke="#373eb2" stroke-miterlimit="10" stroke-width="1" fill-rule="evenodd"/><path d="M890.765-105.181,921.877-91.32,907.392-51.464,878.006-63.213Z" fill="#674af8" stroke="#373eb2" stroke-miterlimit="10" stroke-width="1" fill-rule="evenodd"/><path d="M887.1-102.591,871.816-60.3l31.439,10.045,15.822-41.308Z" fill="#674af8" stroke="#373eb2" stroke-miterlimit="10" stroke-width="1" fill-rule="evenodd"/><path d="M925.414-91.27,908.762-49.982l20.061-5.608,17.72-41.5Z" fill="#674af8" stroke="#373eb2" stroke-miterlimit="10" stroke-width="1" fill-rule="evenodd"/><path d="M919.077-91.562l6.329.292L908.753-49.982l-5.5-.274Z" fill="#674af8" stroke="#373eb2" stroke-miterlimit="10" stroke-width="1" fill-rule="evenodd"/><path d="M881.145-86.111,879.6-81.833l4.062,1.191a2,2,0,0,1,1.4,2.305h0a1.914,1.914,0,0,1-2.176,1.448L878-77.047l.276.367,4.01.647a1.856,1.856,0,0,1,1.4,2.222c-.014.059-.03.117-.05.175h0a1.893,1.893,0,0,1-2.051,1.283l-4.73-.114.409.323,2.9.492a1.439,1.439,0,0,1,1.142,1.684,1.122,1.122,0,0,1-.027.115h0a1.63,1.63,0,0,1-1.6,1.284,30.246,30.246,0,0,1-4.763-.335c-2.493-.444-5.492-3.764-3.794-9.178S875.541-86.494,881.145-86.111Z" fill="#674af8" stroke="#373eb2" stroke-miterlimit="10" stroke-width="1" fill-rule="evenodd"/><path d="M853.019-85.578c-.037.052-.155.274-.235.432l-.261.53c-.17.363-.332.734-.483,1.111a19.539,19.539,0,0,0-.753,2.282,12.262,12.262,0,0,0-.412,4.388,6.515,6.515,0,0,0,1.413,3.49,9.169,9.169,0,0,0,3.451,2.467,9.9,9.9,0,0,0,4.28.919A10.713,10.713,0,0,0,864.4-71.05a17.61,17.61,0,0,0,4.116-2.772,23.761,23.761,0,0,0,1.844-1.816c.291-.321.576-.647.848-.982s.556-.7.742-.962l.064-.09a2.4,2.4,0,0,1,3.345-.568,2.4,2.4,0,0,1,.648,3.223c-.334.54-.6.926-.921,1.366s-.625.835-.951,1.24a28.92,28.92,0,0,1-2.1,2.325,22.916,22.916,0,0,1-5.138,3.894,16.407,16.407,0,0,1-6.543,2.015,15.9,15.9,0,0,1-6.9-1.021,15.466,15.466,0,0,1-5.98-3.846,13.184,13.184,0,0,1-3.313-6.751,19.045,19.045,0,0,1,.16-6.979,26.5,26.5,0,0,1,.845-3.207c.173-.522.36-1.038.565-1.551l.324-.774c.123-.279.216-.486.4-.863l.13-.255a3.759,3.759,0,0,1,5.131-1.394A3.759,3.759,0,0,1,853.272-86,4.2,4.2,0,0,1,853.019-85.578Z" fill="#674af8" stroke="#373eb2" stroke-miterlimit="10" stroke-width="1"/><path d="M900.125-67.036s-7.765-3.615-11.538,7.181a97.99,97.99,0,0,0-3.523,12.477,3.814,3.814,0,0,0,2.96,4.508,3.8,3.8,0,0,0,.774.08h.833l2.588-4.644Z" fill="#674af8" stroke="#373eb2" stroke-miterlimit="10" stroke-width="1" fill-rule="evenodd"/><path d="M889.137-42.79h2.3a3.533,3.533,0,0,0,3.149-1.922c2.77-5.417,10.013-20.529,5.535-22.324S889.54-51.485,887.459-45.1a1.762,1.762,0,0,0,1.133,2.22A1.77,1.77,0,0,0,889.137-42.79Z" fill="#674af8" stroke="#373eb2" stroke-miterlimit="10" stroke-width="1" fill-rule="evenodd"/><path d="M926.2-67.036s-7.766-3.615-11.541,7.181a98.157,98.157,0,0,0-3.522,12.477,3.812,3.812,0,0,0,2.96,4.508,3.8,3.8,0,0,0,.774.08h.833l2.588-4.644Z" fill="#674af8" stroke="#373eb2" stroke-miterlimit="10" stroke-width="1" fill-rule="evenodd"/><path d="M915.218-42.79h2.3a3.532,3.532,0,0,0,3.149-1.922c2.77-5.417,10.013-20.529,5.535-22.324S915.621-51.485,913.54-45.1a1.762,1.762,0,0,0,1.133,2.22A1.77,1.77,0,0,0,915.218-42.79Z" fill="#674af8" stroke="#373eb2" stroke-miterlimit="10" stroke-width="1" fill-rule="evenodd"/><circle cx="8.628" cy="8.628" r="8.628" transform="translate(869.456 -83.966)" fill="#674af8" stroke="#373eb2" stroke-miterlimit="10" stroke-width="1"/><circle cx="6.471" cy="6.471" r="6.471" transform="translate(929.854 -81.809)" fill="#674af8" stroke="#373eb2" stroke-miterlimit="10" stroke-width="1"/><path d="M882.925-98.777a.789.789,0,0,1-.432-.131,16.423,16.423,0,0,1-2.9-2.408.79.79,0,0,1,.1-1.112.789.789,0,0,1,1.069.055,15.058,15.058,0,0,0,2.589,2.157.79.79,0,0,1,.216,1.1.791.791,0,0,1-.647.35Z" fill="#674af8" stroke="#373eb2" stroke-miterlimit="10" stroke-width="1"/><path d="M882.959-114.407c-.515,1.266-1.122,2.215-1.859,1.913s-.919-1.57-.406-2.834,1.53-2.047,2.269-1.747S883.472-115.671,882.959-114.407Z" fill="#674af8" stroke="#373eb2" stroke-miterlimit="10" stroke-width="1" fill-rule="evenodd"/><path d="M901.771-108.067c.6-1.226,1.273-2.132,1.989-1.78s.807,1.631.205,2.856-1.672,1.941-2.386,1.583S901.169-106.84,901.771-108.067Z" fill="#674af8" stroke="#373eb2" stroke-miterlimit="10" stroke-width="1" fill-rule="evenodd"/><path d="M892.473-169.319a.889.889,0,0,1-.039-1.259.892.892,0,0,1,1.26-.038c17.333,16.317,14.136,41.075,11.07,64.819-3.293,25.5-6.43,49.8,16.842,60.318a.891.891,0,0,1,.445,1.18.89.89,0,0,1-1.176.445C896.4-54.91,899.621-79.854,903-106.022c3.009-23.3,6.147-47.6-10.527-63.3Zm-7.584-.129a.89.89,0,0,1,1.238-.223.889.889,0,0,1,.224,1.239c-10,14.359-10.346,34.02-10.676,52.8-.46,26.1-.89,50.538-26.684,57.759a.89.89,0,0,1-1.1-.618.891.891,0,0,1,.619-1.1c24.511-6.863,24.929-30.659,25.377-56.077C874.226-134.708,874.577-154.642,884.889-169.448Z" fill="#fff" fill-rule="evenodd" opacity="0.6"/></g></svg>