<svg xmlns="http://www.w3.org/2000/svg" width="21.54" height="16.5" viewBox="0 0 21.54 16.5">
    <defs>
        <style>
            .cls-1{fill:#fff}
        </style>
    </defs>
    <g id="miscellaneous" transform="translate(-1.25 -4.25)">
        <path id="Path_831" d="M20.29 20.75H3.71a2.46 2.46 0 0 1-2.46-2.46V16a.75.75 0 0 1 1.5 0v2.29a1 1 0 0 0 1 1h16.54a1 1 0 0 0 1-1V16a.75.75 0 0 1 1.5 0v2.29a2.46 2.46 0 0 1-2.5 2.46z" class="cls-1"/>
        <path id="Path_832" d="M12 17.75a.76.76 0 0 1-.75-.75V5a.75.75 0 0 1 1.5 0v12a.76.76 0 0 1-.75.75z" class="cls-1"/>
        <path id="Path_833" d="M17 9.75a.76.76 0 0 1-.47-.16L12 6 7.47 9.59a.76.76 0 0 1-1.06-.12.77.77 0 0 1 .12-1.06l5-4a.78.78 0 0 1 .94 0l5 4A.75.75 0 0 1 17 9.75z" class="cls-1"/>
    </g>
</svg>
