<svg xmlns="http://www.w3.org/2000/svg" width="266.688" height="232.967" viewBox="0 0 266.688 232.967"><g transform="translate(-1396.312 -2400.089)"><path d="M33.054,133.383c-6.171-17.1-24.684-32.441-24.684-32.441S-3.972,89.128,1.318,76.963,21.594,65.5,29.528,52.28s-8.463-24.155,3.526-28.21,27.152,12.342,47.957,6.347S98.994,1.678,116.273.091s10.4,17.984,33.852,23.979,48.661-12.695,59.946,0-1.587,13.576,2.821,40.9,21.51,50.073,14.811,68.409-31.208-4.055-41.61,4.937,15.34,25.741,0,31.031-43.9-13.576-61.356-9.874-5.818,20.8-21.862,23.273-13.047-19.571-33.852-23.273-31.031,15.691-35.968,9.874S39.225,150.485,33.054,133.383Z" transform="translate(1440.57 2400.089) rotate(14)" fill="#4279f1" opacity="0.05"/><g transform="translate(1195.371 2299.325)"><g transform="translate(316.262 179.993)"><path d="M336.01,247.7a.459.459,0,0,0,.459-.459V219.778c0-1.628-3.966-12.216-5.551-12.216s-5.552,10.588-5.552,12.216v27.468a.459.459,0,0,0,.459.459Z" transform="translate(-325.365 -207.562)" fill="#fff" stroke="#4279f1" stroke-miterlimit="10" stroke-width="1"/><path d="M336.094,368.986H325.74a.375.375,0,0,0-.375.375v5.851a.375.375,0,0,0,.375.375h10.354a.375.375,0,0,0,.374-.375v-5.851A.375.375,0,0,0,336.094,368.986Z" transform="translate(-325.365 -295.017)" fill="#fff" stroke="#4279f1" stroke-miterlimit="10" stroke-width="1"/><path d="M336.094,295.165H325.74a.375.375,0,0,0-.375.375v33.078a.375.375,0,0,0,.375.374h10.354a.374.374,0,0,0,.374-.374V295.54A.375.375,0,0,0,336.094,295.165Z" transform="translate(-325.365 -255.023)" fill="#fff" stroke="#4279f1" stroke-miterlimit="10" stroke-width="1"/><path d="M325.365,369.178v.526h11.1v-.526a.375.375,0,0,0-.374-.375H325.74A.375.375,0,0,0,325.365,369.178Z" transform="translate(-325.365 -294.918)" fill="#fff" stroke="#4279f1" stroke-miterlimit="10" stroke-width="1" opacity="0.4" style="mix-blend-mode:multiply;isolation:isolate"/></g><g transform="translate(343.888 180.019)"><path d="M400.825,249.867v38.272H403.5l-.032-68.611-2.134-6.354-3.237-5.52,1.366,5.52s1.167,4.617,1.336,6.192C401.608,226.948,400.825,249.867,400.825,249.867Z" transform="translate(-392.394 -207.638)" fill="#cad7ef"/><g transform="translate(0 0)"><path d="M396.3,247.761a.459.459,0,0,0,.459-.459V219.834c0-1.628-3.967-12.216-5.552-12.216s-5.551,10.588-5.551,12.216V247.3a.459.459,0,0,0,.459.459Z" transform="translate(-385.654 -207.618)" fill="none" stroke="#4279f1" stroke-miterlimit="10" stroke-width="1"/><path d="M396.383,369.042H386.029a.375.375,0,0,0-.375.375v5.851a.375.375,0,0,0,.375.375h10.354a.375.375,0,0,0,.375-.375v-5.851A.375.375,0,0,0,396.383,369.042Z" transform="translate(-385.654 -295.073)" fill="#fff" stroke="#4279f1" stroke-miterlimit="10" stroke-width="1"/><path d="M396.383,295.222H386.029a.375.375,0,0,0-.375.374v33.078a.375.375,0,0,0,.375.374h10.354a.375.375,0,0,0,.375-.374V295.6A.375.375,0,0,0,396.383,295.222Z" transform="translate(-385.654 -255.079)" fill="none" stroke="#4279f1" stroke-miterlimit="10" stroke-width="1"/><g transform="translate(0 75.325)" opacity="0.4" style="mix-blend-mode:multiply;isolation:isolate"><path d="M393.056,372h-7.4v.248h7.4v1.085h1.333V372.25h2.368V372h-3.7Zm1.084,1.084h-.835v-.836h.835Z" transform="translate(-385.654 -372.002)" fill="#fff" stroke="#4279f1" stroke-miterlimit="10" stroke-width="1"/></g><path d="M385.654,369.234v.526h11.1v-.526a.375.375,0,0,0-.375-.375H386.029A.375.375,0,0,0,385.654,369.234Z" transform="translate(-385.654 -294.974)" fill="#fff" stroke="#4279f1" stroke-miterlimit="10" stroke-width="1" opacity="0.4" style="mix-blend-mode:multiply;isolation:isolate"/><g transform="translate(0.97 80.372)"><g transform="translate(0.623)"><g transform="translate(2.131)"><path d="M394.816,387.665l-.234.894H397.5l-.234-.894Z" transform="translate(-394.214 -385.534)" fill="#fff" stroke="#4279f1" stroke-miterlimit="10" stroke-width="1"/><path d="M396.878,383.015h-2.54l-.558,2.131h3.657Z" transform="translate(-393.779 -383.015)" fill="#fff" stroke="#4279f1" stroke-miterlimit="10" stroke-width="1"/><g transform="translate(0.138 0.22)" opacity="0.2" style="mix-blend-mode:multiply;isolation:isolate"><path d="M397.456,383.495l.06.229h-2.775l.06-.229Z" transform="translate(-394.439 -383.495)" fill="#fff" stroke="#4279f1" stroke-miterlimit="10" stroke-width="1"/><path d="M397.429,384.755l.06.229h-3.078l.06-.229Z" transform="translate(-394.26 -384.177)" fill="#fff" stroke="#4279f1" stroke-miterlimit="10" stroke-width="1"/><path d="M394.081,386.243l.06-.229h3.26l.06.229Z" transform="translate(-394.081 -384.86)" fill="#fff" stroke="#4279f1" stroke-miterlimit="10" stroke-width="1"/></g></g><path d="M390.166,387.665l-.234.894h2.921l-.234-.894Z" transform="translate(-389.564 -385.534)" fill="#fff" stroke="#4279f1" stroke-miterlimit="10" stroke-width="1"/><path d="M392.228,383.015h-2.54l-.558,2.131h3.657Z" transform="translate(-389.13 -383.015)" fill="#fff" stroke="#4279f1" stroke-miterlimit="10" stroke-width="1"/><g transform="translate(0.138 0.22)" opacity="0.2" style="mix-blend-mode:multiply;isolation:isolate"><path d="M392.807,383.495l.06.229h-2.775l.06-.229Z" transform="translate(-389.789 -383.495)" fill="#fff" stroke="#4279f1" stroke-miterlimit="10" stroke-width="1"/><path d="M392.779,384.755l.06.229h-3.078l.06-.229Z" transform="translate(-389.61 -384.177)" fill="#fff" stroke="#4279f1" stroke-miterlimit="10" stroke-width="1"/><path d="M389.431,386.243l.06-.229h3.26l.06.229Z" transform="translate(-389.431 -384.86)" fill="#fff" stroke="#4279f1" stroke-miterlimit="10" stroke-width="1"/></g><g transform="translate(4.261)"><path d="M399.466,387.665l-.234.894h2.921l-.234-.894Z" transform="translate(-398.864 -385.534)" fill="#fff" stroke="#4279f1" stroke-miterlimit="10" stroke-width="1"/><path d="M401.528,383.015h-2.54l-.558,2.131h3.657Z" transform="translate(-398.429 -383.015)" fill="#fff" stroke="#4279f1" stroke-miterlimit="10" stroke-width="1"/><g transform="translate(0.138 0.22)" opacity="0.2" style="mix-blend-mode:multiply;isolation:isolate"><path d="M402.106,383.495l.06.229h-2.775l.06-.229Z" transform="translate(-399.088 -383.495)" fill="#fff" stroke="#4279f1" stroke-miterlimit="10" stroke-width="1"/><path d="M402.079,384.755l.06.229h-3.078l.06-.229Z" transform="translate(-398.909 -384.177)" fill="#fff" stroke="#4279f1" stroke-miterlimit="10" stroke-width="1"/><path d="M398.731,386.243l.06-.229h3.26l.06.229Z" transform="translate(-398.731 -384.86)" fill="#fff" stroke="#4279f1" stroke-miterlimit="10" stroke-width="1"/></g></g></g><g transform="translate(0 3.535)"><path d="M395.958,395.032a12.313,12.313,0,0,1-3.288,8.847,12.321,12.321,0,0,1-3.295-8.539c0-.2.008-.309.008-.309-.565.358-1.081,1.911-1.081,1.911a17.108,17.108,0,0,1,.841-5.629H396.2a17.027,17.027,0,0,1,.841,5.629S396.521,395.39,395.958,395.032Z" transform="translate(-388.058 -391.045)" fill="#fff"/><path d="M401.121,395.036a12.312,12.312,0,0,1-3.287,8.847c2.655-4.527,1.948-11.446,1.948-11.446a3.07,3.07,0,0,1,.955,1.012c-.018-1.577-.719-1.9-.719-1.9l1.295-.226c.048,0,.761,1.629.889,5.629C402.2,396.946,401.686,395.394,401.121,395.036Z" transform="translate(-393.222 -391.05)" fill="#cad7ef"/><path d="M392.382,403.9l-.12-.123a12.584,12.584,0,0,1-3.371-8.513,6.641,6.641,0,0,0-.692,1.472l-.428,1.289.046-1.41a17.226,17.226,0,0,1,.867-5.753l.058-.135h7.284l.058.135a17.262,17.262,0,0,1,.867,5.753l.044,1.41-.428-1.289a6.558,6.558,0,0,0-.695-1.479,12.7,12.7,0,0,1-3.369,8.518Zm-3.059-9.627-.031.463c0,.008-.006.111-.006.288a12.058,12.058,0,0,0,3.095,8.2,12.174,12.174,0,0,0,3.089-8.486l-.026-.46.31.2a2.537,2.537,0,0,1,.733.977,16.542,16.542,0,0,0-.7-4.182h-6.808a16.67,16.67,0,0,0-.7,4.182,2.562,2.562,0,0,1,.734-.977Z" transform="translate(-387.77 -390.73)" fill="#4279f1" stroke="#4279f1" stroke-miterlimit="10" stroke-width="1"/></g></g></g></g><g transform="translate(316.262 180.019)"><path d="M340.536,249.867v38.272h2.672l-.032-68.611-2.133-6.354-3.238-5.52,1.366,5.52s1.168,4.617,1.336,6.192C341.319,226.948,340.536,249.867,340.536,249.867Z" transform="translate(-332.105 -207.638)" fill="#cad7ef"/><g transform="translate(0 0)"><path d="M336.01,247.761a.459.459,0,0,0,.459-.459V219.834c0-1.628-3.966-12.216-5.551-12.216s-5.552,10.588-5.552,12.216V247.3a.459.459,0,0,0,.459.459Z" transform="translate(-325.365 -207.618)" fill="none" stroke="#4279f1" stroke-miterlimit="10" stroke-width="1"/><path d="M336.094,369.042H325.74a.375.375,0,0,0-.375.375v5.851a.375.375,0,0,0,.375.375h10.354a.375.375,0,0,0,.374-.375v-5.851A.375.375,0,0,0,336.094,369.042Z" transform="translate(-325.365 -295.073)" fill="#fff" stroke="#4279f1" stroke-miterlimit="10" stroke-width="1"/><path d="M336.094,295.222H325.74a.375.375,0,0,0-.375.374v33.078a.375.375,0,0,0,.375.374h10.354a.374.374,0,0,0,.374-.374V295.6A.375.375,0,0,0,336.094,295.222Z" transform="translate(-325.365 -255.079)" fill="none" stroke="#4279f1" stroke-miterlimit="10" stroke-width="1"/><g transform="translate(0 75.325)" opacity="0.4" style="mix-blend-mode:multiply;isolation:isolate"><path d="M332.768,372h-7.4v.248h7.4v1.085H334.1V372.25h2.368V372h-3.7Zm1.085,1.084h-.836v-.836h.836Z" transform="translate(-325.366 -372.002)" fill="#fff" stroke="#4279f1" stroke-miterlimit="10" stroke-width="1"/></g><path d="M325.365,369.234v.526h11.1v-.526a.375.375,0,0,0-.374-.375H325.74A.375.375,0,0,0,325.365,369.234Z" transform="translate(-325.365 -294.974)" fill="#fff" stroke="#4279f1" stroke-miterlimit="10" stroke-width="1" opacity="0.4" style="mix-blend-mode:multiply;isolation:isolate"/><g transform="translate(0.97 80.372)"><g transform="translate(0.623)"><g transform="translate(2.131)"><path d="M334.528,387.665l-.234.894h2.921l-.234-.894Z" transform="translate(-333.926 -385.534)" fill="#fff" stroke="#4279f1" stroke-miterlimit="10" stroke-width="1"/><path d="M336.589,383.015h-2.54l-.558,2.131h3.657Z" transform="translate(-333.491 -383.015)" fill="#fff" stroke="#4279f1" stroke-miterlimit="10" stroke-width="1"/><g transform="translate(0.138 0.22)" opacity="0.2" style="mix-blend-mode:multiply;isolation:isolate"><path d="M337.168,383.495l.06.229h-2.775l.06-.229Z" transform="translate(-334.15 -383.495)" fill="#fff" stroke="#4279f1" stroke-miterlimit="10" stroke-width="1"/><path d="M337.14,384.755l.06.229h-3.078l.06-.229Z" transform="translate(-333.971 -384.177)" fill="#fff" stroke="#4279f1" stroke-miterlimit="10" stroke-width="1"/><path d="M333.793,386.243l.06-.229h3.26l.06.229Z" transform="translate(-333.793 -384.86)" fill="#fff" stroke="#4279f1" stroke-miterlimit="10" stroke-width="1"/></g></g><path d="M329.878,387.665l-.234.894h2.921l-.234-.894Z" transform="translate(-329.276 -385.534)" fill="#fff" stroke="#4279f1" stroke-miterlimit="10" stroke-width="1"/><path d="M331.94,383.015H329.4l-.558,2.131H332.5Z" transform="translate(-328.841 -383.015)" fill="#fff" stroke="#4279f1" stroke-miterlimit="10" stroke-width="1"/><g transform="translate(0.138 0.22)" opacity="0.2" style="mix-blend-mode:multiply;isolation:isolate"><path d="M332.518,383.495l.06.229H329.8l.06-.229Z" transform="translate(-329.5 -383.495)" fill="#fff" stroke="#4279f1" stroke-miterlimit="10" stroke-width="1"/><path d="M332.491,384.755l.06.229h-3.078l.06-.229Z" transform="translate(-329.321 -384.177)" fill="#fff" stroke="#4279f1" stroke-miterlimit="10" stroke-width="1"/><path d="M329.143,386.243l.06-.229h3.26l.06.229Z" transform="translate(-329.143 -384.86)" fill="#fff" stroke="#4279f1" stroke-miterlimit="10" stroke-width="1"/></g><g transform="translate(4.261)"><path d="M339.177,387.665l-.234.894h2.921l-.234-.894Z" transform="translate(-338.575 -385.534)" fill="#fff" stroke="#4279f1" stroke-miterlimit="10" stroke-width="1"/><path d="M341.239,383.015H338.7l-.558,2.131H341.8Z" transform="translate(-338.141 -383.015)" fill="#fff" stroke="#4279f1" stroke-miterlimit="10" stroke-width="1"/><g transform="translate(0.138 0.22)" opacity="0.2" style="mix-blend-mode:multiply;isolation:isolate"><path d="M341.818,383.495l.06.229H339.1l.06-.229Z" transform="translate(-338.8 -383.495)" fill="#fff" stroke="#4279f1" stroke-miterlimit="10" stroke-width="1"/><path d="M341.79,384.755l.06.229h-3.078l.06-.229Z" transform="translate(-338.621 -384.177)" fill="#fff" stroke="#4279f1" stroke-miterlimit="10" stroke-width="1"/><path d="M338.442,386.243l.06-.229h3.26l.06.229Z" transform="translate(-338.442 -384.86)" fill="#fff" stroke="#4279f1" stroke-miterlimit="10" stroke-width="1"/></g></g></g><g transform="translate(0 3.535)"><path d="M335.669,395.032a12.312,12.312,0,0,1-3.287,8.847,12.322,12.322,0,0,1-3.295-8.539c0-.2.008-.309.008-.309-.565.358-1.081,1.911-1.081,1.911a17.107,17.107,0,0,1,.841-5.629h7.054a17.011,17.011,0,0,1,.841,5.629S336.233,395.39,335.669,395.032Z" transform="translate(-327.77 -391.045)" fill="#fff"/><path d="M340.833,395.036a12.312,12.312,0,0,1-3.287,8.847c2.655-4.527,1.948-11.446,1.948-11.446a3.065,3.065,0,0,1,.955,1.012c-.018-1.577-.719-1.9-.719-1.9l1.3-.226c.048,0,.761,1.629.889,5.629C341.914,396.946,341.4,395.394,340.833,395.036Z" transform="translate(-332.934 -391.05)" fill="#cad7ef"/><path d="M332.094,403.9l-.12-.123a12.582,12.582,0,0,1-3.371-8.513,6.655,6.655,0,0,0-.693,1.472l-.428,1.289.046-1.41a17.232,17.232,0,0,1,.867-5.753l.058-.135h7.284l.058.135a17.274,17.274,0,0,1,.866,5.753l.044,1.41-.428-1.289a6.537,6.537,0,0,0-.695-1.479,12.693,12.693,0,0,1-3.369,8.518Zm-3.059-9.627-.031.463c0,.008-.006.111-.006.288a12.056,12.056,0,0,0,3.095,8.2,12.174,12.174,0,0,0,3.089-8.486l-.026-.46.31.2a2.543,2.543,0,0,1,.734.977,16.568,16.568,0,0,0-.7-4.182h-6.808a16.623,16.623,0,0,0-.7,4.182,2.558,2.558,0,0,1,.734-.977Z" transform="translate(-327.482 -390.73)" fill="#4279f1" stroke="#4279f1" stroke-miterlimit="10" stroke-width="1"/></g></g></g></g><g transform="translate(326.638 156.675)"><path d="M348.009,276.926h17.923v-81.29a.673.673,0,0,0-.673-.673H348.682a.673.673,0,0,0-.673.673Z" transform="translate(-348.009 -177.418)" fill="#fff" stroke="#4279f1" stroke-miterlimit="10" stroke-width="1"/><path d="M356.982,156.675c-.881,0-8.679,6.957-8.952,16.861a.67.67,0,0,0,.673.683H365.26a.67.67,0,0,0,.674-.683C365.627,162.41,357.9,156.675,356.982,156.675Z" transform="translate(-348.02 -156.675)" fill="#fff" stroke="#4279f1" stroke-miterlimit="10" stroke-width="1"/></g><path d="M367.566,157.321l.579,1.34s2.378,5.023,2.931,6.787c.617,1.969,1.638,8.089,1.638,8.089v49.128l3.8,6.84V175.51l-.2-1.29-.555-6.72-3.018-5.9-2.6-3.1-2.014-1.591-.558-.225" transform="translate(-31.967)" fill="#cad7ef"/><g transform="translate(326.572 156.798)"><path d="M347.866,277.195h17.923V195.9a.673.673,0,0,0-.673-.673H348.539a.673.673,0,0,0-.673.673Z" transform="translate(-347.866 -177.686)" fill="none" stroke="#4279f1" stroke-miterlimit="10" stroke-width="1"/><path d="M356.838,156.943c-.881,0-8.679,6.957-8.952,16.862a.67.67,0,0,0,.674.683h16.557a.67.67,0,0,0,.673-.683C365.483,162.678,357.753,156.943,356.838,156.943Z" transform="translate(-347.877 -156.943)" fill="none" stroke="#4279f1" stroke-miterlimit="10" stroke-width="1"/></g><g transform="translate(328.886 259.168)"><g transform="translate(3.613 0)"><path d="M362.558,388.232l-.4,1.516h4.953l-.4-1.516Z" transform="translate(-361.538 -384.62)" fill="#fff" stroke="#4279f1" stroke-miterlimit="10" stroke-width="1"/><path d="M366.054,380.348h-4.307l-.946,3.613H367Z" transform="translate(-360.801 -380.348)" fill="#fff" stroke="#4279f1" stroke-miterlimit="10" stroke-width="1"/><g transform="translate(0.234 0.373)" opacity="0.2" style="mix-blend-mode:multiply;isolation:isolate"><path d="M367.035,381.161l.1.388h-4.706l.1-.388Z" transform="translate(-361.918 -381.161)" fill="#fff" stroke="#4279f1" stroke-miterlimit="10" stroke-width="1"/><path d="M366.989,383.3l.1.388h-5.219l.1-.388Z" transform="translate(-361.615 -382.319)" fill="#fff" stroke="#4279f1" stroke-miterlimit="10" stroke-width="1"/><path d="M361.312,385.822l.1-.388h5.528l.1.388Z" transform="translate(-361.312 -383.476)" fill="#fff" stroke="#4279f1" stroke-miterlimit="10" stroke-width="1"/></g></g><g transform="translate(0 0)"><path d="M354.674,388.232l-.4,1.516h4.953l-.4-1.516Z" transform="translate(-353.653 -384.62)" fill="#fff" stroke="#4279f1" stroke-miterlimit="10" stroke-width="1"/><path d="M358.17,380.348h-4.307l-.947,3.613h6.2Z" transform="translate(-352.916 -380.348)" fill="#fff" stroke="#4279f1" stroke-miterlimit="10" stroke-width="1"/><g transform="translate(0.234 0.373)" opacity="0.2" style="mix-blend-mode:multiply;isolation:isolate"><path d="M359.151,381.161l.1.388h-4.706l.1-.388Z" transform="translate(-354.034 -381.161)" fill="#fff" stroke="#4279f1" stroke-miterlimit="10" stroke-width="1"/><path d="M359.1,383.3l.1.388h-5.219l.1-.388Z" transform="translate(-353.731 -382.319)" fill="#fff" stroke="#4279f1" stroke-miterlimit="10" stroke-width="1"/><path d="M353.428,385.822l.1-.388h5.528l.1.388Z" transform="translate(-353.428 -383.476)" fill="#fff" stroke="#4279f1" stroke-miterlimit="10" stroke-width="1"/></g></g><g transform="translate(7.225 0)"><path d="M370.442,388.232l-.4,1.516H375l-.4-1.516Z" transform="translate(-369.422 -384.62)" fill="#fff" stroke="#4279f1" stroke-miterlimit="10" stroke-width="1"/><path d="M373.938,380.348h-4.307l-.946,3.613h6.2Z" transform="translate(-368.685 -380.348)" fill="#fff" stroke="#4279f1" stroke-miterlimit="10" stroke-width="1"/><g transform="translate(0.234 0.373)" opacity="0.2" style="mix-blend-mode:multiply;isolation:isolate"><path d="M374.919,381.161l.1.388h-4.706l.1-.388Z" transform="translate(-369.802 -381.161)" fill="#fff" stroke="#4279f1" stroke-miterlimit="10" stroke-width="1"/><path d="M374.872,383.3l.1.388h-5.219l.1-.388Z" transform="translate(-369.499 -382.319)" fill="#fff" stroke="#4279f1" stroke-miterlimit="10" stroke-width="1"/><path d="M369.2,385.822l.1-.388h5.528l.1.388Z" transform="translate(-369.196 -383.476)" fill="#fff" stroke="#4279f1" stroke-miterlimit="10" stroke-width="1"/></g></g></g><g transform="translate(308.562 210.635)"><path d="M335.6,321.553V314.93l-6.073-40.5c0,2.665-2.792,18.452-3.661,23.3a5.076,5.076,0,0,1-1.286,2.554,101.972,101.972,0,0,1-7.685,7.441c-1.655,1.437-3.824,3.171-5.218,4.269a4.764,4.764,0,0,0-1.739,2.786l-1.375,6.768Z" transform="translate(-308.562 -274.432)" fill="#fff" stroke="#4279f1" stroke-miterlimit="10" stroke-width="1"/><path d="M394.6,321.553l-1.375-6.768A4.764,4.764,0,0,0,391.489,312c-1.394-1.1-3.563-2.832-5.218-4.269a102.047,102.047,0,0,1-7.684-7.441,5.073,5.073,0,0,1-1.286-2.554c-.869-4.851-3.661-20.638-3.661-23.3l-6.073,40.5v6.623Z" transform="translate(-340.529 -274.432)" fill="#fff" stroke="#4279f1" stroke-miterlimit="10" stroke-width="1"/><path d="M387.414,372a22.157,22.157,0,0,0,2.7.942c3.57.6,14.573.391,14.573.391l.175.762-17.743-.406Z" transform="translate(-351.124 -327.293)" fill="#cad7ef" stroke="#cad7ef" stroke-miterlimit="10" stroke-width="1"/><path d="M326.672,372.082a22.085,22.085,0,0,1-2.7.942c-3.57.6-14.574.391-14.574.391l-.175.762,17.743-.406Z" transform="translate(-308.919 -327.336)" fill="#cad7ef" stroke="#cad7ef" stroke-miterlimit="10" stroke-width="1"/></g><g transform="translate(308.562 210.72)"><path d="M335.6,321.739v-6.623l-6.073-40.5c0,2.665-2.792,18.452-3.661,23.3a5.071,5.071,0,0,1-1.286,2.554,102.042,102.042,0,0,1-7.684,7.441c-1.656,1.437-3.824,3.171-5.218,4.27a4.763,4.763,0,0,0-1.739,2.785l-1.375,6.768Z" transform="translate(-308.562 -274.618)" fill="none" stroke="#4279f1" stroke-miterlimit="10" stroke-width="1"/><path d="M394.6,321.739l-1.375-6.768a4.763,4.763,0,0,0-1.739-2.785c-1.394-1.1-3.563-2.833-5.218-4.27a101.987,101.987,0,0,1-7.685-7.441,5.075,5.075,0,0,1-1.286-2.554c-.869-4.85-3.661-20.638-3.661-23.3l-6.073,40.5v6.623Z" transform="translate(-340.529 -274.618)" fill="none" stroke="#4279f1" stroke-miterlimit="10" stroke-width="1"/></g><path d="M364.962,242.731h0c-1.411-4.373-3.861-6.07-4.72-6.07s-3.309,1.7-4.72,6.07h0a37.8,37.8,0,0,0-1.353,11.2v40.5h12.147v-40.5A37.8,37.8,0,0,0,364.962,242.731Z" transform="translate(-24.708 -43.334)" fill="#fff" stroke="#4279f1" stroke-miterlimit="10" stroke-width="1"/><path d="M367.566,236.744v9.028l3.882,3.113.333,1.917,0,3.211v40.5h1.855V251.8l-.622-6.028-1.942-6.114Z" transform="translate(-31.967 -43.379)" fill="#cad7ef"/><path d="M365.106,242.814h0c-1.411-4.373-3.862-6.07-4.72-6.07s-3.309,1.7-4.72,6.07h0a37.8,37.8,0,0,0-1.353,11.2v40.5h12.147v-40.5A37.8,37.8,0,0,0,365.106,242.814Z" transform="translate(-24.786 -43.379)" fill="none" stroke="#4279f1" stroke-miterlimit="10" stroke-width="1"/><path d="M357.52,248.964h9.207c-.029-.085-.058-.17-.088-.252h-9.031C357.578,248.794,357.549,248.879,357.52,248.964Z" transform="translate(-26.524 -49.863)" fill="#fff" stroke="#4279f1" stroke-miterlimit="10" stroke-width="1"/><path d="M366.461,259.56c-.182-.319-2.494-3.113-3.882-3.113s-3.7,2.794-3.882,3.113a7.153,7.153,0,0,0-.333,1.917c.031.12,2.647-2.694,4.215-2.694s4.184,2.814,4.215,2.694A7.153,7.153,0,0,0,366.461,259.56Z" transform="translate(-26.979 -54.054)" fill="#fff" stroke="#4279f1" stroke-miterlimit="10" stroke-width="1"/><path d="M374.381,362.811c2.384,1.945,2.139,6.461,2.139,8.485v1.245h-8.954v-9.73Z" transform="translate(-31.967 -111.679)" fill="#fff" stroke="#4279f1" stroke-miterlimit="10" stroke-width="1"/><path d="M350.156,362.811c-2.384,1.945-2.139,6.461-2.139,8.485v1.245h8.954v-9.73Z" transform="translate(-21.372 -111.679)" fill="#fff" stroke="#4279f1" stroke-miterlimit="10" stroke-width="1"/><path d="M366.317,259.56c-.182-.319-2.494-3.113-3.882-3.113s-3.7,2.794-3.882,3.113a7.139,7.139,0,0,0-.333,1.917c.032.12,2.647-2.694,4.215-2.694s4.184,2.814,4.215,2.694A7.151,7.151,0,0,0,366.317,259.56Z" transform="translate(-26.901 -54.054)" fill="#fff" stroke="#4279f1" stroke-miterlimit="10" stroke-width="1"/><path d="M378.826,363.055a28.94,28.94,0,0,1,1.9,2.66,10.977,10.977,0,0,1,.505,2.773,38.416,38.416,0,0,1,0,4.3l1.1-.387.3-3.3-.673-1.944v-1.731l-1.1-2.128Z" transform="translate(-38.067 -111.811)" fill="#cad7ef" stroke="#cad7ef" stroke-miterlimit="10" stroke-width="1"/><path d="M374.381,362.811c2.384,1.945,2.139,6.461,2.139,8.485v1.245h-8.954v-9.73Z" transform="translate(-31.967 -111.679)" fill="none" stroke="#4279f1" stroke-miterlimit="10" stroke-width="1"/><path d="M366.079,345.352c1.051,0,1.258,1.9,1.258,4.392s-.968,18.633-1.258,18.633-1.258-16.143-1.258-18.633S365.028,345.352,366.079,345.352Z" transform="translate(-30.479 -102.22)" fill="#fff" stroke="#4279f1" stroke-miterlimit="10" stroke-width="1"/><g transform="translate(316.275 287.075)"><ellipse cx="19.372" cy="3.468" rx="19.372" ry="3.468" transform="translate(0 0)" fill="#cad7ef"/></g></g></g></svg>