<svg xmlns="http://www.w3.org/2000/svg" width="187" height="154" viewBox="0 0 187 153.291"><g transform="translate(-886 -1428)"><circle cx="69.5" cy="69.5" r="69.5" transform="translate(925 1428)" fill="#4279f1" opacity="0.06"/><circle cx="26.5" cy="26.5" r="26.5" transform="translate(1020 1428)" fill="#ffc85e" opacity="0.33"/><g transform="translate(202 1)"><g transform="translate(42 -252)"><g transform="translate(-653 -216)"><g transform="translate(1304 1948)"><g transform="translate(4 5)" fill="none" stroke="#4279f1" stroke-width="2"><circle cx="1" cy="1" r="1" stroke="none"/><circle cx="1" cy="1" fill="none"/></g><g transform="translate(7 5)" fill="none" stroke="#4279f1" stroke-width="2"><circle cx="1" cy="1" r="1" stroke="none"/><circle cx="1" cy="1" fill="none"/></g><g transform="translate(10 5)" fill="none" stroke="#4279f1" stroke-width="2"><circle cx="1" cy="1" r="1" stroke="none"/><circle cx="1" cy="1" fill="none"/></g><g transform="translate(16 3)" fill="none" stroke="#4279f1" stroke-width="2"><rect width="90" height="5" rx="2.5" stroke="none"/><rect x="1" y="1" width="88" height="3" rx="1.5" fill="none"/></g><g transform="translate(4 5)" fill="none" stroke="#4279f1" stroke-width="2"><circle cx="1" cy="1" r="1" stroke="none"/><circle cx="1" cy="1" fill="none"/></g><g transform="translate(4 5)" fill="none" stroke="#4279f1" stroke-width="2"><circle cx="1" cy="1" r="1" stroke="none"/><circle cx="1" cy="1" fill="none"/></g><g transform="translate(7 5)" fill="none" stroke="#4279f1" stroke-width="2"><circle cx="1" cy="1" r="1" stroke="none"/><circle cx="1" cy="1" fill="none"/></g><g transform="translate(10 5)" fill="none" stroke="#4279f1" stroke-width="2"><circle cx="1" cy="1" r="1" stroke="none"/><circle cx="1" cy="1" fill="none"/></g><g transform="translate(4 5)" fill="none" stroke="#4279f1" stroke-width="2"><circle cx="1" cy="1" r="1" stroke="none"/><circle cx="1" cy="1" fill="none"/></g><path d="M-9886-613.338h108.892" transform="translate(9886.222 623.234)" fill="none" stroke="#4279f1" stroke-width="2"/><g transform="translate(26.594 20.078)"><rect width="8.752" height="7.975" transform="translate(14.183 0.001)" fill="none" stroke="#4279f1" stroke-linecap="round" stroke-linejoin="round" stroke-width="2"/><path d="M0,0" transform="translate(0 8.194)" fill="none" stroke="#4279f1" stroke-linecap="round" stroke-width="2"/><rect width="8.752" height="7.975" transform="translate(14.183 0.001)" fill="none" stroke="#4279f1" stroke-linecap="round" stroke-linejoin="round" stroke-width="2"/><path d="M0,0" transform="translate(0 8.194)" fill="none" stroke="#4279f1" stroke-linecap="round" stroke-width="2"/><line x1="10.175" transform="translate(33.799 24.362)" fill="none" stroke="#4279f1" stroke-linecap="round" stroke-linejoin="round" stroke-width="2"/><line x1="10.175" transform="translate(33.799 16.387)" fill="none" stroke="#4279f1" stroke-linecap="round" stroke-linejoin="round" stroke-width="2"/><g transform="translate(0)"><line x1="10.175" fill="none" stroke="#4279f1" stroke-linecap="round" stroke-linejoin="round" stroke-width="2"/><line x1="10.175" transform="translate(0 7.975)" fill="none" stroke="#4279f1" stroke-linecap="round" stroke-linejoin="round" stroke-width="2"/><line x1="22.248" transform="translate(0 16.169)" fill="none" stroke="#4279f1" stroke-linecap="round" stroke-linejoin="round" stroke-width="2"/><line x1="22.248" transform="translate(0 24.362)" fill="none" stroke="#4279f1" stroke-linecap="round" stroke-linejoin="round" stroke-width="2"/><line x1="22.248" transform="translate(33.799 8.194)" fill="none" stroke="#4279f1" stroke-linecap="round" stroke-linejoin="round" stroke-width="2"/></g><rect width="8.752" height="7.975" transform="translate(47.982 16.387)" fill="none" stroke="#4279f1" stroke-linecap="round" stroke-linejoin="round" stroke-width="2"/><line x1="22.248" transform="translate(33.799)" fill="none" stroke="#4279f1" stroke-linecap="round" stroke-linejoin="round" stroke-width="2"/></g><g transform="translate(25.936 52.39)"><path d="M0,0" transform="translate(56.734 0.219)" fill="none" stroke="#4279f1" stroke-linecap="round" stroke-width="2"/><path d="M0,0" transform="translate(56.734 0.219)" fill="none" stroke="#4279f1" stroke-linecap="round" stroke-width="2"/><line x2="10.175" transform="translate(12.76 16.387)" fill="none" stroke="#4279f1" stroke-linecap="round" stroke-linejoin="round" stroke-width="2"/><line x2="10.175" transform="translate(12.76 8.413)" fill="none" stroke="#4279f1" stroke-linecap="round" stroke-linejoin="round" stroke-width="2"/><g transform="translate(0.687 0)"><g transform="translate(33.799)"><line x2="10.175" transform="translate(12.073)" fill="none" stroke="#4279f1" stroke-linecap="round" stroke-linejoin="round" stroke-width="2"/><line x2="22.248" transform="translate(0 8.194)" fill="none" stroke="#4279f1" stroke-linecap="round" stroke-linejoin="round" stroke-width="2"/><line x2="22.248" transform="translate(0 16.387)" fill="none" stroke="#4279f1" stroke-linecap="round" stroke-linejoin="round" stroke-width="2"/></g><line x2="22.248" transform="translate(0 0.219)" fill="none" stroke="#4279f1" stroke-linecap="round" stroke-linejoin="round" stroke-width="2"/></g><rect width="8.752" height="7.975" transform="translate(0 8.412)" fill="none" stroke="#4279f1" stroke-linecap="round" stroke-linejoin="round" stroke-width="2"/></g></g><g transform="translate(1357 2025)" fill="#4279f1" stroke="#4279f1" stroke-width="1"><circle cx="1.5" cy="1.5" r="1.5" stroke="none"/><circle cx="1.5" cy="1.5" r="1" fill="none"/></g></g><path d="M-9890.108-670v12.994c0,4.077,7.28,3.2,7.28,3.2" transform="translate(10608 2485)" fill="none" stroke="#4279f1" stroke-linecap="round" stroke-linejoin="round" stroke-width="2"/><path d="M-9882.829-670v12.994c0,4.077-7.28,3.2-7.28,3.2h38.691" transform="translate(10576.001 2485)" fill="none" stroke="#4279f1" stroke-linecap="round" stroke-linejoin="round" stroke-width="2"/></g><g transform="translate(-722 -562)"><g transform="translate(1406 2089.001)" fill="none"><path d="M3.781,0H27.22C29.308,0,31,2.239,31,5v6H0V5C0,2.239,1.693,0,3.781,0Z" stroke="none"/><path d="M 3.780542373657227 2.000001907348633 C 2.940042495727539 2.000001907348633 2.000003814697266 3.283031463623047 2.000003814697266 5.000131607055664 L 2.000003814697266 9.00028133392334 L 29.0004825592041 9.00028133392334 L 29.0004825592041 5.000131607055664 C 29.0004825592041 3.283031463623047 28.06044387817383 2.000001907348633 27.21994400024414 2.000001907348633 L 3.780542373657227 2.000001907348633 M 3.780542373657227 1.9073486328125e-06 L 27.21994400024414 1.9073486328125e-06 C 29.30788230895996 1.9073486328125e-06 31.0004825592041 2.238631248474121 31.0004825592041 5.000131607055664 L 31.0004825592041 11.00028133392334 L 3.814697265625e-06 11.00028133392334 L 3.814697265625e-06 5.000131607055664 C 3.814697265625e-06 2.238631248474121 1.692604064941406 1.9073486328125e-06 3.780542373657227 1.9073486328125e-06 Z" stroke="none" fill="#4279f1"/></g><g transform="translate(1406 2089)" fill="none" stroke="#4279f1" stroke-width="2"><rect width="31" height="53" rx="5" stroke="none"/><rect x="1" y="1" width="29" height="51" rx="4" fill="none"/></g><g transform="translate(1417.98 2093.992)" fill="#fff"><path d="M 5.990423202514648 1.496823787689209 L 0.9984033703804016 1.496823787689209 C 0.7235834002494812 1.496823787689209 0.5000033974647522 1.273233771324158 0.5000033974647522 0.9984137415885925 C 0.5000033974647522 0.7235937118530273 0.7235834002494812 0.5000037550926208 0.9984033703804016 0.5000037550926208 L 5.990423202514648 0.5000037550926208 C 6.265243530273438 0.5000037550926208 6.488823413848877 0.7235937118530273 6.488823413848877 0.9984137415885925 C 6.488823413848877 1.273233771324158 6.265243530273438 1.496823787689209 5.990423202514648 1.496823787689209 Z" stroke="none"/><path d="M 0.9984035491943359 3.695487976074219e-06 L 5.990423202514648 3.695487976074219e-06 C 6.541823387145996 3.695487976074219e-06 6.988823413848877 0.4470037221908569 6.988823413848877 0.9984137415885925 C 6.988823413848877 1.549823760986328 6.541823387145996 1.996823787689209 5.990423202514648 1.996823787689209 L 0.9984035491943359 1.996823787689209 C 0.4470033645629883 1.996823787689209 3.337860107421875e-06 1.549823760986328 3.337860107421875e-06 0.9984137415885925 C 3.337860107421875e-06 0.4470037221908569 0.4470033645629883 3.695487976074219e-06 0.9984035491943359 3.695487976074219e-06 Z" stroke="none" fill="#4279f1"/></g><g transform="translate(1406 2089.001)" fill="none"><path d="M3.781,0H27.22C29.308,0,31,2.239,31,5v6H0V5C0,2.239,1.693,0,3.781,0Z" stroke="none"/><path d="M 3.780542373657227 2.000001907348633 C 2.940042495727539 2.000001907348633 2.000003814697266 3.283031463623047 2.000003814697266 5.000131607055664 L 2.000003814697266 9.00028133392334 L 29.0004825592041 9.00028133392334 L 29.0004825592041 5.000131607055664 C 29.0004825592041 3.283031463623047 28.06044387817383 2.000001907348633 27.21994400024414 2.000001907348633 L 3.780542373657227 2.000001907348633 M 3.780542373657227 1.9073486328125e-06 L 27.21994400024414 1.9073486328125e-06 C 29.30788230895996 1.9073486328125e-06 31.0004825592041 2.238631248474121 31.0004825592041 5.000131607055664 L 31.0004825592041 11.00028133392334 L 3.814697265625e-06 11.00028133392334 L 3.814697265625e-06 5.000131607055664 C 3.814697265625e-06 2.238631248474121 1.692604064941406 1.9073486328125e-06 3.780542373657227 1.9073486328125e-06 Z" stroke="none" fill="#4279f1"/></g><g transform="translate(1406 2089)" fill="none" stroke="#4279f1" stroke-width="2"><rect width="31" height="53" rx="5" stroke="none"/><rect x="1" y="1" width="29" height="51" rx="4" fill="none"/></g><line x1="9.919" transform="translate(1409.771 2108.572)" fill="none" stroke="#4279f1" stroke-linecap="round" stroke-linejoin="round" stroke-width="2"/><line x1="9.919" transform="translate(1409.771 2116.346)" fill="none" stroke="#4279f1" stroke-linecap="round" stroke-linejoin="round" stroke-width="2"/><line x1="21.687" transform="translate(1409.771 2124.333)" fill="none" stroke="#4279f1" stroke-linecap="round" stroke-linejoin="round" stroke-width="2"/><rect width="8.531" height="7.774" transform="translate(1423.597 2108.573)" fill="none" stroke="#4279f1" stroke-linecap="round" stroke-linejoin="round" stroke-width="2"/><g transform="translate(1420 2136)" fill="#4279f1" stroke="#4279f1" stroke-width="1"><circle cx="1.5" cy="1.5" r="1.5" stroke="none"/><circle cx="1.5" cy="1.5" r="1" fill="none"/></g><line x1="21.687" transform="translate(1409.771 2124.333)" fill="none" stroke="#4279f1" stroke-linecap="round" stroke-linejoin="round" stroke-width="2"/></g><g transform="translate(693.767 1480.795)"><path d="M-10548.133-829.955h76.977a10.574,10.574,0,0,0,5.029-1.38c1.911-1.2,2.647-2.494,2.614-3.41,0-.6,0-39.316,0-39.316" transform="translate(10571.935 911.312)" fill="none" stroke="#4279f1" stroke-linecap="round" stroke-linejoin="round" stroke-width="2"/><path d="M0,59.482H48.238a4.275,4.275,0,0,0,3.151-1.861,7.869,7.869,0,0,0,1.638-4.6c0-.812,0-53.022,0-53.022" transform="translate(48.949 53.041) rotate(-90)" fill="none" stroke="#4279f1" stroke-linecap="round" stroke-linejoin="round" stroke-width="2"/><path d="M0,44.106H48.244a4.835,4.835,0,0,0,3.152-1.38,4.958,4.958,0,0,0,1.638-3.41c0-.6,0-39.316,0-39.316" transform="translate(53.035 44.106) rotate(180)" fill="none" stroke="#4279f1" stroke-linecap="round" stroke-linejoin="round" stroke-width="2"/></g></g></g></svg>