<svg xmlns="http://www.w3.org/2000/svg" width="154.092" height="154" viewBox="0 0 154.092 154.679"><g transform="translate(-301.908 -1428)"><circle cx="69.5" cy="69.5" r="69.5" transform="translate(314 1428)" fill="#4279f1" opacity="0.06"/><circle cx="26.5" cy="26.5" r="26.5" transform="translate(403 1428)" fill="#ffc85e" opacity="0.33"/><g transform="translate(172 -509)"><g transform="translate(191.729 1990.533)"><path d="M701.464,289.226v-2.172h-5.337l-2.115,1.849-3.172-7.208a5.4,5.4,0,0,0-5.412-3.575H664.4A5.377,5.377,0,0,0,659,281.654l-3.189,7.248-2.115-1.849h-5.337v2.172h4.522l1.657,1.448-2.154,1.815a6.572,6.572,0,0,0-2.342,5.035v8.255a4.017,4.017,0,0,0,1.976,3.454v3.509a2.738,2.738,0,0,0,2.735,2.735h4.4a2.738,2.738,0,0,0,2.735-2.735V309.8H688.12v2.945a2.738,2.738,0,0,0,2.735,2.735h4.4a2.739,2.739,0,0,0,2.736-2.735v-3.621a4.017,4.017,0,0,0,1.792-3.343v-8.255a6.571,6.571,0,0,0-2.342-5.035l-2.154-1.815,1.657-1.448Zm-40.455-6.737a3.251,3.251,0,0,1,3.39-2.2h21.029a3.271,3.271,0,0,1,3.407,2.237l3.46,7.865-2.488,2.205H660.019l-2.488-2.205Zm-1.292,30.253a.564.564,0,0,1-.563.563h-4.4a.563.563,0,0,1-.563-.563V309.8h5.524Zm36.1,0a.564.564,0,0,1-.563.563h-4.4a.563.563,0,0,1-.563-.563V309.8h5.47l.054,0Zm.223-18.592a4.4,4.4,0,0,1,1.569,3.374v8.255a1.848,1.848,0,0,1-1.846,1.846h-41.7a1.848,1.848,0,0,1-1.846-1.846v-8.255a4.4,4.4,0,0,1,1.569-3.374l2.41-2.03.635.555,2.365,2.1h31.436l2.363-2.095.636-.556Z" transform="translate(-648.362 -278.119)" fill="#4279f1"/><rect width="18.427" height="2.172" transform="translate(17.337 25.475)" fill="#4279f1"/><path d="M673.77,325.33a1.085,1.085,0,0,0-.264-1.191l-3.3-3.115a1.086,1.086,0,1,0-1.492,1.579l1.312,1.239h-4.781a3.467,3.467,0,0,1-3.091-2.369,1.086,1.086,0,0,0-2.065.674c.051.158,1.3,3.867,5.156,3.867h7.514A1.086,1.086,0,0,0,673.77,325.33Z" transform="translate(-654.965 -302.216)" fill="#4279f1"/><path d="M735.727,323.843h-4.781l1.312-1.239a1.086,1.086,0,1,0-1.491-1.579l-3.3,3.115a1.086,1.086,0,0,0,.746,1.876h7.513c3.861,0,5.105-3.709,5.156-3.867a1.086,1.086,0,0,0-2.065-.675A3.469,3.469,0,0,1,735.727,323.843Z" transform="translate(-692.907 -302.216)" fill="#4279f1"/></g><g transform="translate(194.802 2044.58)"><path d="M699.116,412.69h-1.949v-6.158a4.014,4.014,0,0,0-4.009-4.01H664.67a4.014,4.014,0,0,0-4.009,4.01v6.158h-1.949a3.279,3.279,0,0,0-3.276,3.275v6.07h2.172v-6.07a1.1,1.1,0,0,1,1.1-1.1h1.949v26.6a2.844,2.844,0,0,0,1.961,2.7v1.677a2.843,2.843,0,0,0,2.84,2.84h4.677a2.843,2.843,0,0,0,2.84-2.84V444.3h11.868v1.537a2.843,2.843,0,0,0,2.84,2.84h4.677a2.844,2.844,0,0,0,2.84-2.84v-1.677a2.843,2.843,0,0,0,1.961-2.7v-26.6h1.949a1.1,1.1,0,0,1,1.1,1.1v6.07h2.172v-6.07A3.279,3.279,0,0,0,699.116,412.69Zm-36.283-1.082h14.994v16.349H662.833Zm7.974,34.227a.669.669,0,0,1-.668.668h-4.677a.669.669,0,0,1-.668-.668V444.3h6.013Zm22.226,0a.669.669,0,0,1-.668.668h-4.677a.669.669,0,0,1-.668-.668V444.3h6.013Zm1.961-4.377a.668.668,0,0,1-.668.668H663.5a.668.668,0,0,1-.668-.668V430.129h32.161Zm0-13.5H680V411.607h14.994Zm0-18.522H662.833v-2.9a1.839,1.839,0,0,1,1.837-1.837h28.487a1.839,1.839,0,0,1,1.837,1.837Z" transform="translate(-655.436 -402.522)" fill="#4279f1"/><path d="M681.559,477.852a3.8,3.8,0,1,0-3.8-3.8A3.807,3.807,0,0,0,681.559,477.852Zm0-5.432a1.63,1.63,0,1,1-1.63,1.63A1.631,1.631,0,0,1,681.559,472.42Z" transform="translate(-668.06 -440.824)" fill="#4279f1"/><path d="M727.492,477.852a3.8,3.8,0,1,0-3.8-3.8A3.806,3.806,0,0,0,727.492,477.852Zm0-5.432a1.63,1.63,0,1,1-1.63,1.63A1.631,1.631,0,0,1,727.492,472.42Z" transform="translate(-694.036 -440.824)" fill="#4279f1"/></g><g transform="translate(137.006 2044.941)"><path d="M540.659,403.353c-12.283,0-18.253,2.459-18.253,7.517v24.012a6.941,6.941,0,0,0,6.933,6.933h3.537l-5.16,6.514a1.086,1.086,0,0,0,1.7,1.349l2.153-2.718a1.087,1.087,0,0,0,.273.039h17.664a1.077,1.077,0,0,0,.244-.03l2.146,2.709a1.086,1.086,0,1,0,1.7-1.349l-5.159-6.514h3.537a6.941,6.941,0,0,0,6.933-6.933V410.87C558.912,405.812,552.941,403.353,540.659,403.353Zm0,2.172c7.325,0,16.053.925,16.08,5.326H524.58C524.606,406.45,533.334,405.525,540.659,405.525Zm-16.081,7.5h14.994v12.452H524.578Zm8.683,31.8,2.385-3.011h10.025l2.385,3.011Zm23.479-9.944a4.766,4.766,0,0,1-4.76,4.761H529.339a4.766,4.766,0,0,1-4.76-4.761v-7.236H556.74Zm0-9.408H541.745V413.023H556.74Z" transform="translate(-522.406 -403.353)" fill="#4279f1"/><path d="M536.5,471.056a3.8,3.8,0,1,0-3.8-3.8A3.806,3.806,0,0,0,536.5,471.056Zm0-5.432a1.63,1.63,0,1,1-1.63,1.63A1.632,1.632,0,0,1,536.5,465.624Z" transform="translate(-528.228 -437.342)" fill="#4279f1"/><path d="M582.436,471.056a3.8,3.8,0,1,0-3.8-3.8A3.806,3.806,0,0,0,582.436,471.056Zm0-5.432a1.63,1.63,0,1,1-1.63,1.63A1.632,1.632,0,0,1,582.436,465.624Z" transform="translate(-554.205 -437.342)" fill="#4279f1"/></g><g transform="translate(131 1980)"><g transform="translate(0.676 0)"><circle cx="4.079" cy="4.079" r="4.079" transform="translate(13.6)" fill="rgba(0,0,0,0)" stroke="#4279f1" stroke-linecap="round" stroke-linejoin="round" stroke-width="2"/><line x1="0.033" y2="0.102" transform="translate(7.482 23.567)" fill="none" stroke="#4279f1" stroke-linecap="round" stroke-linejoin="round" stroke-width="2"/><line y1="0.004" x2="0.001" transform="translate(3.931 9.205)" fill="none" stroke="#4279f1" stroke-linecap="round" stroke-linejoin="round" stroke-width="2"/><path d="M513.609,278.2l-3.331,9.819a4.024,4.024,0,0,0,2.884,4.934,4.089,4.089,0,0,0,4.49-1.752" transform="translate(-510.138 -267.631)" fill="rgba(0,0,0,0)" stroke="#4279f1" stroke-linecap="round" stroke-linejoin="round" stroke-width="2"/><path d="M551.015,295.613l5.019,4.3h8.158" transform="translate(-533.255 -277.48)" fill="rgba(0,0,0,0)" stroke="#4279f1" stroke-linecap="round" stroke-linejoin="round" stroke-width="2"/><line x1="2.119" y1="1.817" transform="translate(15.64 16.316)" fill="none" stroke="#4279f1" stroke-linecap="round" stroke-linejoin="round" stroke-width="2"/><path d="M581.345,300.205a2.04,2.04,0,0,0,0-4.079" transform="translate(-550.409 -277.77)" fill="rgba(0,0,0,0)" stroke="#4279f1" stroke-linecap="round" stroke-linejoin="round" stroke-width="2"/><line y2="7.138" transform="translate(30.936 11.217)" fill="none" stroke="#4279f1" stroke-linecap="round" stroke-linejoin="round" stroke-width="2"/><line y2="21.415" transform="translate(30.936 22.435)" fill="none" stroke="#4279f1" stroke-linecap="round" stroke-linejoin="round" stroke-width="2"/><path d="M520.828,282.735a4.067,4.067,0,0,1-2.771-4.537" transform="translate(-514.586 -267.631)" fill="rgba(0,0,0,0)" stroke="#4279f1" stroke-linecap="round" stroke-linejoin="round" stroke-width="2"/><path d="M518.127,276.431a4.034,4.034,0,0,1,.125-.589,4.091,4.091,0,0,1,.336-.768" transform="translate(-514.656 -265.864)" fill="rgba(0,0,0,0)" stroke="#4279f1" stroke-linecap="round" stroke-linejoin="round" stroke-width="2"/><g transform="translate(3.932 7.137)"><path d="M536.4,281.139c-.057.077-.1.162-.156.243" transform="translate(-528.833 -276.432)" fill="rgba(0,0,0,0)" stroke="#4279f1" stroke-linecap="round" stroke-linejoin="round" stroke-width="2"/><path d="M531.261,281.7a3.978,3.978,0,0,0-.506,1.1l-3.321,10.383" transform="translate(-523.851 -276.749)" fill="rgba(0,0,0,0)" stroke="#4279f1" stroke-linecap="round" stroke-linejoin="round" stroke-width="2"/><line x1="0.032" y2="0.102" transform="translate(7.41 4.849)" fill="none" stroke="#4279f1" stroke-linecap="round" stroke-linejoin="round" stroke-width="2"/><path d="M556.04,285.512h-6.119s-6.118-7.138-8.986-8.02c-.015,0-.03,0-.044-.007A4.1,4.1,0,0,0,536.6,279" transform="translate(-529.035 -274.294)" fill="rgba(0,0,0,0)" stroke="#4279f1" stroke-linecap="round" stroke-linejoin="round" stroke-width="2"/><path d="M526.753,275.012a4.07,4.07,0,0,0-7.566-2.635" transform="translate(-519.187 -270.305)" fill="rgba(0,0,0,0)" stroke="#4279f1" stroke-linecap="round" stroke-linejoin="round" stroke-width="2"/></g></g><g transform="translate(0 18.133)"><path d="M548.481,295.613l-1.946,5.824,6.932,6.647a3.058,3.058,0,0,1,.932,2.462l-.75,11.559" transform="translate(-530.045 -295.613)" fill="rgba(0,0,0,0)" stroke="#4279f1" stroke-linecap="round" stroke-linejoin="round" stroke-width="2"/><path d="M527.081,308.356c-.713,2.421.444,4.37,2.251,5.88,3.36,2.809,8.966,4.1,8.966,4.1v11.382" transform="translate(-518.923 -302.82)" fill="rgba(0,0,0,0)" stroke="#4279f1" stroke-linecap="round" stroke-linejoin="round" stroke-width="2"/><path d="M521.405,314.9v8.158l-4.573,11.89" transform="translate(-513.247 -306.523)" fill="rgba(0,0,0,0)" stroke="#4279f1" stroke-linecap="round" stroke-linejoin="round" stroke-width="2"/><path d="M532.285,326.64v3.232a3.057,3.057,0,0,1-.436,1.574l-4.8,9.714" transform="translate(-519.028 -313.16)" fill="rgba(0,0,0,0)" stroke="#4279f1" stroke-linecap="round" stroke-linejoin="round" stroke-width="2"/><line x1="8.01" y2="0.775" transform="translate(23.603 25.717)" fill="none" stroke="#4279f1" stroke-linecap="round" stroke-linejoin="round" stroke-width="2"/><line x1="11.35" y2="1.098" transform="translate(8.025 26.901)" fill="none" stroke="#4279f1" stroke-linecap="round" stroke-linejoin="round" stroke-width="2"/><line x1="3.585" y2="0.347" transform="translate(0 28.43)" fill="none" stroke="#4279f1" stroke-linecap="round" stroke-linejoin="round" stroke-width="2"/><line x1="15.297" y1="3.059" transform="translate(31.613 25.717)" fill="none" stroke="#4279f1" stroke-linecap="round" stroke-linejoin="round" stroke-width="2"/></g></g></g></g></svg>