<svg xmlns="http://www.w3.org/2000/svg" xmlns:xlink="http://www.w3.org/1999/xlink" width="90" height="90" viewBox="0 0 90 90"><defs><filter id="a" x="0" y="0" width="90" height="90" filterUnits="userSpaceOnUse"><feOffset dy="3" input="SourceAlpha"/><feGaussianBlur stdDeviation="3" result="b"/><feFlood flood-color="#77b0d6" flood-opacity="0.161"/><feComposite operator="in" in2="b"/><feComposite in="SourceGraphic"/></filter><linearGradient id="c" x1="0.5" y1="1" x2="0.5" gradientUnits="objectBoundingBox"><stop offset="0" stop-color="#ffbef9"/><stop offset="1" stop-color="#fff1ff"/></linearGradient><linearGradient id="d" x1="0.5" y1="1" x2="0.5" gradientUnits="objectBoundingBox"><stop offset="0" stop-color="#a93aff"/><stop offset="1" stop-color="#ff81ff"/></linearGradient><linearGradient id="e" x1="0.5" y1="1" x2="0.5" gradientUnits="objectBoundingBox"><stop offset="0" stop-color="#5558ff"/><stop offset="1" stop-color="#00c0ff"/></linearGradient><linearGradient id="f" x1="0.5" y1="1" x2="0.5" gradientUnits="objectBoundingBox"><stop offset="0" stop-color="#addcff"/><stop offset="0.503" stop-color="#eaf6ff"/><stop offset="1" stop-color="#eaf6ff"/></linearGradient></defs><g transform="translate(-399 -981)"><g transform="translate(0 -5)"><g transform="matrix(1, 0, 0, 1, 399, 986)" filter="url(#a)"><circle cx="36" cy="36" r="36" transform="translate(9 6)" fill="#fff"/></g><g transform="translate(424.525 1009.525)"><g transform="translate(1.579 1.579)"><path d="M36.316,30H32.369a.79.79,0,1,0,0,1.579h3.948a.79.79,0,1,0,0-1.579Zm8,0H39.474a.79.79,0,0,0,0,1.579h4.842a.79.79,0,1,0,0-1.579Zm3.158,1.579h3.948a.79.79,0,0,0,0-1.579H47.475a.79.79,0,0,0,0,1.579ZM36.316,52.212H32.369a.79.79,0,0,0,0,1.579h3.948a.79.79,0,0,0,0-1.579Zm8,0H39.474a.79.79,0,0,0,0,1.579h4.842a.79.79,0,0,0,0-1.579Zm7.106,0H47.475a.79.79,0,0,0,0,1.579h3.948a.79.79,0,0,0,0-1.579ZM31.579,47.475a.79.79,0,0,0-1.579,0v3.948a.79.79,0,1,0,1.579,0Zm-.79-2.369a.789.789,0,0,0,.79-.79V39.474a.79.79,0,1,0-1.579,0v4.842A.789.789,0,0,0,30.79,45.106Zm0-8a.789.789,0,0,0,.79-.79V32.369a.79.79,0,0,0-1.579,0v3.948A.789.789,0,0,0,30.79,37.106ZM53,46.685a.789.789,0,0,0-.79.79v3.948a.79.79,0,0,0,1.579,0V47.475A.789.789,0,0,0,53,46.685Zm0-8a.789.789,0,0,0-.79.79v4.842a.79.79,0,0,0,1.579,0V39.474A.789.789,0,0,0,53,38.685Zm0-7.106a.789.789,0,0,0-.79.79v3.948a.79.79,0,0,0,1.579,0V32.369A.789.789,0,0,0,53,31.579Z" transform="translate(-30 -30)" fill="url(#c)"/></g><path d="M2.369,0A2.369,2.369,0,1,0,4.737,2.369,2.371,2.371,0,0,0,2.369,0ZM24.581,4.737a2.369,2.369,0,1,0-2.369-2.369A2.371,2.371,0,0,0,24.581,4.737Zm0,17.475a2.369,2.369,0,1,0,2.369,2.369A2.371,2.371,0,0,0,24.581,22.212Zm-22.212,0a2.369,2.369,0,1,0,2.369,2.369A2.371,2.371,0,0,0,2.369,22.212Zm17.475-15.9H7.106a.789.789,0,0,0-.79.79v4.737a.79.79,0,1,0,1.579,0,.79.79,0,0,1,.79-.79h2.369v7.211a.79.79,0,0,1-.79.79.79.79,0,0,0,0,1.579h6.421a.79.79,0,1,0,0-1.579.79.79,0,0,1-.79-.79V11.053h2.369a.79.79,0,0,1,.79.79.79.79,0,1,0,1.579,0V7.106A.789.789,0,0,0,19.843,6.316Z" fill="url(#d)"/></g><g transform="translate(439.963 1023.325)"><path d="M7.219,162.159H.844a.8.8,0,0,1-.8-.8V151.8a.8.8,0,0,1,.8-.8H7.219l1.488,5.366Z" transform="translate(-0.047 -142.979)" fill="url(#e)"/><path d="M145.056.075a.8.8,0,0,0-.848.108l-9.161,7.839V19.18l9.161,7.839a.8.8,0,0,0,1.306-.613V.8a.8.8,0,0,0-.458-.721Z" transform="translate(-127.875 0)" fill="url(#f)"/><path d="M430.123,128.84a.8.8,0,0,1-.563-1.36,8.776,8.776,0,0,0,0-12.4.8.8,0,1,1,1.127-1.127,10.372,10.372,0,0,1,0,14.652A.794.794,0,0,1,430.123,128.84Z" transform="translate(-406.519 -107.68)" fill="url(#e)"/><path d="M366.484,185.719a.8.8,0,0,1-.563-1.36,3.989,3.989,0,0,0,0-5.635.8.8,0,0,1,1.127-1.127,5.585,5.585,0,0,1,0,7.889A.8.8,0,0,1,366.484,185.719Z" transform="translate(-346.261 -167.939)" fill="url(#e)"/></g></g></g></svg>