<svg xmlns="http://www.w3.org/2000/svg" width="22.61" height="25.551" viewBox="0 0 22.61 25.551">
  <g id="Tik_Tok" data-name="Tik Tok" transform="translate(-325 -4437)">
    <g id="Group_3373" data-name="Group 3373" transform="translate(325 4437)">
      <path id="Path_3533" data-name="Path 3533" d="M59.316,96.006l.082.235C59.388,96.216,59.357,96.134,59.316,96.006Zm3.318-5.362A3.567,3.567,0,0,1,67.255,87.5V84.182a6.97,6.97,0,0,1,1.222.077v4.268a3.567,3.567,0,0,0-4.621,3.144,3.915,3.915,0,0,0,.69,2.372c-.143-.077-.286-.164-.434-.261A3.637,3.637,0,0,1,62.634,90.644Zm12.8-12.6a5.878,5.878,0,0,1-1.406-2.883h1.166a5.456,5.456,0,0,0,1.462,3.911l.025.025a6.5,6.5,0,0,1-1.247-1.053Zm5.618,3.006v4.181a14.594,14.594,0,0,1-2.592-.353,9.817,9.817,0,0,1-2.525-1.038s-.685-.45-.736-.481V92a8.749,8.749,0,0,1-.511,2.684,7.847,7.847,0,0,1-4.028,4.294,7.688,7.688,0,0,1-3.21.706,7.955,7.955,0,0,1-4.325-1.293,8.581,8.581,0,0,1-1.237-1.038l.011.01a7.9,7.9,0,0,0,4.324,1.293,7.691,7.691,0,0,0,3.21-.705,7.846,7.846,0,0,0,4.028-4.294,8.739,8.739,0,0,0,.511-2.684V82.342c.056.031.736.481.736.481a9.818,9.818,0,0,0,2.525,1.038,14.619,14.619,0,0,0,2.592.353V80.936A3.962,3.962,0,0,0,81.052,81.054Z" transform="translate(-58.442 -74.137)" fill="#f14242" opacity="0.6"/>
      <path id="Path_3534" data-name="Path 3534" d="M80.367,80.931v3.277a14.619,14.619,0,0,1-2.592-.353,9.818,9.818,0,0,1-2.525-1.038s-.685-.45-.736-.481v8.639A8.739,8.739,0,0,1,74,93.66a7.846,7.846,0,0,1-4.028,4.294,7.691,7.691,0,0,1-3.21.705,7.954,7.954,0,0,1-4.324-1.293l-.011-.01a8.668,8.668,0,0,1-.608-.69,8.374,8.374,0,0,1-1.156-2.1v-.005a8.423,8.423,0,0,1-.455-2.791,7.675,7.675,0,0,1,.935-3.537,8.347,8.347,0,0,1,1.815-2.219,7.615,7.615,0,0,1,2.157-1.278,7.2,7.2,0,0,1,2.678-.562v3.317a3.558,3.558,0,0,0-3.139,6.288c.148.1.292.184.435.261a3.6,3.6,0,0,0,4.37,1.114,3.357,3.357,0,0,0,1.845-2.029,4.9,4.9,0,0,0,.189-1.677V75.165h3.067a5.833,5.833,0,0,0,1.406,2.883A6.827,6.827,0,0,0,77.218,79.1a6.457,6.457,0,0,0,1.713,1.309,6.526,6.526,0,0,0,1.436.522Z" transform="translate(-58.984 -74.137)" fill="#4279f1"/>
      <g id="Group_3372" data-name="Group 3372" transform="translate(0 0)" opacity="0.3">
        <path id="Path_3535" data-name="Path 3535" d="M58.258,122.168l.077.22C58.325,122.362,58.294,122.285,58.258,122.168Z" transform="translate(-57.798 -102.748)" fill="#ffc148"/>
        <path id="Path_3536" data-name="Path 3536" d="M63.217,97.173a7.545,7.545,0,0,0-2.157,1.278,8.272,8.272,0,0,0-1.815,2.224,7.653,7.653,0,0,0-.935,3.537A8.538,8.538,0,0,0,58.764,107v.005a8.469,8.469,0,0,0,1.156,2.1,8.6,8.6,0,0,0,.608.69,8.612,8.612,0,0,1-1.835-1.717,8.194,8.194,0,0,1-1.15-2.086v-.01a8.3,8.3,0,0,1-.455-2.8,7.677,7.677,0,0,1,.935-3.537,8.278,8.278,0,0,1,1.815-2.224A7.678,7.678,0,0,1,65.9,95.66v.951a7.208,7.208,0,0,0-2.684.562Z" transform="translate(-57.083 -86.566)" fill="#ffc148"/>
        <path id="Path_3537" data-name="Path 3537" d="M82.179,73.567H79.112V89.853a5.029,5.029,0,0,1-.189,1.677,3.4,3.4,0,0,1-1.845,2.029,3.451,3.451,0,0,1-3.578-.342,3.321,3.321,0,0,1-.792-.767,3.407,3.407,0,0,0,3.144.082A3.37,3.37,0,0,0,77.7,90.5a4.9,4.9,0,0,0,.189-1.677V72.539h4.238A3.587,3.587,0,0,0,82.179,73.567Zm5.8,4.862v.9a6.082,6.082,0,0,1-3.149-1.83c.158.1.317.194.486.281A5.529,5.529,0,0,0,87.976,78.428Z" transform="translate(-66.593 -72.539)" fill="#ffc148"/>
      </g>
    </g>
  </g>
</svg>
