<svg xmlns="http://www.w3.org/2000/svg" width="28" height="28" viewBox="0 0 37.504 35.726">
    <defs>
        <style>
            .cls-3{fill:#fff8dc}.cls-4{fill:#fff082}
        </style>
    </defs>
    <g id="vip" transform="translate(0 -12.137)">
        <path id="Path_2931" fill="#ffc148" d="M37.033 25.346l-11.839-2.389-5.93-10.522a.587.587 0 0 0-1.022 0l-5.93 10.522L.471 25.346a.587.587 0 0 0-.316.972L8.33 35.21l-1.387 12a.587.587 0 0 0 .827.6l10.982-5.026 10.982 5.026a.587.587 0 0 0 .827-.6l-1.387-12 8.174-8.892a.587.587 0 0 0-.315-.972z" data-name="Path 2931"/>
        <path id="Path_2932" fill="#ffc850" d="M26.616 179.267a15.725 15.725 0 0 1-15.722-15.51L.471 165.86a.587.587 0 0 0-.316.972l8.174 8.892-1.387 12a.587.587 0 0 0 .827.6l10.983-5.024 10.982 5.026a.587.587 0 0 0 .827-.6l-1.009-8.733a15.8 15.8 0 0 1-2.936.274z" data-name="Path 2932" transform="translate(0 -140.514)"/>
        <g id="Group_3019" data-name="Group 3019" transform="translate(8.922 27.198)">
            <path id="Path_2933" d="M248.4 218.513a.756.756 0 0 0-.756-.756h-1.21a.756.756 0 0 0-.756.756.745.745 0 0 0 .6.726v7.017a.745.745 0 0 0-.6.726.756.756 0 0 0 .756.756h1.21a.756.756 0 0 0 .756-.756.745.745 0 0 0-.6-.726v-7.017a.745.745 0 0 0 .6-.726z" class="cls-3" data-name="Path 2933" transform="translate(-236.603 -217.757)"/>
            <path id="Path_2934" d="M129.82 217.758h-1.21a.756.756 0 0 0-.756.756.746.746 0 0 0 .389.648l-2 6.993c-.025.087-.071.136-.11 0l-2-6.992a.746.746 0 0 0 .389-.648.756.756 0 0 0-.756-.756h-1.21a.756.756 0 1 0 0 1.512h.034l2.086 7.3a1.559 1.559 0 0 0 3.019 0l2.086-7.3h.034a.756.756 0 0 0 0-1.512z" class="cls-3" data-name="Path 2934" transform="translate(-121.805 -217.758)"/>
            <path id="Path_2935" d="M298.4 217.758h-2.42a.756.756 0 0 0-.756.756.745.745 0 0 0 .6.726v7.017a.745.745 0 0 0-.6.726.756.756 0 0 0 .756.756h1.21a.756.756 0 0 0 .756-.756.745.745 0 0 0-.6-.726v-.938h1.054a3.781 3.781 0 1 0 0-7.561zm0 6.049h-1.059v-4.537h1.059a2.268 2.268 0 1 1 0 4.537z" class="cls-3" data-name="Path 2935" transform="translate(-282.523 -217.758)"/>
        </g>
        <g id="Group_3020" data-name="Group 3020" transform="translate(8.923 27.198)">
            <path id="Path_2936" d="M122.562 217.758a.756.756 0 0 0 0 1.512h.034l2.086 7.3a1.559 1.559 0 0 0 3.019 0l.567-1.984a15.812 15.812 0 0 1-1.186-1.356l-.836 2.926c-.025.087-.071.136-.11 0l-2-6.992a.746.746 0 0 0 .389-.648.756.756 0 0 0-.756-.756z" class="cls-4" data-name="Path 2936" transform="translate(-121.806 -217.758)"/>
            <path id="Path_2937" d="M247.439 341.663a15.692 15.692 0 0 1-1.722-.976.718.718 0 0 0-.04.22.756.756 0 0 0 .756.756z" class="cls-4" data-name="Path 2937" transform="translate(-236.603 -331.682)"/>
        </g>
    </g>
</svg>
